<?xml version="1.0" standalone="no"?>
<!DOCTYPE svg PUBLIC "-//W3C//DTD SVG 20010904//EN"
 "http://www.w3.org/TR/2001/REC-SVG-20010904/DTD/svg10.dtd">
<svg version="1.0" xmlns="http://www.w3.org/2000/svg"
 width="828.000000pt" height="828.000000pt" viewBox="0 0 828.000000 828.000000"
 preserveAspectRatio="xMidYMid meet">

<g transform="translate(0.000000,828.000000) scale(0.100000,-0.100000)"
fill="#ffffff" stroke="none">
<path d="M3870 7379 c-30 -4 -104 -13 -165 -19 -60 -6 -112 -14 -115 -18 -3
-4 -1 -36 6 -72 l11 -65 7 40 c12 68 23 83 63 94 70 20 63 37 88 -199 22 -212
22 -217 -17 -234 -31 -13 -29 -14 42 -9 41 3 89 9 105 13 l30 8 -27 1 c-17 1
-33 10 -42 24 -12 18 -28 147 -49 387 -2 23 2 25 45 28 54 4 84 -20 94 -75 10
-54 21 -38 17 25 -3 31 -6 63 -8 70 -5 13 -5 13 -85 1z"/>
<path d="M4171 7258 c-91 -199 -135 -286 -158 -310 l-27 -28 65 0 c58 1 62 2
45 15 -11 8 -23 15 -28 15 -22 0 11 105 36 113 6 1 45 1 86 -2 l74 -6 18 -47
c20 -54 16 -75 -15 -80 -12 -2 11 -7 52 -11 41 -4 76 -5 78 -3 3 2 -5 17 -16
33 -19 25 -86 177 -143 321 -11 28 -25 52 -30 52 -5 0 -22 -28 -37 -62z m46
-95 c18 -42 30 -80 27 -85 -5 -8 -123 -1 -133 8 -1 1 8 27 22 56 13 29 28 63
31 76 4 12 10 22 14 22 4 0 21 -35 39 -77z"/>
<path d="M4450 7283 c0 -16 -3 -46 -7 -67 -4 -28 -3 -37 5 -32 7 4 12 15 12
25 0 10 9 30 21 45 17 21 29 26 65 26 29 0 47 -5 50 -14 6 -16 -33 -297 -46
-332 -7 -18 -17 -24 -42 -24 -56 -1 -11 -17 81 -29 46 -6 86 -9 88 -7 2 2 -10
9 -27 16 -37 15 -37 17 -9 204 12 77 22 147 22 154 0 15 34 16 74 2 34 -12 52
-44 54 -93 1 -28 3 -26 14 18 22 83 22 82 -47 89 -35 4 -99 13 -143 21 -175
29 -165 29 -165 -2z"/>
<path d="M4871 7180 c-13 -58 -9 -100 4 -47 4 14 17 35 30 47 20 19 32 22 70
18 25 -3 48 -8 51 -11 5 -5 -2 -37 -51 -207 -36 -129 -42 -140 -78 -140 -45 0
-26 -11 61 -37 97 -28 104 -28 68 1 l-30 23 38 139 c21 77 44 153 51 171 13
30 16 31 46 23 51 -15 68 -36 71 -94 l3 -51 18 57 c9 31 17 61 17 66 0 6 -23
15 -52 21 -28 6 -103 27 -166 46 -63 19 -120 35 -126 35 -7 0 -18 -27 -25 -60z"/>
<path d="M3187 7183 c-3 -4 -12 -62 -21 -128 -29 -210 -38 -259 -53 -282 -22
-33 -37 -29 -75 20 -44 57 -58 66 -95 67 l-33 0 31 44 c26 37 30 50 25 80 -4
20 -18 44 -33 56 -45 35 -108 24 -248 -45 -62 -30 -67 -34 -39 -34 29 -1 34
-6 72 -88 58 -127 92 -210 92 -227 0 -9 -9 -20 -21 -26 -11 -7 -18 -14 -15
-18 4 -3 32 6 64 20 31 15 66 30 77 34 18 7 17 8 -7 11 -33 5 -40 13 -72 86
l-25 57 29 15 c56 29 78 18 150 -74 30 -39 36 -43 68 -37 19 3 42 12 51 20 9
8 39 20 66 27 l50 13 -32 8 c-37 10 -49 38 -39 91 6 31 10 34 82 55 86 26 93
24 136 -46 21 -34 19 -42 -17 -55 -5 -3 -8 -7 -5 -9 3 -3 39 5 80 17 69 21 73
24 49 33 -14 5 -37 25 -51 44 -14 18 -34 42 -45 53 -10 11 -49 58 -88 105 -91
112 -102 123 -108 113z m80 -173 c18 -19 33 -38 33 -41 0 -7 -132 -50 -137
-45 -3 2 14 116 22 154 l6 24 22 -29 c12 -15 36 -44 54 -63z m-402 12 c21 -15
37 -43 45 -77 6 -28 4 -40 -13 -61 -17 -23 -85 -61 -91 -52 -5 7 -35 75 -52
117 -17 44 -17 44 5 63 23 18 87 25 106 10z"/>
<path d="M5345 7044 c-81 -42 -129 -122 -128 -216 1 -69 21 -106 81 -149 78
-56 180 -53 250 7 66 56 101 152 82 223 -30 112 -186 187 -285 135z m158 -13
c98 -37 91 -215 -12 -322 -42 -43 -52 -49 -89 -49 -87 0 -127 43 -126 135 0
78 33 152 90 205 46 42 84 51 137 31z"/>
<path d="M2491 6976 c-6 -8 -25 -19 -41 -26 -39 -16 -38 -28 2 -26 31 1 35 -4
111 -128 113 -185 115 -251 11 -301 -30 -14 -40 -15 -65 -4 -36 14 -56 40
-148 191 -72 118 -81 144 -59 166 21 21 1 13 -69 -28 -64 -37 -66 -40 -36 -40
30 0 36 -7 113 -134 44 -74 94 -146 110 -160 99 -83 264 4 246 130 -6 44 -29
93 -115 234 -28 47 -51 89 -51 94 0 5 7 18 17 28 14 16 14 18 1 18 -9 0 -21
-6 -27 -14z"/>
<path d="M5754 6821 c-46 -28 -103 -100 -115 -145 -26 -96 15 -186 104 -231
100 -49 202 -23 264 69 64 94 64 174 2 249 -59 72 -185 101 -255 58z m182 -17
c44 -21 64 -59 64 -120 0 -118 -125 -256 -218 -240 -56 9 -102 64 -102 122 0
78 70 194 140 231 51 27 71 28 116 7z"/>
<path d="M4104 6757 c-31 -60 -139 -209 -206 -282 l-46 -50 -12 26 c-7 15 -23
32 -36 38 -31 14 -31 41 1 71 14 13 25 27 25 32 0 4 -25 8 -55 8 -60 0 -70
-13 -35 -45 28 -26 24 -47 -13 -70 -23 -14 -36 -34 -47 -67 -9 -30 -21 -48
-30 -48 -9 0 -32 29 -52 64 -47 80 -85 126 -107 126 -21 0 -78 -86 -117 -174
-26 -59 -54 -87 -54 -53 0 19 -53 67 -73 67 -22 0 -27 61 -6 86 16 20 -2 22
-52 6 -56 -18 -63 -35 -19 -51 40 -13 47 -34 20 -61 -17 -17 -21 -31 -18 -63
4 -60 -21 -61 -81 -5 -110 106 -138 113 -165 39 -9 -27 -22 -79 -27 -117 -5
-37 -12 -70 -15 -73 -3 -3 -17 9 -31 28 -14 18 -37 37 -51 42 -23 9 -24 13
-19 54 8 52 0 56 -53 24 l-35 -22 33 -15 c34 -17 39 -31 20 -62 -10 -15 -10
-29 -1 -62 6 -24 11 -44 10 -45 -2 -1 -29 15 -62 36 -60 38 -115 61 -143 61
-13 0 -14 -17 -9 -116 l5 -116 -23 22 c-13 12 -39 25 -57 29 -30 6 -33 10 -36
49 -4 49 -15 52 -54 15 -33 -31 -35 -43 -9 -43 41 0 51 -11 51 -56 0 -31 6
-50 21 -65 28 -28 18 -34 -22 -14 -47 25 -138 55 -166 55 -28 0 -30 -20 -8
-145 9 -48 13 -90 10 -93 -3 -3 -13 2 -23 11 -10 10 -33 17 -51 17 -28 0 -34
5 -52 45 -11 25 -23 45 -27 45 -8 0 -52 -62 -52 -73 0 -4 15 -7 34 -7 41 0 53
-14 53 -59 0 -23 7 -40 21 -51 30 -25 19 -29 -36 -15 -26 7 -78 16 -116 20
l-69 7 6 -39 c4 -21 22 -69 40 -106 33 -66 34 -69 18 -103 -17 -39 -39 -43
-66 -14 -21 23 -13 39 10 20 9 -7 19 -10 23 -6 4 4 -1 12 -11 17 -9 6 -17 15
-17 21 0 6 12 3 26 -7 14 -9 28 -14 32 -11 10 11 -32 35 -63 36 -38 0 -51 9
-64 43 -13 33 -21 34 -44 1 -23 -31 -16 -58 13 -49 26 8 60 -11 60 -34 0 -11
11 -29 25 -42 35 -33 31 -38 -19 -27 -23 5 -74 8 -112 6 -54 -2 -69 -6 -72
-19 -4 -21 32 -99 71 -158 l29 -43 -33 8 c-19 4 -50 7 -70 6 -30 -2 -38 2 -48
24 -10 23 -14 25 -25 13 -8 -8 -17 -24 -21 -36 -6 -21 -3 -23 29 -23 29 0 36
-4 36 -20 0 -10 16 -32 35 -47 19 -15 35 -31 35 -34 0 -4 -21 -9 -47 -11 -57
-6 -163 -45 -163 -60 0 -20 55 -88 76 -94 36 -10 206 15 281 40 39 13 92 36
117 51 39 23 191 176 266 268 14 17 52 60 84 96 32 37 68 78 79 94 12 15 24
27 27 27 12 0 31 -80 23 -93 -12 -21 -249 -291 -327 -374 -38 -40 -93 -87
-123 -104 -124 -71 -332 -110 -479 -91 -43 6 -82 8 -85 4 -20 -22 -66 -478
-54 -539 l6 -32 71 -3 71 -3 14 -40 c12 -35 11 -45 -4 -87 l-17 -48 -63 0
c-73 0 -69 10 -53 -132 13 -115 43 -262 74 -371 15 -48 26 -89 26 -91 0 -3 60
-5 133 -5 209 0 346 -43 497 -155 19 -15 82 -73 141 -130 l107 -104 -2 -55
c-1 -65 8 -70 -129 63 -54 52 -107 96 -117 98 -25 4 -35 -32 -27 -98 5 -42 3
-51 -19 -71 -13 -12 -26 -21 -28 -18 -31 35 -36 159 -9 207 17 29 17 31 -2 51
-54 61 -224 111 -373 111 -113 0 -134 -6 -127 -34 16 -54 112 -231 126 -229 8
1 34 7 59 13 92 24 209 -16 278 -96 22 -24 46 -44 54 -44 8 0 27 13 42 29 25
26 27 32 19 77 -5 27 -7 57 -5 67 5 26 22 20 22 -9 0 -21 13 -58 26 -73 2 -2
12 4 23 13 18 17 22 14 104 -61 47 -43 85 -83 86 -89 1 -6 -5 -17 -13 -23 -11
-9 -21 -5 -47 19 -18 16 -38 30 -43 30 -6 0 -31 -20 -56 -45 l-46 -46 -27 24
c-31 26 -33 39 -11 58 12 10 20 10 35 1 17 -11 25 -9 49 8 36 25 37 33 8 60
l-22 20 -40 -37 c-22 -21 -46 -43 -53 -50 -21 -19 -15 -37 21 -72 l34 -33 31
21 c16 12 39 33 50 46 24 31 29 31 62 -1 l28 -27 -61 -68 c-33 -38 -66 -69
-73 -69 -6 0 -24 14 -40 30 -16 17 -35 30 -42 30 -8 0 -37 -22 -64 -49 -76
-75 -76 -75 -92 -59 -8 7 -20 24 -26 37 -12 21 -10 27 17 54 l30 30 28 -22 27
-22 29 28 c34 33 35 43 3 73 l-26 24 -71 -71 -72 -72 28 -41 c15 -22 34 -44
42 -47 10 -4 37 16 79 57 l63 62 36 -27 c34 -26 36 -30 36 -86 l0 -58 -45 -27
c-49 -28 -55 -42 -27 -67 29 -26 40 -21 64 30 12 27 22 49 22 50 1 1 22 5 46
8 41 5 48 3 72 -22 l27 -28 -56 -68 -56 -68 21 -22 c11 -12 33 -29 49 -39 l28
-16 50 63 c27 35 51 69 53 74 2 6 -8 16 -22 22 -22 10 -29 9 -46 -6 -24 -21
-25 -38 -5 -55 12 -10 11 -16 -7 -41 -26 -35 -34 -35 -73 -4 l-29 24 25 28
c14 15 41 48 59 72 l34 44 -32 28 -32 29 69 72 69 73 26 -24 25 -24 -44 -51
c-25 -28 -45 -55 -45 -61 0 -20 68 -78 84 -72 19 8 96 105 96 123 0 7 -8 18
-19 23 -14 8 -24 4 -47 -20 -28 -29 -28 -31 -11 -44 18 -13 18 -15 2 -39 -10
-14 -21 -26 -26 -26 -12 0 -59 42 -59 53 0 5 20 33 45 61 l45 53 -25 27 c-29
31 -30 39 -10 56 12 10 25 3 77 -42 35 -30 71 -59 81 -64 19 -11 31 8 -154
-247 -59 -80 -99 -144 -95 -152 4 -12 78 -65 90 -65 2 0 16 20 31 46 28 48 56
64 111 64 l34 0 0 -49 c0 -33 -7 -62 -21 -85 -11 -20 -19 -41 -16 -48 2 -7 14
6 25 29 15 28 38 51 67 69 25 14 47 25 49 23 2 -2 15 -28 30 -57 l26 -52 -20
-45 c-11 -24 -20 -49 -20 -54 0 -10 79 -51 98 -51 4 0 34 69 66 152 86 227
119 313 123 317 2 3 7 0 13 -5 5 -5 0 -38 -13 -83 -15 -50 -18 -76 -11 -78 20
-7 43 -28 46 -43 2 -11 -6 -13 -34 -11 -33 2 -38 0 -38 -18 0 -12 0 -24 -1
-28 0 -4 14 -11 32 -16 38 -10 28 -24 -20 -29 -33 -3 -34 -5 -57 -83 -13 -44
-23 -88 -24 -97 0 -13 20 -24 78 -42 130 -41 145 -42 168 -11 44 61 165 93
241 64 37 -14 83 -58 83 -81 0 -27 -30 -21 -70 12 -46 40 -109 41 -163 4 -21
-14 -36 -31 -34 -37 9 -30 297 -68 378 -51 l44 9 -3 50 c-3 43 -10 56 -46 95
-169 179 -353 481 -417 685 -12 39 -26 75 -33 81 -6 6 -38 17 -71 23 -92 19
-212 72 -300 131 -93 63 -229 195 -302 295 -85 114 -83 104 -24 179 28 35 48
67 44 69 -5 3 -40 -1 -80 -7 -40 -7 -76 -10 -82 -7 -10 7 -81 168 -81 186 0 6
32 35 70 65 39 30 69 59 67 65 -2 5 -44 11 -95 13 -106 3 -94 -13 -127 166
l-22 121 -74 0 -74 0 -18 39 c-16 34 -17 45 -7 76 l12 37 76 9 76 9 13 105 c7
58 15 114 18 126 5 21 4 21 183 51 18 3 31 10 29 16 -1 5 -36 27 -77 49 -41
22 -79 43 -84 48 -9 9 47 186 64 204 4 4 40 3 80 -4 113 -19 111 0 -9 97 -21
17 -22 22 -11 44 22 41 82 132 117 174 32 41 32 41 17 85 -19 60 -130 425
-142 473 l-10 37 96 0 c53 0 145 -5 203 -11 122 -14 144 -9 293 61 213 101
422 241 651 440 180 156 375 381 445 513 14 26 27 47 30 47 3 0 21 -28 40 -62
109 -191 371 -464 637 -664 183 -137 448 -288 577 -328 51 -16 69 -17 164 -7
59 6 150 11 204 11 l96 0 -12 -47 c-7 -27 -18 -64 -25 -83 -22 -68 -99 -326
-112 -377 -12 -52 -12 -53 17 -90 33 -42 94 -134 114 -172 11 -22 10 -27 -11
-44 -66 -53 -100 -90 -92 -98 5 -5 37 -4 76 2 38 6 74 9 81 6 12 -5 76 -172
76 -199 0 -7 -37 -31 -82 -54 -45 -23 -84 -46 -86 -52 -1 -5 16 -13 40 -17
173 -27 166 -24 174 -58 4 -18 12 -75 18 -127 l11 -95 74 -10 c70 -9 75 -12
89 -43 15 -30 14 -35 -4 -74 l-21 -42 -74 0 -74 -1 -18 -105 c-10 -58 -22
-122 -28 -142 l-10 -37 -91 -3 c-50 -2 -93 -7 -94 -13 -2 -5 28 -35 67 -65 38
-30 69 -60 69 -66 0 -11 -25 -74 -61 -150 l-19 -41 -66 9 c-110 15 -113 12
-54 -57 27 -32 50 -64 50 -70 0 -22 -161 -224 -230 -288 -143 -132 -265 -202
-421 -241 -49 -13 -94 -27 -98 -32 -4 -5 -19 -43 -31 -84 -60 -192 -250 -504
-411 -675 -38 -41 -48 -59 -53 -97 -5 -40 -3 -49 14 -58 56 -30 405 13 405 51
0 23 -65 59 -107 59 -41 0 -86 -18 -107 -44 -18 -22 -51 -20 -51 2 0 19 41 62
77 81 31 16 124 14 168 -5 20 -8 52 -31 70 -51 l33 -36 49 13 c110 29 173 53
173 67 0 22 -42 166 -52 179 -5 7 -17 10 -28 7 -10 -3 -27 0 -37 6 -16 9 -14
11 15 17 39 8 43 13 35 43 -5 20 -11 22 -44 19 -52 -5 -51 7 5 46 22 15 23 2
-21 158 -3 11 0 18 8 18 9 0 35 -55 68 -143 98 -258 123 -322 127 -326 7 -7
95 31 100 43 3 7 -4 34 -15 60 l-21 47 26 52 c15 29 28 54 29 55 2 2 24 -8 50
-23 30 -18 53 -42 67 -69 12 -22 23 -35 25 -29 3 7 -5 28 -16 47 -14 22 -21
50 -21 85 l0 51 34 0 c54 0 79 -14 110 -64 16 -25 31 -46 33 -46 7 0 58 34 80
53 l21 19 -89 121 c-140 191 -180 249 -177 256 2 4 36 36 76 70 72 62 74 63
93 45 20 -18 20 -19 -12 -45 l-33 -27 39 -47 c63 -74 62 -71 35 -100 -30 -32
-43 -32 -65 1 -15 24 -15 27 0 38 15 11 14 14 -6 39 -23 31 -62 34 -67 6 -3
-19 83 -129 101 -129 7 0 29 16 50 36 43 41 46 28 -26 109 -32 36 -33 46 -6
71 21 19 21 18 85 -49 35 -38 64 -71 64 -75 0 -3 -12 -18 -27 -34 -29 -31 -33
-22 47 -117 l44 -53 -29 -24 c-38 -31 -47 -30 -72 5 -20 26 -20 29 -5 45 18
18 10 40 -21 60 -18 11 -47 0 -54 -20 -2 -5 22 -40 53 -78 l56 -67 41 34 c22
18 42 38 44 44 2 5 -8 23 -22 39 -15 16 -39 45 -55 65 l-29 36 28 27 c26 25
34 27 73 21 42 -6 46 -10 66 -56 24 -54 28 -56 60 -33 33 23 27 40 -23 70
l-45 26 0 58 c0 54 2 59 36 85 l35 27 64 -61 c35 -34 67 -61 72 -61 11 0 47
40 63 70 11 21 6 29 -59 93 l-70 71 -26 -24 c-32 -30 -32 -40 5 -75 l30 -29
25 24 25 24 30 -29 c17 -16 30 -32 30 -37 0 -4 -12 -21 -27 -38 l-28 -30 -50
50 c-75 76 -80 77 -125 41 -22 -17 -43 -31 -49 -31 -5 0 -36 30 -70 68 l-60
67 26 28 c15 15 29 27 32 27 3 0 28 -20 55 -45 53 -49 60 -49 109 2 l27 30
-28 29 c-74 75 -80 78 -107 64 -31 -17 -31 -23 0 -55 30 -29 38 -31 55 -10 12
14 15 14 31 -1 25 -23 24 -36 -7 -63 l-26 -23 -47 46 c-26 25 -51 46 -57 46
-5 0 -25 -14 -43 -31 -31 -28 -35 -29 -50 -15 -14 15 -8 24 71 103 82 82 88
86 105 70 26 -22 43 -8 46 38 2 22 9 41 16 43 12 4 13 -9 8 -66 -6 -70 -5 -72
24 -97 17 -14 34 -25 39 -25 5 0 32 23 60 51 84 84 198 117 289 85 24 -9 47
-14 51 -11 9 6 105 199 114 231 5 18 1 22 -25 28 -65 13 -206 6 -283 -14 -81
-21 -164 -60 -193 -92 -15 -17 -15 -21 0 -54 20 -40 23 -141 5 -179 -13 -30
-16 -30 -45 -6 -19 16 -22 25 -16 69 7 61 -2 102 -23 102 -8 0 -52 -35 -97
-79 -45 -43 -98 -92 -117 -108 l-35 -31 0 54 0 55 95 95 c169 170 262 230 416
270 81 21 122 25 230 25 l131 0 18 57 c44 138 95 415 95 514 0 28 -1 28 -64
28 l-64 0 -16 48 c-14 42 -14 53 -3 88 l14 39 71 3 71 3 6 32 c7 36 -10 283
-26 390 -25 159 -23 152 -44 149 -11 -2 -83 -4 -160 -4 -123 0 -151 3 -230 26
-93 28 -182 71 -225 109 -52 46 -390 437 -390 451 0 13 18 62 27 75 2 2 18
-13 35 -34 18 -22 53 -62 78 -90 25 -28 74 -85 110 -126 120 -138 200 -216
248 -242 68 -37 207 -75 304 -83 l84 -6 37 41 c20 23 37 45 37 51 0 17 -44 39
-115 56 -39 9 -76 19 -84 21 -10 3 -3 14 22 34 21 17 37 40 37 51 0 17 5 20
30 16 38 -6 43 1 29 41 -13 38 -26 39 -41 5 -9 -20 -17 -25 -36 -21 -13 2 -40
1 -60 -4 -20 -4 -38 -6 -41 -4 -2 2 10 26 27 52 35 56 62 118 62 144 0 17 -8
19 -82 19 -46 0 -100 -5 -122 -9 l-38 -9 31 30 c17 17 31 38 31 48 0 25 26 43
55 38 34 -7 40 6 18 42 -22 37 -31 38 -44 3 -13 -34 -26 -43 -64 -43 -16 0
-39 -7 -49 -15 -36 -27 -35 -16 0 58 19 41 37 90 41 110 5 34 4 37 -18 37 -30
0 -178 -26 -201 -35 -24 -10 -23 7 2 23 14 9 20 23 20 50 0 47 14 62 57 62 18
0 33 3 33 7 0 11 -44 73 -52 73 -4 0 -16 -20 -27 -45 -18 -40 -23 -45 -52 -45
-20 0 -42 -9 -56 -22 -22 -20 -23 -21 -23 -2 0 10 4 33 9 51 5 17 12 66 16
107 7 76 7 76 -17 76 -28 0 -119 -30 -167 -55 -41 -20 -50 -14 -22 16 14 16
21 36 21 65 0 43 10 54 51 54 26 0 24 12 -9 43 -39 37 -50 34 -54 -15 -3 -39
-6 -43 -36 -49 -18 -4 -44 -17 -57 -29 l-23 -22 5 116 c6 109 5 116 -13 116
-23 0 -134 -52 -177 -82 l-30 -22 7 25 c15 46 18 87 7 93 -22 14 -11 42 22 58
l32 15 -35 22 c-53 32 -61 28 -53 -24 5 -41 4 -45 -19 -54 -14 -5 -36 -23 -51
-40 -14 -17 -28 -31 -30 -31 -3 0 -8 24 -12 53 -3 28 -16 82 -27 120 -18 56
-24 67 -43 67 -25 0 -60 -24 -126 -88 -60 -56 -85 -55 -81 5 3 32 -1 46 -18
63 -27 27 -20 48 20 61 44 16 37 36 -17 52 -27 7 -50 12 -52 11 -2 -2 1 -16 7
-33 13 -37 5 -71 -17 -71 -19 0 -64 -45 -75 -74 -9 -26 -18 -14 -53 67 -34 77
-85 155 -109 164 -22 8 -54 -26 -105 -112 -45 -77 -79 -99 -79 -52 0 31 -35
85 -65 99 -30 14 -32 38 -5 63 35 32 25 45 -35 45 -30 0 -55 -4 -55 -8 0 -5
11 -19 25 -32 23 -22 37 -78 16 -65 -5 3 -22 -11 -38 -30 l-29 -35 -35 38
c-80 85 -229 293 -229 320 0 5 -7 12 -15 16 -11 4 -23 -10 -41 -47z m-337
-314 l10 -38 2 38 c1 41 10 46 33 20 42 -49 20 -80 -59 -84 -29 -2 -55 0 -59
4 -11 11 5 56 28 77 29 27 33 26 45 -17z m734 0 l2 -38 10 38 c6 20 13 37 16
37 22 -1 61 -56 61 -87 0 -21 -3 -22 -47 -17 -103 12 -114 21 -82 73 25 41 39
39 40 -6z m-964 -55 c63 -66 107 -140 98 -168 -10 -30 -20 -25 -49 24 -33 56
-89 116 -108 116 -34 0 -108 -218 -108 -317 0 -22 -7 -41 -17 -49 -34 -26 -43
-17 -43 44 0 69 19 148 56 228 29 64 100 174 112 174 4 0 31 -24 59 -52z
m1348 -67 c54 -97 85 -197 85 -275 0 -36 -2 -66 -5 -66 -2 0 -16 5 -30 12 -21
9 -25 18 -25 52 0 95 -73 316 -104 316 -24 0 -65 -40 -102 -101 -36 -58 -56
-69 -62 -36 -5 26 62 129 114 177 l47 43 22 -27 c13 -16 39 -58 60 -95z
m-1643 9 c5 0 6 11 2 25 -5 19 -2 25 9 25 17 0 47 -36 47 -56 0 -14 -52 -34
-86 -34 -20 0 -24 5 -24 33 0 18 6 39 13 46 10 10 14 7 21 -13 6 -14 14 -26
18 -26z m1794 25 c-4 -14 -2 -25 4 -25 5 0 10 8 10 18 0 26 11 34 27 21 13
-11 19 -70 8 -81 -10 -9 -97 15 -102 29 -7 18 24 63 43 63 12 0 15 -6 10 -25z
m-1262 -9 c-9 -23 -51 -46 -84 -46 -16 0 -30 4 -30 9 0 5 -3 16 -6 24 -7 18
12 24 78 26 37 1 46 -2 42 -13z m850 3 c3 -3 3 -15 -1 -27 -9 -35 -62 -30 -99
9 l-29 31 62 -4 c35 -2 65 -6 67 -9z m174 -34 c0 -28 -15 -34 -25 -9 -4 12 9
32 23 34 1 0 2 -11 2 -25z m-1293 -5 c0 -7 -6 -15 -12 -17 -8 -3 -13 4 -13 17
0 13 5 20 13 18 6 -3 12 -11 12 -18z m-39 -27 c-11 -11 -19 6 -11 24 8 17 8
17 12 0 3 -10 2 -21 -1 -24z m1364 11 c0 -8 -4 -14 -10 -14 -5 0 -10 9 -10 21
0 11 5 17 10 14 6 -3 10 -13 10 -21z m-1502 -21 c-3 -24 -10 -28 -73 -44 -71
-17 -95 -13 -95 16 0 10 102 44 163 54 5 0 7 -11 5 -26z m1720 2 c71 -17 86
-31 60 -53 -15 -12 -138 15 -150 32 -12 18 -9 46 5 42 6 -3 45 -12 85 -21z
m-1502 0 c4 -10 -5 -26 -22 -42 l-29 -27 -3 28 c-5 40 42 74 54 41z m149 -4
c-3 -6 -11 -8 -17 -5 -6 4 -5 9 3 15 16 10 23 4 14 -10z m909 -2 c-6 -11 -24
-2 -24 11 0 5 7 7 15 4 8 -4 12 -10 9 -15z m170 5 c9 -8 16 -28 16 -44 l0 -29
-31 29 c-20 18 -30 34 -26 44 8 20 21 20 41 0z m-1698 -40 c122 -81 254 -279
194 -291 -10 -2 -25 18 -45 59 -42 90 -166 208 -217 208 -26 0 -33 -40 -32
-165 1 -84 6 -125 23 -172 24 -70 24 -73 13 -73 -15 0 -62 107 -73 166 -14 72
-5 202 17 268 15 43 19 47 42 41 14 -3 49 -22 78 -41z m2248 -1 c22 -65 31
-196 17 -267 -11 -61 -58 -166 -74 -166 -5 0 -6 10 -3 23 4 12 15 47 24 77 21
71 24 279 4 303 -13 15 -17 15 -55 -5 -61 -31 -148 -125 -182 -196 -20 -41
-35 -61 -45 -59 -46 9 32 151 133 242 56 51 127 95 154 95 6 0 18 -21 27 -47z
m-1854 -11 l0 -26 -21 21 c-14 13 -19 28 -15 38 9 25 36 0 36 -33z m1380 24
c0 -7 -11 -23 -24 -35 l-23 -22 5 28 c2 15 9 34 14 40 12 15 28 8 28 -11z
m-1270 -33 c0 -6 -20 -33 -45 -60 l-44 -48 -1 35 c0 26 9 43 37 72 36 36 52
37 53 1z m1210 -65 c0 -35 -10 -35 -41 0 -45 49 -51 60 -44 83 7 20 9 19 46
-17 27 -26 39 -47 39 -66z m-1480 59 c0 -13 -60 -37 -94 -37 -31 0 -16 28 22
38 53 14 72 14 72 -1z m1726 2 c27 -7 44 -17 44 -26 0 -12 -8 -14 -37 -9 -59
11 -71 16 -77 31 -7 18 10 19 70 4z m-2245 -29 c6 -16 15 -30 20 -30 12 0 11
7 -2 32 -6 11 -8 22 -6 25 8 7 47 -35 47 -50 0 -13 -67 -43 -77 -34 -2 3 -7
24 -10 46 -7 49 13 57 28 11z m663 -1 c23 -27 35 -69 21 -69 -14 0 -65 63 -65
80 0 28 14 25 44 -11z m1416 11 c0 -11 -15 -34 -32 -51 -32 -30 -33 -31 -36
-9 -2 14 7 33 24 51 33 34 44 36 44 9z m606 5 c-3 -8 -9 -22 -12 -30 -3 -8 -2
-15 4 -15 6 0 15 14 21 30 13 40 31 38 31 -2 0 -53 -11 -62 -54 -48 -40 13
-44 24 -20 58 17 25 39 30 30 7z m-2436 -21 c0 -8 -4 -12 -10 -9 -5 3 -10 10
-10 16 0 5 5 9 10 9 6 0 10 -7 10 -16z m2220 7 c0 -6 -4 -13 -10 -16 -5 -3
-10 1 -10 9 0 9 5 16 10 16 6 0 10 -4 10 -9z m-2250 -17 c0 -8 -5 -12 -10 -9
-6 4 -8 11 -5 16 9 14 15 11 15 -7z m285 -23 c-17 -16 -60 -17 -60 -1 0 8 11
17 25 21 28 7 50 -6 35 -20z m-219 -3 c-3 -13 -6 -29 -6 -36 0 -7 -4 -10 -10
-7 -17 11 -12 65 6 65 12 0 15 -6 10 -22z m1969 12 c11 -18 -5 -28 -32 -21
-38 10 -41 31 -4 31 16 0 33 -4 36 -10z m185 -19 c0 -37 -16 -49 -24 -18 -9
35 -7 47 9 47 10 0 15 -10 15 -29z m-1775 -60 c-13 -13 -17 -12 -38 7 -17 16
-23 30 -19 48 l5 25 33 -32 c30 -29 32 -35 19 -48z m1409 10 c-19 -21 -25 -22
-39 -11 -14 12 -12 17 17 47 33 34 33 34 39 11 4 -16 -1 -30 -17 -47z m-1974
34 c0 -17 -9 -29 -30 -40 -36 -19 -51 -19 -76 -1 -18 14 -16 16 36 40 69 31
70 31 70 1z m2397 -10 c-3 -7 -15 -19 -26 -25 -29 -15 -28 13 1 42 22 22 36
13 25 -17z m187 3 c38 -19 39 -21 21 -34 -24 -18 -39 -18 -75 1 -21 11 -30 23
-30 41 0 29 13 27 84 -8z m-2444 3 c17 -33 13 -42 -15 -29 -27 12 -35 48 -10
48 8 0 19 -9 25 -19z m92 -6 c-2 -11 -8 -38 -14 -60 -9 -35 -11 -38 -23 -22
-18 24 2 109 24 105 10 -2 15 -12 13 -23z m2075 -19 c7 -32 7 -50 -2 -66 -11
-21 -13 -17 -27 38 -15 59 -13 68 13 71 3 1 10 -19 16 -43z m-1915 2 c-11 -11
-32 -3 -32 12 0 12 34 18 39 7 2 -5 -1 -13 -7 -19z m1745 8 c-6 -17 -31 -13
-35 6 -2 12 2 15 18 11 11 -3 19 -11 17 -17z m-1880 -99 c-12 -38 -26 -65 -30
-61 -10 11 -9 56 4 95 6 19 13 40 15 48 4 13 7 12 19 0 13 -13 12 -23 -8 -82z
m2015 23 c26 -97 1 -112 -31 -18 -16 47 -18 64 -9 75 15 18 22 8 40 -57z
m-2434 29 c34 -16 85 -51 113 -77 58 -51 139 -156 139 -178 0 -29 -27 -11 -70
47 -75 102 -175 179 -247 193 l-33 6 0 -43 c0 -56 24 -148 55 -209 l25 -49
-23 3 c-42 6 -87 142 -87 265 l0 73 33 0 c19 0 61 -14 95 -31z m2562 8 c0 -17
-11 -28 -45 -45 l-46 -22 14 25 c10 20 55 59 75 64 1 1 2 -9 2 -22z m390 -49
c0 -128 -48 -268 -91 -268 -18 0 -18 2 -5 23 27 41 66 175 66 227 l0 52 -32
-7 c-78 -17 -181 -98 -253 -199 -22 -30 -46 -56 -52 -56 -63 -1 122 211 233
269 34 17 75 30 97 31 l37 0 0 -72z m-2790 47 c0 -8 -11 -17 -25 -21 -37 -9
-42 2 -8 20 35 19 33 19 33 1z m139 0 c27 -13 41 -33 41 -56 0 -5 -18 1 -40
13 -22 13 -40 31 -40 41 0 21 3 21 39 2z m388 -8 c-6 -20 -27 -19 -27 2 0 14
5 19 15 14 9 -3 14 -10 12 -16z m1470 -14 c-3 -3 -11 -2 -17 2 -8 5 -7 11 2
22 12 15 13 14 16 -1 2 -10 1 -20 -1 -23z m543 17 c21 -16 22 -20 7 -20 -26 0
-59 19 -52 31 9 13 17 11 45 -11z m-2245 -116 c-26 -62 -37 -74 -50 -54 -5 8
28 129 42 153 3 5 12 -1 20 -13 14 -20 13 -27 -12 -86z m1943 27 c19 -60 20
-91 2 -91 -4 0 -19 28 -34 62 -23 53 -25 65 -15 85 16 30 22 23 47 -56z
m-2236 37 c-9 -9 -15 -9 -24 0 -10 10 -10 15 2 22 20 12 38 -6 22 -22z m2528
12 c0 -5 -5 -12 -11 -16 -14 -8 -33 11 -25 25 7 11 36 4 36 -9z m-2720 -29
c-1 -13 -3 -13 -15 3 -19 26 -19 42 0 26 8 -7 15 -20 15 -29z m2896 2 l-15
-28 -1 27 c0 14 6 28 13 31 19 7 20 1 3 -30z m-2551 2 c39 -22 62 -51 51 -62
-2 -2 -27 7 -55 21 -36 18 -51 32 -51 46 0 26 4 25 55 -5z m2245 5 c0 -14 -15
-28 -51 -46 -28 -14 -53 -23 -56 -21 -11 11 20 48 55 66 47 25 52 25 52 1z
m-2780 -12 l23 -22 -29 -24 -28 -24 -23 26 c-23 28 -30 56 -14 56 5 0 18 -11
29 -25 11 -13 22 -21 26 -18 3 4 -4 17 -16 30 -29 31 -1 32 32 1z m165 -16
c-9 -9 -35 8 -35 24 0 16 2 16 20 -1 11 -10 18 -20 15 -23z m2962 13 c-4 -8
-14 -15 -23 -15 -16 0 -16 2 1 20 20 22 31 20 22 -5z m164 1 c-12 -13 -18 -27
-13 -30 5 -3 17 5 26 19 9 14 21 25 26 25 18 0 11 -28 -14 -57 l-25 -28 -26
26 -27 26 23 22 c33 31 59 28 30 -3z m-3055 3 c11 -18 14 -79 4 -79 -14 0 -30
35 -30 64 0 27 14 34 26 15z m2814 -18 c0 -16 -9 -39 -20 -52 l-21 -24 7 45
c7 51 11 60 25 60 5 0 9 -13 9 -29z m-2650 9 c0 -5 -5 -10 -11 -10 -5 0 -7 5
-4 10 3 6 8 10 11 10 2 0 4 -4 4 -10z m2480 6 c0 -3 -4 -8 -10 -11 -5 -3 -10
-1 -10 4 0 6 5 11 10 11 6 0 10 -2 10 -4z m-2172 -68 c-29 -22 -34 -9 -12 34
l17 33 9 -25 c7 -20 5 -27 -14 -42z m1857 31 c21 -39 16 -52 -12 -31 -16 12
-21 23 -17 40 8 29 10 28 29 -9z m-2265 -68 l0 -56 -20 25 c-13 17 -20 41 -20
74 0 48 0 49 20 31 16 -14 20 -31 20 -74z m2683 -28 l-18 -27 -3 53 c-2 40 1
58 15 73 18 20 18 19 21 -25 2 -32 -3 -55 -15 -74z m-2946 39 c-18 -17 -31
-22 -46 -17 -31 9 -26 26 17 57 37 26 37 26 45 5 6 -15 2 -27 -16 -45z m3236
21 c26 -21 27 -23 8 -33 -26 -13 -32 -13 -59 8 -18 14 -22 24 -17 45 8 30 5
31 68 -20z m-3097 31 c12 -3 26 -16 32 -28 9 -21 8 -23 -16 -18 -26 4 -52 27
-52 44 0 9 7 10 36 2z m376 -18 c49 -22 75 -46 62 -59 -8 -8 -105 29 -114 43
-10 15 -13 40 -6 40 2 0 28 -11 58 -24z m2218 11 c0 -24 -24 -44 -72 -60 -79
-26 -73 9 8 48 58 28 64 29 64 12z m350 6 c0 -17 -17 -32 -44 -43 -40 -15 -46
-3 -13 26 27 23 57 32 57 17z m-185 -150 c-3 -13 -10 -23 -15 -23 -14 0 -12
107 3 130 11 18 12 15 15 -32 2 -28 1 -62 -3 -75z m-2585 36 c0 -33 -4 -59 -9
-59 -14 0 -21 28 -21 87 0 48 2 54 15 43 10 -8 15 -31 15 -71z m-291 25 c-8
-10 -15 -12 -23 -4 -7 7 -4 14 10 24 22 17 32 3 13 -20z m161 21 c23 -6 67
-51 58 -60 -9 -9 -94 17 -105 32 -19 25 -16 45 5 39 9 -3 28 -8 42 -11z m2880
2 c0 -26 -26 -46 -70 -56 -24 -5 -46 -8 -48 -6 -11 10 37 55 68 63 49 14 50
14 50 -1z m116 -1 c15 -16 19 -36 6 -36 -12 0 -32 23 -32 37 0 17 8 16 26 -1z
m-2636 -28 c0 -3 -10 -10 -22 -14 -22 -7 -53 20 -43 37 6 8 65 -12 65 -23z
m2170 28 c0 -3 -4 -16 -10 -30 -8 -23 -12 -25 -35 -14 -32 14 -32 22 3 35 31
13 42 15 42 9z m-2765 -48 c75 -21 138 -54 130 -68 -5 -9 -28 -4 -154 35 -128
39 -136 36 -122 -42 14 -69 45 -150 86 -218 20 -32 33 -60 30 -63 -10 -10 -67
53 -92 103 -53 102 -82 266 -50 278 20 8 97 -3 172 -25z m415 -14 c0 -23 -20
-67 -28 -60 -8 9 -13 76 -6 96 5 12 8 12 20 -4 8 -11 14 -25 14 -32z m2496 -4
c-2 -28 -7 -50 -12 -50 -17 0 -27 51 -15 76 18 40 30 28 27 -26z m561 -27 c-3
-38 -14 -95 -25 -129 -29 -95 -108 -202 -130 -179 -3 3 4 18 15 33 49 66 91
171 107 264 6 30 3 37 -13 43 -22 7 -97 -9 -149 -31 -21 -8 -56 -19 -80 -23
-56 -11 -51 5 10 37 64 33 133 50 207 51 l64 1 -6 -67z m-3367 47 c0 -5 -4
-10 -10 -10 -5 0 -10 5 -10 10 0 6 5 10 10 10 6 0 10 -4 10 -10z m3100 0 c0
-5 -4 -10 -10 -10 -5 0 -10 5 -10 10 0 6 5 10 10 10 6 0 10 -4 10 -10z m-2932
-33 c23 -7 50 -21 60 -31 16 -18 15 -18 -42 -12 -38 4 -64 13 -72 24 -27 35
-15 39 54 19z m2802 -7 c-13 -25 -49 -40 -96 -40 -31 0 -33 2 -23 18 11 17 65
37 112 41 15 1 16 -2 7 -19z m-3140 -16 c0 -16 -16 -19 -25 -4 -8 13 4 32 16
25 5 -4 9 -13 9 -21z m2926 -1 c-10 -10 -19 5 -10 18 6 11 8 11 12 0 2 -7 1
-15 -2 -18z m516 -5 c-6 -6 -15 -9 -18 -5 -4 3 -4 14 0 23 5 13 9 15 18 6 9
-9 9 -15 0 -24z m-2932 12 c0 -5 -4 -10 -10 -10 -5 0 -10 5 -10 10 0 6 5 10
10 10 6 0 10 -4 10 -10z m2893 -11 c-6 -6 -19 -9 -29 -6 -17 3 -16 5 6 14 28
12 39 8 23 -8z m-3348 1 c3 -5 -3 -10 -14 -10 -11 0 -23 5 -26 10 -3 6 3 10
14 10 11 0 23 -4 26 -10z m-81 -35 c4 -10 -1 -15 -14 -15 -11 0 -20 7 -20 15
0 8 6 15 14 15 8 0 16 -7 20 -15z m3506 1 c0 -13 -29 -31 -37 -23 -2 2 -1 12
3 21 8 20 34 21 34 2z m-3684 -10 c19 -15 18 -16 -8 -42 -31 -31 -54 -27 -64
11 -8 30 1 44 18 27 17 -17 33 -15 18 3 -17 20 8 21 36 1z m3866 2 c-19 -19
-14 -33 6 -15 10 10 22 17 25 17 15 0 6 -37 -14 -58 l-20 -22 -26 31 c-26 30
-26 32 -8 45 24 18 54 19 37 2z m-3812 -50 c0 -24 -36 -68 -56 -68 -26 0 -24
21 3 55 32 40 53 45 53 13z m138 -1 c2 -10 -3 -17 -12 -17 -9 0 -16 2 -16 4 0
2 -3 12 -6 21 -5 13 -2 16 12 13 10 -2 20 -11 22 -21z m3482 19 c0 -16 -14
-36 -26 -36 -14 0 -19 22 -7 33 7 8 33 10 33 3z m147 -28 c37 -36 40 -43 16
-52 -22 -9 -63 31 -63 61 0 31 8 29 47 -9z m-3613 -34 c4 -9 4 -19 2 -22 -10
-9 -36 8 -36 23 0 20 26 19 34 -1z m3446 12 c0 -16 -14 -36 -26 -36 -16 0 -16
2 -8 24 5 14 34 24 34 12z m135 -45 c-10 -17 -35 6 -35 32 l0 21 21 -21 c12
-11 18 -26 14 -32z m-3715 26 c0 -14 -20 -37 -32 -37 -12 0 -10 19 5 35 15 18
27 19 27 2z m20 -42 c0 -8 -4 -15 -10 -15 -5 0 -10 7 -10 15 0 8 5 15 10 15 6
0 10 -7 10 -15z m3660 0 c0 -8 -4 -15 -10 -15 -5 0 -10 7 -10 15 0 8 5 15 10
15 6 0 10 -7 10 -15z m-3530 -11 c0 -8 -4 -12 -10 -9 -5 3 -10 10 -10 16 0 5
5 9 10 9 6 0 10 -7 10 -16z m3400 7 c0 -6 -4 -13 -10 -16 -5 -3 -10 1 -10 9 0
9 5 16 10 16 6 0 10 -4 10 -9z m-3667 -12 c74 -11 193 -61 236 -99 40 -35 16
-33 -63 5 -80 38 -220 73 -249 62 -9 -3 -17 -16 -17 -28 0 -34 57 -125 123
-195 64 -70 70 -94 11 -49 -70 53 -172 220 -174 282 0 20 13 29 48 32 7 0 46
-4 85 -10z m4025 5 c32 -9 28 -39 -17 -130 -42 -84 -93 -150 -142 -185 -52
-37 -44 -12 18 54 62 67 123 163 123 196 0 11 -9 23 -20 26 -42 13 -181 -24
-273 -73 -53 -28 -73 -24 -36 8 73 64 273 123 347 104z m-4058 -64 c0 -5 -4
-10 -9 -10 -6 0 -13 5 -16 10 -3 6 1 10 9 10 9 0 16 -4 16 -10z m51 -16 c13
-36 2 -44 -22 -15 -23 28 -24 41 -4 41 9 0 20 -12 26 -26z m3913 17 c7 -11
-30 -58 -38 -50 -9 9 11 59 23 59 5 0 12 -4 15 -9z m41 -1 c-3 -5 -10 -10 -16
-10 -5 0 -9 5 -9 10 0 6 7 10 16 10 8 0 12 -4 9 -10z m-3911 -6 c11 -4 16 -19
16 -45 0 -37 -1 -38 -20 -27 -13 9 -20 24 -20 45 0 36 0 36 24 27z m-119 -14
c3 -5 1 -10 -4 -10 -6 0 -11 5 -11 10 0 6 2 10 4 10 3 0 8 -4 11 -10z m3935
-18 c0 -16 -8 -32 -20 -40 -19 -11 -20 -10 -20 28 0 33 3 40 20 40 15 0 20 -7
20 -28z m110 18 c0 -5 -5 -10 -11 -10 -5 0 -7 5 -4 10 3 6 8 10 11 10 2 0 4
-4 4 -10z m-3860 -54 c5 -39 3 -46 -10 -44 -10 2 -16 17 -18 52 -4 65 21 58
28 -8z m3690 7 c-7 -62 -30 -70 -30 -10 0 45 5 57 25 57 7 0 9 -15 5 -47z
m-3638 -31 c5 -56 1 -67 -18 -51 -20 16 -20 111 0 103 8 -3 16 -24 18 -52z
m3577 -48 c-6 -7 -15 -12 -19 -9 -11 7 1 99 14 107 15 10 21 -80 5 -98z m392
85 c-13 -11 -21 -22 -18 -26 4 -3 13 0 22 7 26 22 30 2 5 -25 -22 -23 -25 -24
-42 -8 -25 22 -23 35 10 55 37 24 52 22 23 -3z m-4151 1 c0 -5 -11 -10 -25
-10 -14 0 -25 5 -25 10 0 6 11 10 25 10 14 0 25 -4 25 -10z m3970 0 c0 -5 -11
-10 -25 -10 -14 0 -25 5 -25 10 0 6 11 10 25 10 14 0 25 -4 25 -10z m-3750
-34 c0 -14 -4 -28 -10 -31 -6 -4 -10 7 -10 24 0 17 5 31 10 31 6 0 10 -11 10
-24z m3500 -7 c0 -17 -4 -28 -10 -24 -5 3 -10 17 -10 31 0 13 5 24 10 24 6 0
10 -14 10 -31z m-3852 4 c14 -24 -6 -63 -33 -63 -33 0 -36 9 -12 46 25 38 32
41 45 17z m182 7 c19 -12 12 -17 -25 -21 -40 -4 -67 11 -39 22 26 11 46 10 64
-1z m3877 4 c35 -9 17 -24 -29 -24 -35 0 -39 2 -28 15 14 16 23 18 57 9z m170
-26 c25 -36 22 -48 -11 -48 -28 0 -49 38 -34 63 13 24 20 21 45 -15z m-3988
-22 c9 -11 2 -14 -35 -20 -31 -4 -52 -2 -62 6 -13 11 -11 14 9 19 41 12 76 10
88 -5z m3800 -2 c14 -13 -21 -23 -62 -18 -40 6 -45 9 -35 21 9 11 23 13 52 8
22 -3 42 -8 45 -11z m-4018 -37 c-17 -17 -24 -1 -10 25 12 21 14 21 17 4 2
-10 -1 -23 -7 -29z m4152 19 c6 -16 -2 -28 -14 -20 -12 7 -11 34 0 34 5 0 11
-6 14 -14z m-3878 -16 c7 -11 -67 -33 -97 -28 -38 5 -32 26 9 31 72 7 82 7 88
-3z m3714 -5 c1 -2 0 -9 -4 -15 -5 -8 -24 -9 -59 -5 -59 8 -69 13 -60 27 6 9
112 3 123 -7z m-3949 1 c0 -3 -4 -8 -10 -11 -5 -3 -10 -1 -10 4 0 6 5 11 10
11 6 0 10 -2 10 -4z m5 -53 c66 -20 125 -53 125 -70 0 -17 -4 -16 -43 4 -84
44 -307 59 -307 21 0 -19 69 -114 119 -163 56 -55 61 -65 32 -65 -36 0 -169
173 -186 241 -8 33 1 39 69 49 63 9 125 3 191 -17z m4293 6 c28 -11 28 -20 -4
-82 -52 -104 -140 -204 -169 -193 -14 5 -3 21 52 80 70 76 112 141 99 154 -4
4 -54 7 -109 6 -85 0 -112 -5 -164 -26 -59 -24 -73 -25 -73 -7 0 14 126 69
181 78 56 9 148 4 187 -10z m-4110 -5 c-9 -9 -21 -13 -27 -9 -16 10 -3 25 22
25 20 0 20 -1 5 -16z m3717 6 c3 -5 4 -10 1 -10 -2 0 -11 -3 -19 -6 -8 -3 -17
2 -20 10 -7 18 27 23 38 6z m-4065 -60 c0 -5 -7 -7 -15 -4 -8 4 -15 8 -15 10
0 2 7 4 15 4 8 0 15 -4 15 -10z m50 -11 c0 -24 -23 -21 -28 4 -2 10 3 17 12
17 10 0 16 -9 16 -21z m45 -10 c7 -32 0 -49 -14 -33 -5 5 -11 21 -15 37 -5 20
-3 27 8 27 8 0 17 -14 21 -31z m43 -20 c2 -41 1 -43 -13 -25 -19 24 -20 79 -2
74 6 -3 13 -24 15 -49z m4129 14 c-9 -55 -27 -66 -27 -17 0 41 5 54 23 54 5 0
7 -16 4 -37z m47 10 c-7 -32 -21 -50 -30 -41 -11 12 7 68 22 68 11 0 13 -7 8
-27z m46 19 c0 -5 -7 -17 -15 -28 -14 -19 -14 -19 -15 2 0 11 3 24 7 27 9 10
23 9 23 -1z m45 -2 c-3 -5 -13 -10 -21 -10 -8 0 -12 5 -9 10 3 6 13 10 21 10
8 0 12 -4 9 -10z m-4211 -53 c4 -26 5 -51 2 -54 -13 -13 -34 23 -39 65 -4 36
-3 43 11 40 11 -2 20 -19 26 -51z m4030 11 c-7 -44 -19 -68 -36 -68 -13 0 2
93 16 102 22 15 26 7 20 -34z m-3989 -13 c0 -16 -6 -30 -12 -32 -9 -3 -13 7
-13 32 0 25 4 35 13 33 6 -3 12 -17 12 -33z m3935 -1 c0 -24 -4 -34 -12 -32
-24 8 -22 68 2 68 5 0 10 -16 10 -36z m-4140 6 c12 -8 11 -10 -7 -10 -13 0
-23 5 -23 10 0 13 11 13 30 0z m4350 0 c0 -5 -10 -10 -22 -10 -19 0 -20 2 -8
10 19 13 30 13 30 0z m-4545 -34 c18 -13 18 -15 2 -40 -10 -14 -21 -26 -25
-26 -16 0 -52 32 -52 46 0 12 3 12 24 -1 15 -10 27 -12 30 -6 4 5 -3 12 -14
16 -11 3 -20 11 -20 16 0 14 34 11 55 -5z m255 9 c0 -9 -51 -25 -61 -19 -17
10 1 24 32 24 16 0 29 -2 29 -5z m4268 -14 c4 -11 -2 -12 -24 -7 -45 11 -55
28 -15 24 19 -2 37 -9 39 -17z m252 14 c0 -3 -12 -10 -26 -15 -14 -6 -22 -15
-19 -21 5 -7 15 -5 31 6 21 13 24 13 24 1 0 -16 -37 -46 -56 -46 -6 0 -16 12
-23 27 -11 23 -10 29 5 40 17 13 64 18 64 8z m-4711 -74 c-9 -25 -17 -31 -40
-31 -26 0 -28 2 -19 25 5 14 17 36 26 50 16 25 17 25 30 6 11 -15 11 -26 3
-50z m231 50 c0 -8 -52 -31 -71 -31 -20 0 -7 19 19 28 35 13 52 14 52 3z
m4169 -2 c32 -11 42 -29 16 -29 -20 0 -65 22 -65 32 0 11 11 10 49 -3z m232
-37 l18 -42 -28 0 c-36 0 -62 49 -41 75 19 23 31 14 51 -33z m-4351 9 c0 -10
-54 -31 -81 -31 -28 0 -23 17 9 28 35 13 72 15 72 3z m4089 -2 c30 -11 37 -19
25 -31 -8 -9 -94 22 -94 33 0 12 30 11 69 -2z m-4336 -29 c-3 -11 -9 -20 -14
-20 -10 0 -12 24 -2 33 13 13 21 7 16 -13z m4535 -11 c2 -23 2 -23 -13 -5 -18
24 -20 39 -2 34 6 -3 13 -15 15 -29z m-4498 -10 c0 -5 -4 -9 -10 -9 -5 0 -10
7 -10 16 0 8 5 12 10 9 6 -3 10 -10 10 -16z m4456 -6 c-10 -10 -19 5 -10 18 6
11 8 11 12 0 2 -7 1 -15 -2 -18z m-4286 7 c0 -5 -7 -10 -16 -10 -8 0 -12 5 -9
10 3 6 10 10 16 10 5 0 9 -4 9 -10z m4120 0 c0 -5 -4 -10 -10 -10 -5 0 -10 5
-10 10 0 6 5 10 10 10 6 0 10 -4 10 -10z m-4215 -46 c8 -4 15 -10 15 -14 0
-15 -27 -18 -79 -7 -38 7 -74 7 -124 -1 -80 -12 -97 -23 -79 -52 16 -26 15
-30 -3 -30 -23 0 -58 37 -52 53 16 43 247 79 322 51z m4545 -18 c73 -24 86
-49 38 -75 -32 -19 -44 -11 -26 18 17 28 4 39 -67 52 -56 10 -141 8 -175 -5
-17 -7 -48 10 -37 20 28 28 169 23 267 -10z m-4105 -67 c47 -40 84 -73 83 -74
-6 -6 -224 18 -231 25 -11 10 44 120 59 120 2 0 42 -32 89 -71z m3540 9 c16
-31 28 -58 25 -61 -5 -4 -233 -27 -237 -23 -5 4 163 144 172 142 5 -1 23 -28
40 -58z m-4125 27 c21 -25 1 -31 -22 -7 -18 18 -19 22 -6 22 8 0 21 -7 28 -15z
m47 0 c9 -25 -2 -27 -22 -5 -17 18 -17 20 -1 20 9 0 19 -7 23 -15z m4473 5 c0
-5 -4 -10 -10 -10 -5 0 -10 5 -10 10 0 6 5 10 10 10 6 0 10 -4 10 -10z m35
-10 c-20 -23 -29 -21 -19 4 3 9 13 16 22 16 13 0 12 -3 -3 -20z m50 0 c-10
-11 -22 -20 -27 -20 -5 0 -4 9 2 20 6 11 18 20 27 20 14 0 14 -2 -2 -20z
m-4660 0 c-3 -5 -12 -7 -20 -3 -21 7 -19 13 6 13 11 0 18 -4 14 -10z m4715 0
c-19 -13 -30 -13 -30 0 0 6 10 10 23 10 18 0 19 -2 7 -10z m-4700 -30 c0 -5
-11 -10 -25 -10 -14 0 -25 5 -25 10 0 6 11 10 25 10 14 0 25 -4 25 -10z m4710
0 c0 -5 -11 -10 -25 -10 -14 0 -25 5 -25 10 0 6 11 10 25 10 14 0 25 -4 25
-10z m-4619 -235 c130 -68 220 -332 162 -476 l-16 -42 -18 34 c-11 21 -18 56
-19 94 -1 146 -40 266 -104 323 -114 100 -244 -43 -262 -288 -7 -103 -13 -140
-24 -140 -26 0 -45 151 -30 245 32 207 174 320 311 250z m4647 -2 c47 -25 94
-86 122 -160 28 -71 33 -224 11 -290 -25 -75 -34 -55 -46 97 -14 188 -80 306
-178 317 -42 5 -48 2 -87 -33 -58 -55 -90 -147 -97 -279 -4 -65 -12 -112 -23
-134 l-17 -34 -18 47 c-34 89 -4 271 62 371 75 114 171 149 271 98z m-4225
-80 c62 -31 114 -58 116 -60 10 -8 -12 -14 -105 -28 -54 -8 -116 -17 -138 -21
l-38 -7 7 54 c8 69 24 119 37 119 5 0 60 -25 121 -57z m3775 25 c6 -18 13 -57
17 -87 l6 -54 -28 6 c-15 3 -79 13 -140 22 -62 10 -113 20 -113 24 1 8 221
120 237 121 6 0 16 -15 21 -32z m-4212 -13 c31 -20 70 -91 88 -162 20 -75 22
-199 4 -206 -28 -9 -38 6 -38 57 -1 59 -21 160 -39 194 -7 13 -20 22 -29 20
-15 -3 -18 -22 -23 -133 -4 -72 -7 -131 -8 -133 0 -2 -11 -2 -23 0 -22 3 -23
6 -23 128 -1 117 -2 125 -20 125 -32 0 -61 -71 -69 -166 -4 -46 -9 -85 -11
-87 -2 -3 -12 -2 -21 2 -15 6 -16 17 -11 84 11 140 61 252 128 285 35 17 58
15 95 -8z m4626 -7 c15 -10 41 -47 57 -81 47 -100 68 -258 36 -271 -20 -7 -23
1 -34 101 -10 90 -35 148 -66 148 -18 0 -19 -9 -20 -125 0 -119 -1 -125 -21
-128 -27 -4 -34 27 -34 159 0 55 -2 99 -4 99 -2 0 -11 3 -19 6 -10 3 -20 -3
-28 -18 -18 -33 -38 -135 -39 -194 0 -43 -3 -53 -19 -57 -11 -3 -22 -2 -25 1
-3 3 -6 37 -6 76 0 134 56 273 122 300 35 15 61 11 100 -16z m-4616 -140 c12
-22 19 -66 22 -135 l5 -103 36 0 c34 0 39 -4 58 -42 l20 -43 -20 -47 c-17 -42
-24 -48 -48 -48 l-29 0 0 -106 c0 -103 -14 -184 -32 -184 -4 0 -11 -1 -15 -2
-5 -2 -10 62 -13 142 l-5 145 -39 -2 c-22 -2 -41 -5 -44 -8 -3 -2 -4 -65 -3
-140 2 -142 -4 -162 -36 -102 -12 23 -18 63 -21 140 l-4 107 -33 0 c-31 0 -35
3 -50 51 -15 44 -16 58 -5 93 13 45 24 56 56 56 19 0 22 7 26 83 6 82 31 167
50 167 7 0 9 -43 6 -124 l-5 -125 24 -6 c47 -11 63 2 63 53 0 59 12 212 16
212 2 0 11 -15 20 -32z m4523 -144 c1 -89 7 -98 66 -86 l27 5 -7 123 c-4 74
-3 124 2 124 21 0 45 -77 50 -161 l6 -88 30 -3 c26 -3 33 -9 45 -47 13 -40 13
-50 -2 -98 -16 -50 -19 -53 -50 -53 l-34 0 -4 -107 c-4 -106 -23 -173 -48
-173 -6 0 -10 56 -10 140 l0 139 -34 7 c-19 3 -39 3 -45 -1 -7 -4 -11 -58 -11
-145 0 -80 -4 -141 -10 -145 -5 -3 -19 9 -30 27 -17 28 -20 50 -20 151 l0 117
-28 0 c-23 0 -31 7 -45 38 -21 48 -21 63 0 106 13 29 22 35 52 38 l36 3 6 95
c6 98 13 135 33 159 14 18 24 -47 25 -165z m-4352 -236 c28 -52 25 -232 -5
-318 -35 -102 -78 -160 -141 -192 -30 -16 -68 -28 -85 -28 -43 1 -105 31 -143
71 -93 99 -139 317 -93 444 l18 50 12 -30 c7 -16 12 -54 11 -84 -1 -66 14
-166 35 -229 59 -173 205 -216 288 -84 43 68 60 146 59 262 -1 86 11 170 24
170 1 0 10 -15 20 -32z m4189 -123 c1 -178 40 -288 117 -335 126 -77 251 77
263 325 4 96 13 155 23 155 4 0 16 -27 26 -59 22 -74 15 -205 -16 -287 -62
-166 -189 -250 -295 -196 -118 60 -179 189 -179 377 0 88 4 117 19 144 17 32
19 33 30 15 6 -11 11 -69 12 -139z m-4250 49 c11 -43 -3 -196 -22 -244 -42
-107 -107 -161 -170 -140 -77 26 -141 152 -151 300 -5 64 -3 84 8 91 32 20 36
9 41 -95 3 -78 9 -111 24 -136 20 -35 49 -58 59 -48 4 4 6 70 6 147 l-2 141
31 0 c30 0 30 -1 30 -53 0 -30 3 -95 6 -145 7 -88 8 -92 30 -92 41 0 58 49 62
183 4 106 6 117 23 117 12 0 21 -10 25 -26z m4316 -91 c4 -134 21 -183 62
-183 24 0 24 1 31 145 l7 145 29 0 29 0 0 -145 c0 -119 3 -145 14 -145 42 0
76 99 76 221 0 67 1 70 23 67 19 -3 22 -10 25 -55 6 -113 -42 -258 -105 -313
-36 -32 -83 -39 -125 -19 -58 27 -106 135 -115 255 -7 94 2 144 26 144 17 0
19 -11 23 -117z m-3872 -172 c0 -5 -11 -16 -24 -24 -13 -9 -53 -41 -90 -72
-36 -31 -70 -53 -76 -50 -9 5 -50 126 -50 146 0 5 54 9 120 9 66 0 120 -4 120
-9z m3616 -18 c-36 -149 -33 -148 -141 -63 -49 39 -91 75 -93 81 -2 5 46 9
118 9 l122 0 -6 -27z m-228 -307 c46 -8 85 -16 87 -17 4 -5 -68 -129 -75 -129
-3 0 -22 21 -43 48 -20 26 -48 60 -62 76 -29 34 -32 50 -7 42 9 -3 54 -12 100
-20z m-3325 -47 c-89 -113 -82 -106 -93 -89 -5 8 -23 39 -40 67 l-30 53 22 5
c38 9 131 23 161 24 l28 1 -48 -61z m-753 -45 c0 -10 -33 -33 -47 -34 -21 0
-15 16 10 28 26 13 37 14 37 6z m4798 -10 c12 -8 20 -20 17 -25 -4 -5 -17 -1
-30 8 -41 30 -29 46 13 17z m-4870 -29 c26 -69 124 -127 217 -128 68 0 116 19
141 58 19 29 32 32 40 10 9 -22 -36 -82 -71 -97 -48 -20 -201 -12 -250 13 -55
29 -73 46 -106 104 -35 61 -36 75 -6 75 17 0 26 -9 35 -35z m137 27 c-59 -49
-105 -73 -105 -54 0 14 73 62 94 62 11 0 16 -3 11 -8z m59 0 c8 -13 -115 -95
-126 -84 -5 5 9 21 34 38 24 16 49 35 56 42 16 14 29 16 36 4z m4587 -34 c35
-24 56 -45 51 -50 -11 -11 -134 71 -126 84 8 13 12 11 75 -34z m55 15 c58 -48
38 -61 -24 -16 -56 41 -58 43 -33 43 12 0 38 -12 57 -27z m124 18 c0 -23 -24
-68 -55 -107 -53 -64 -102 -83 -217 -86 -87 -2 -100 1 -132 23 -43 29 -67 76
-45 90 21 13 25 11 37 -16 29 -63 157 -79 250 -31 50 26 112 93 112 123 0 7
11 13 25 13 14 0 25 -4 25 -9z m-4710 -18 c-1 -14 -117 -93 -137 -93 -26 0
-10 18 52 59 58 38 85 49 85 34z m4487 -35 c62 -41 71 -52 54 -62 -9 -6 -140
84 -141 97 0 16 26 5 87 -35z m-4427 18 c0 -8 -137 -96 -149 -96 -23 0 -8 16
52 57 53 36 97 54 97 39z m4376 -38 c61 -41 76 -58 53 -58 -12 0 -149 87 -149
95 0 16 41 0 96 -37z m-4336 18 c0 -9 -132 -87 -141 -84 -13 4 109 88 129 88
6 0 12 -2 12 -4z m4288 -38 c36 -23 59 -44 53 -46 -10 -3 -141 75 -141 84 0
13 31 -1 88 -38z m-4318 -13 c-7 -8 -17 -15 -23 -15 -6 0 -2 7 9 15 25 19 30
19 14 0z m4286 -12 c-6 -6 -36 9 -36 18 0 5 9 4 20 -3 10 -7 18 -14 16 -15z
m-4053 -97 c6 -15 -1 -26 -15 -26 -4 0 -8 9 -8 20 0 23 15 27 23 6z m3814 -23
c-3 -3 -11 -2 -17 2 -8 5 -7 11 2 22 12 15 13 14 16 -1 2 -10 1 -20 -1 -23z
m-3449 -9 c73 -30 122 -95 122 -161 0 -43 -5 -52 -40 -76 -24 -17 -81 -23 -93
-11 -3 3 5 23 19 44 19 28 24 48 22 76 -3 39 -4 39 -48 42 -36 2 -54 -3 -84
-23 -21 -14 -40 -24 -43 -22 -2 3 -6 21 -10 41 -13 82 65 128 155 90z m3199
-19 c23 -27 30 -78 14 -103 -6 -11 -16 -8 -47 13 -30 20 -48 25 -84 23 -45 -3
-45 -3 -48 -43 -2 -30 3 -48 22 -74 14 -19 23 -38 20 -42 -3 -5 -22 -9 -42 -9
-105 0 -126 126 -35 212 66 63 157 73 200 23z m-3523 -74 c3 -4 -3 -16 -14
-26 -26 -23 -52 -6 -30 20 14 17 36 20 44 6z m3756 -6 c22 -26 -4 -43 -30 -20
-20 18 -18 35 4 35 8 0 19 -7 26 -15z m-3418 -19 c15 -34 -2 -59 -151 -216
-121 -128 -123 -130 -167 -130 l-44 0 6 43 c9 55 4 48 119 171 139 149 211
188 237 132z m3129 2 c54 -30 259 -252 259 -281 0 -12 3 -32 6 -44 6 -21 3
-23 -37 -23 -43 0 -46 3 -167 127 -134 137 -170 190 -152 223 14 26 43 25 91
-2z m-3611 -133 c0 -16 -45 -39 -59 -31 -16 10 -13 24 10 47 16 16 23 18 35 8
8 -6 14 -17 14 -24z m4067 -1 c3 -8 0 -21 -7 -29 -10 -13 -15 -12 -36 3 -26
19 -30 32 -12 50 13 13 46 -1 55 -24z m-3482 -33 c50 -45 262 -156 380 -199
39 -15 153 -43 185 -47 17 -1 31 -14 46 -44 l22 -41 -28 0 c-48 0 -174 27
-256 56 -149 51 -349 163 -458 257 l-40 34 65 1 c48 0 69 -4 84 -17z m2940
-17 c-114 -100 -301 -204 -464 -259 -96 -32 -256 -64 -267 -53 -6 7 24 70 39
79 5 4 31 10 57 13 70 9 208 59 318 114 101 50 206 114 217 132 3 5 36 10 73
10 l67 -1 -40 -35z m-2913 -206 c-7 -7 -14 2 -22 31 -15 57 0 76 18 22 10 -30
11 -46 4 -53z m2798 32 c-8 -28 -15 -39 -21 -33 -7 7 -6 24 2 52 17 56 34 38
19 -19z m-2920 41 c0 -12 -29 -35 -36 -28 -11 10 5 37 21 37 8 0 15 -4 15 -9z
m3057 -6 c3 -9 3 -19 -1 -22 -7 -7 -36 16 -36 28 0 15 30 10 37 -6z m-2902 -5
c3 -5 3 -15 -1 -21 -6 -11 -23 6 -24 24 0 10 18 9 25 -3z m2735 1 c0 -12 -20
-25 -27 -18 -7 7 6 27 18 27 5 0 9 -4 9 -9z m-2795 -109 c-6 -13 -11 -7 -22
26 -8 23 -12 50 -8 60 6 13 11 7 22 -26 8 -23 12 -50 8 -60z m109 82 c9 -3 16
-10 16 -14 0 -5 -29 -60 -65 -123 l-65 -115 -42 -4 c-24 -3 -44 -4 -46 -2 -6
4 171 264 179 264 4 0 14 -3 23 -6z m2729 -124 c47 -71 83 -131 79 -133 -4 -2
-24 -2 -44 0 -36 5 -40 10 -103 119 -36 63 -65 118 -65 123 0 10 17 19 36 20
6 1 50 -57 97 -129z m27 116 c0 -23 -22 -76 -31 -76 -12 0 -11 20 2 59 11 31
29 42 29 17z m-2680 -31 l29 -15 -57 -126 c-49 -108 -63 -130 -94 -150 -21
-13 -42 -24 -48 -24 -5 0 -10 20 -10 44 0 36 11 64 56 143 94 163 81 150 124
128z m2572 -106 c59 -100 67 -120 66 -161 -1 -55 -9 -58 -57 -25 -26 17 -46
50 -87 140 -30 65 -54 124 -54 131 0 14 38 36 55 32 5 -1 40 -54 77 -117z
m138 98 c0 -7 -5 -29 -11 -51 -7 -27 -14 -35 -21 -28 -13 13 9 105 23 96 5 -3
9 -11 9 -17z m-2930 -27 c9 -29 10 -44 3 -51 -14 -14 -19 -4 -28 49 -9 54 7
55 25 2z m305 -2 c14 -6 25 -14 25 -18 0 -8 -74 -192 -110 -275 l-22 -50 -25
51 -26 51 43 94 c24 52 49 109 56 127 16 35 21 37 59 20z m2392 -116 l56 -123
-23 -50 c-13 -27 -26 -49 -29 -49 -3 0 -17 28 -30 63 -13 34 -41 103 -62 154
-22 51 -39 96 -39 102 0 9 48 31 63 28 4 -1 33 -57 64 -125z m-2729 79 c14
-47 15 -61 2 -61 -9 0 -30 61 -30 88 0 26 17 10 28 -27z m2992 27 c0 -27 -21
-88 -30 -88 -12 0 -12 2 1 56 10 40 29 61 29 32z m-2570 -28 c0 -5 -4 -10 -9
-10 -5 0 -18 -3 -28 -6 -16 -5 -16 -4 1 10 23 18 36 20 36 6z m2156 -6 c17
-14 17 -15 1 -10 -10 3 -23 6 -28 6 -5 0 -9 5 -9 10 0 14 13 12 36 -6z m-2608
-33 c18 -57 13 -71 -9 -26 -20 43 -24 65 -11 65 5 0 14 -17 20 -39z m3052 27
c-1 -20 -38 -95 -39 -78 -1 26 20 90 29 90 6 0 10 -6 10 -12z m-3207 -5 c9 -9
-12 -33 -29 -33 -17 0 -18 27 -1 33 18 8 23 8 30 0z m3375 -16 c2 -10 -3 -17
-11 -17 -18 0 -39 24 -30 34 12 12 38 2 41 -17z m-2748 8 c0 -5 -75 -45 -85
-45 -18 0 0 23 28 35 33 15 57 19 57 10z m2135 -9 c19 -8 35 -20 35 -27 0 -7
-7 -8 -17 -4 -10 4 -30 12 -45 17 -16 5 -28 14 -28 19 0 13 15 11 55 -5z
m-2630 -43 c23 -54 8 -80 -15 -28 -21 46 -24 65 -10 65 5 0 17 -17 25 -37z
m686 -3 c20 -35 49 -54 49 -32 0 4 9 13 20 20 18 11 22 9 40 -20 29 -48 26
-59 -12 -52 -43 8 -118 41 -140 61 -25 22 -24 63 1 63 13 0 28 -15 42 -40z
m1759 22 c0 -43 -69 -89 -157 -105 -39 -8 -42 3 -13 51 23 38 24 38 52 12 25
-23 40 -15 64 32 16 32 54 39 54 10z m659 6 c0 -7 -9 -31 -19 -53 -23 -52 -38
-26 -15 28 15 36 36 51 34 25z m-2629 -18 c0 -5 -17 -17 -37 -26 -21 -10 -41
-19 -45 -21 -5 -2 -8 1 -8 7 0 6 19 20 43 30 50 23 47 22 47 10z m2204 -31
c19 -18 -1 -17 -42 1 -52 24 -57 45 -4 24 20 -9 41 -20 46 -25z m-2714 0 c0
-6 -4 -7 -10 -4 -5 3 -10 11 -10 16 0 6 5 7 10 4 6 -3 10 -11 10 -16z m3160 6
c0 -8 -4 -15 -10 -15 -5 0 -10 7 -10 15 0 8 5 15 10 15 6 0 10 -7 10 -15z
m-2660 -20 c0 -5 -95 -55 -105 -55 -15 0 9 22 43 40 36 19 62 25 62 15z m2200
-15 c22 -11 40 -25 40 -30 0 -6 -22 1 -50 15 -27 14 -50 28 -50 30 0 10 22 4
60 -15z m-2690 -20 c0 -24 -31 -90 -42 -90 -4 0 -3 12 3 27 10 28 6 53 -9 53
-5 0 -21 -12 -36 -26 -14 -15 -26 -21 -26 -15 0 7 13 26 29 42 35 35 81 40 81
9z m3205 -10 c34 -36 26 -53 -10 -20 -19 18 -28 21 -37 12 -9 -9 -9 -18 0 -37
14 -31 15 -35 4 -35 -14 0 -45 77 -39 94 10 26 51 18 82 -14z m-2742 -11 c-18
-18 -93 -49 -93 -39 0 5 21 21 48 34 47 24 66 26 45 5z m127 1 c57 -40 60
-138 7 -175 -26 -18 -101 -21 -95 -3 2 6 13 12 24 13 65 6 87 45 30 55 -50 9
-44 30 8 30 56 0 61 18 16 60 -46 43 -39 55 10 20z m1980 14 c0 -3 -13 -19
-30 -34 -31 -29 -40 -59 -17 -61 6 -1 27 0 46 1 42 2 39 -22 -4 -30 -53 -9
-39 -50 18 -53 49 -3 50 -27 1 -27 -46 0 -70 14 -90 52 -21 41 -11 89 27 128
28 28 49 38 49 24z m139 -22 c51 -25 52 -46 1 -23 -48 21 -72 41 -49 41 7 -1
29 -9 48 -18z m-2769 -31 c-6 -12 -16 -19 -21 -15 -6 4 -4 13 7 25 21 24 29
18 14 -10z m3260 -15 c-12 -12 -30 8 -30 33 0 11 5 10 20 -4 15 -13 17 -22 10
-29z m-2750 11 c0 -7 -22 -23 -50 -34 -65 -28 -67 -6 -2 24 26 11 48 22 50 22
1 1 2 -5 2 -12z m2320 -44 c0 -8 -17 -4 -50 10 -27 12 -50 27 -50 34 0 8 17 4
50 -10 27 -12 50 -27 50 -34z m-2340 -3 c0 -13 -96 -61 -104 -52 -4 3 17 19
46 34 62 32 58 31 58 18z m2360 -46 c0 -8 -16 -6 -50 9 -27 11 -50 26 -50 33
0 8 16 6 50 -9 28 -11 50 -26 50 -33z m-1844 -1 c25 -34 16 -38 -76 -35 -92 3
-104 -2 -72 -31 45 -41 148 -60 194 -36 14 8 23 8 31 0 7 -7 0 -15 -26 -26
-70 -29 -155 -12 -229 47 l-40 31 -34 -18 c-40 -21 -109 -93 -126 -130 -15
-33 -52 -35 -42 -2 19 62 86 137 153 171 85 44 242 61 267 29z m1428 -3 c60
-19 143 -71 174 -109 17 -22 38 -61 46 -88 6 -19 4 -23 -13 -23 -12 0 -21 6
-21 13 0 20 -94 121 -133 141 l-35 19 -40 -31 c-74 -59 -159 -76 -229 -47 -26
11 -33 19 -26 26 8 8 17 8 31 0 27 -14 90 -14 133 0 35 12 79 46 79 61 0 5
-39 9 -87 8 -49 -1 -92 -1 -97 -1 -5 1 1 12 14 26 20 21 33 25 81 25 31 0 86
-9 123 -20z m-1964 -4 c0 -15 -38 -29 -53 -19 -7 4 21 23 51 32 1 1 2 -5 2
-13z m2350 -19 c0 -5 -7 -6 -16 -3 -9 3 -20 6 -25 6 -5 0 -9 7 -9 15 0 12 4
13 25 3 14 -6 25 -15 25 -21z m-2392 -59 c2 -21 -2 -46 -8 -55 -10 -16 -10
-16 -5 3 3 11 -2 29 -10 40 -15 18 -16 18 -40 -11 -18 -22 -25 -25 -25 -13 0
24 50 79 69 76 11 -2 17 -16 19 -40z m2446 11 c25 -29 33 -49 20 -49 -3 0 -14
10 -23 22 -23 27 -41 16 -41 -25 0 -24 -3 -28 -10 -17 -11 17 -13 83 -3 93 13
14 32 6 57 -24z m-2474 -43 c0 -16 -18 -31 -27 -22 -8 8 5 36 17 36 5 0 10 -6
10 -14z m2468 -9 c2 -10 -3 -17 -12 -17 -10 0 -16 9 -16 21 0 24 23 21 28 -4z"/>
<path d="M4096 6544 c-59 -124 -146 -229 -321 -384 -22 -20 -89 -73 -150 -118
-60 -45 -121 -90 -135 -100 -102 -77 -407 -251 -588 -336 l-82 -38 -98 36
c-114 42 -128 43 -135 15 -5 -17 38 -223 72 -345 8 -30 5 -56 -19 -152 -28
-107 -30 -129 -30 -297 0 -181 0 -182 -24 -193 -26 -12 -25 -4 -51 -312 -8
-96 -17 -194 -20 -217 -6 -41 -5 -44 50 -95 64 -60 81 -86 96 -157 13 -61 1
-109 -41 -174 l-31 -46 27 -68 c15 -37 39 -95 54 -129 28 -60 28 -60 102 -88
185 -67 341 -229 392 -406 21 -71 41 -64 54 19 18 108 17 116 -34 166 -92 92
-138 249 -99 336 17 37 17 41 1 77 -50 111 -173 169 -250 118 -36 -23 -21 -40
21 -24 91 34 128 -88 39 -130 -70 -34 -156 59 -156 168 0 58 36 130 74 148 71
35 173 -21 250 -137 95 -142 200 -201 371 -209 80 -3 117 0 185 18 101 25 242
92 325 155 33 25 67 45 76 45 25 0 49 -33 49 -68 l0 -32 -65 0 c-79 0 -142
-28 -204 -92 -71 -72 -124 -213 -107 -283 5 -20 12 -25 39 -25 44 0 328 37
350 45 12 5 17 18 17 46 0 32 -7 46 -41 80 -38 38 -44 41 -85 36 -33 -3 -49
-12 -69 -36 -15 -17 -31 -29 -36 -25 -19 11 -8 37 31 76 39 39 42 40 95 36 62
-5 87 -23 117 -82 21 -42 28 -40 56 14 9 19 29 42 43 53 53 38 144 19 179 -38
37 -60 18 -75 -32 -25 -34 34 -72 39 -119 15 -54 -29 -89 -116 -56 -143 11 -9
115 -25 310 -47 73 -8 87 2 87 64 0 88 -62 210 -139 270 -59 47 -108 64 -178
63 l-63 -1 0 32 c0 20 8 42 20 55 24 25 33 23 108 -35 25 -19 85 -54 133 -79
209 -104 402 -119 564 -43 64 30 141 103 177 166 50 88 140 153 214 153 28 0
82 -42 99 -77 44 -91 -6 -241 -87 -258 -79 -18 -139 68 -87 124 19 20 28 22
68 16 43 -6 45 -5 30 10 -22 22 -88 30 -133 15 -47 -15 -113 -84 -128 -132 -9
-32 -9 -45 5 -74 21 -44 21 -95 1 -165 -20 -67 -46 -110 -102 -171 l-44 -48
13 -92 c8 -50 19 -93 26 -95 6 -2 19 19 28 49 64 195 204 344 390 413 39 15
75 32 81 38 10 11 43 95 81 207 l15 45 -37 60 c-34 56 -36 64 -32 122 6 82 41
148 100 193 42 31 47 39 47 75 0 46 -47 536 -52 540 -2 1 -13 8 -25 14 -23 11
-23 15 -23 194 0 153 -3 193 -20 252 -44 150 -44 141 -1 308 22 83 44 165 50
180 28 73 13 74 -160 10 l-66 -25 -84 38 c-275 125 -597 321 -834 510 -86 68
-209 184 -248 233 -22 27 -127 234 -127 249 0 5 -6 12 -14 15 -10 4 -25 -17
-50 -69z m114 -375 c180 -39 326 -158 418 -344 18 -34 39 -94 48 -131 22 -93
22 -252 1 -326 -15 -51 -21 -58 -43 -58 -13 0 -43 9 -65 21 -51 25 -81 22 -90
-11 -4 -14 -7 68 -8 182 -1 114 -4 209 -8 211 -5 3 -8 35 -8 71 l0 66 -33 0
c-23 0 -32 -4 -29 -12 2 -7 0 -21 -4 -30 -6 -10 -5 -19 1 -23 7 -4 7 -12 0
-24 -5 -10 -7 -21 -3 -24 3 -3 5 -95 4 -204 l-1 -198 -26 -22 c-29 -26 -108
-32 -137 -10 -15 10 -7 11 45 9 l63 -4 -27 28 c-17 17 -43 30 -70 35 -35 5
-26 7 44 8 53 1 90 5 94 12 5 9 -63 11 -265 7 l-271 -5 -2 151 c-1 83 -1 175
0 204 0 28 -4 52 -9 52 -6 0 -7 9 -4 20 6 17 2 20 -28 20 l-35 0 2 -272 c2
-292 4 -308 54 -362 81 -86 174 -58 227 67 23 54 19 61 -20 31 -30 -23 -42
-26 -86 -22 -56 6 -85 28 -91 68 l-3 25 95 2 c88 1 92 1 53 -10 -40 -12 -83
-42 -83 -59 0 -4 20 -8 44 -8 49 0 96 30 96 61 0 17 7 19 65 19 45 0 65 -4 66
-12 2 -54 10 -82 30 -119 31 -54 69 -83 111 -81 81 2 253 0 256 -3 2 -2 1 -8
-2 -13 -4 -7 -18 -6 -40 0 -30 9 -40 7 -93 -22 l-60 -33 -58 27 c-70 32 -71
32 -129 1 -59 -31 -86 -31 -150 0 -46 23 -56 24 -86 13 -19 -6 -43 -20 -54
-30 -27 -24 -47 -23 -106 8 -39 20 -58 25 -85 20 -22 -4 -35 -3 -35 4 0 5 16
11 35 11 19 1 40 3 45 4 6 1 24 3 41 4 l32 1 -27 25 c-28 26 -46 32 -46 15 0
-17 -58 -11 -94 11 -20 12 -36 25 -36 30 0 5 29 9 65 9 70 0 73 3 59 58 -8 28
-47 29 -92 2 -51 -31 -58 -27 -78 53 -25 97 -24 259 1 347 86 306 370 514 625
459z m1378 -636 c-13 -75 -61 -269 -68 -277 -5 -5 -57 -21 -117 -36 -414 -105
-891 -407 -1215 -768 -25 -29 -49 -52 -52 -52 -4 0 -62 55 -129 123 -229 231
-468 401 -762 542 -152 73 -240 106 -385 144 l-105 28 -39 152 c-21 83 -36
154 -32 158 22 23 228 -70 456 -207 167 -100 499 -327 540 -370 3 -3 34 -27
70 -54 88 -67 193 -161 281 -251 54 -55 80 -75 99 -75 18 0 58 33 150 123 69
67 161 151 205 186 44 34 89 70 100 80 104 86 459 329 605 413 167 97 193 110
285 139 115 36 118 36 113 2z m-948 -273 c0 -5 -8 -10 -17 -10 -10 0 -34 -10
-53 -21 -26 -16 -44 -20 -77 -15 -23 3 -45 1 -48 -4 -3 -6 -16 -15 -27 -21
-17 -9 -14 -2 12 35 l33 46 89 0 c52 0 88 -4 88 -10z m-160 -211 c0 -7 -21 -8
-64 -4 -56 6 -70 4 -104 -15 -42 -24 -68 -24 -150 1 -38 12 -49 11 -90 -5 -75
-29 -95 -30 -147 -6 -35 16 -57 20 -86 15 -21 -4 -44 -3 -51 2 -14 9 189 18
495 21 136 1 197 -1 197 -9z m1105 -229 l0 -165 -157 3 c-190 4 -183 9 -176
-137 8 -138 39 -199 122 -237 45 -21 56 -22 89 -12 56 17 49 38 -11 31 -60 -7
-82 11 -82 65 1 112 124 171 217 103 49 -36 73 -91 73 -170 0 -50 -4 -65 -27
-92 -34 -40 -79 -59 -143 -59 -93 0 -159 44 -228 150 -20 30 -41 60 -47 66 -6
7 -22 25 -36 41 -60 71 -192 150 -296 177 -123 32 -294 12 -376 -43 -136 -90
-270 -293 -343 -520 -14 -45 -30 -79 -34 -74 -4 4 -22 51 -39 103 -76 220
-215 419 -346 495 -156 91 -402 62 -573 -66 -68 -51 -115 -103 -170 -187 -24
-36 -55 -77 -70 -90 -110 -98 -288 -75 -320 41 -11 41 -3 123 18 168 18 39 86
79 136 79 69 0 124 -60 124 -134 0 -52 -23 -69 -82 -62 -50 7 -64 -5 -29 -24
63 -33 155 11 199 94 21 42 27 68 30 147 6 147 13 142 -176 138 l-157 -4 -3
168 -2 167 27 0 c96 -1 381 -68 518 -122 163 -65 340 -151 435 -212 181 -117
296 -207 378 -298 50 -54 92 -124 92 -153 0 -29 24 -10 33 26 21 82 165 227
357 360 281 195 598 330 905 388 93 17 108 19 140 17 l30 -1 0 -165z m-1269
131 c-18 -29 -274 -39 -356 -14 -24 7 -24 8 10 14 55 10 352 10 346 0z m-679
-581 c129 -63 264 -225 334 -402 21 -54 15 -58 -39 -24 -166 105 -418 177
-613 176 -58 -1 -172 -17 -241 -35 -41 -11 -36 16 16 89 79 111 191 190 312
221 80 20 155 12 231 -25z m1281 11 c100 -40 195 -118 258 -213 25 -37 43 -72
40 -76 -3 -5 -29 -3 -58 6 -29 8 -115 17 -190 19 -115 4 -152 2 -239 -17 -149
-32 -263 -76 -382 -148 -31 -19 -60 -33 -63 -29 -9 9 37 107 94 200 80 131
190 234 290 273 52 20 182 12 250 -15z m-1273 -408 c139 -31 345 -120 345
-149 0 -21 -87 -80 -160 -110 -104 -42 -158 -54 -275 -61 -159 -8 -257 21
-380 112 -52 39 -125 121 -125 141 0 12 61 41 134 64 99 32 326 33 461 3z
m1435 3 c85 -24 130 -47 130 -67 0 -27 -94 -123 -163 -167 -113 -71 -166 -86
-302 -85 -140 1 -235 22 -341 77 -86 44 -129 78 -122 97 13 34 247 129 377
154 96 18 341 13 421 -9z"/>
<path d="M4054 6136 c-61 -27 -64 -38 -64 -271 0 -115 3 -219 6 -230 4 -17 26
-26 115 -49 61 -15 113 -25 116 -23 6 7 4 338 -3 348 -3 5 -14 9 -24 9 -29 0
-66 40 -80 85 -17 57 -1 92 50 113 28 10 37 18 28 24 -20 12 -110 9 -144 -6z"/>
<path d="M4311 5532 c-1 -9 -8 -11 -21 -7 -23 7 -25 2 -8 -25 10 -16 10 -24 0
-41 -16 -25 -8 -37 13 -19 12 10 18 10 30 0 21 -18 29 -6 13 19 -10 17 -10 25
0 41 16 26 15 33 -2 27 -8 -3 -17 -1 -20 6 -3 9 -5 8 -5 -1z"/>
<path d="M3910 5521 c0 -7 -6 -11 -15 -7 -18 7 -20 -15 -3 -32 9 -9 9 -15 0
-24 -7 -7 -12 -19 -12 -27 0 -12 3 -11 18 2 17 15 19 15 35 0 14 -15 17 -15
17 -2 0 8 -5 20 -12 27 -9 9 -9 15 0 24 15 15 16 42 1 32 -6 -3 -15 0 -20 7
-7 12 -9 12 -9 0z"/>
<path d="M4005 5519 c-3 -4 -12 -6 -20 -2 -18 6 -19 -1 -3 -27 10 -16 10 -24
1 -40 -7 -11 -9 -21 -3 -25 5 -3 13 3 19 12 8 14 12 16 22 6 20 -20 31 -15 17
7 -10 16 -10 24 0 40 6 11 12 22 12 24 0 8 -40 14 -45 5z"/>
<path d="M4070 5527 c0 -3 5 -17 11 -30 8 -18 8 -30 0 -46 -13 -23 -2 -28 18
-8 11 10 14 10 18 0 3 -7 11 -13 19 -13 12 0 12 4 2 20 -10 16 -10 24 0 40 6
11 12 22 12 24 0 9 -40 13 -46 5 -3 -6 -11 -5 -20 2 -8 6 -14 9 -14 6z"/>
<path d="M4170 5521 c0 -3 7 -14 15 -25 12 -16 12 -22 -2 -42 -14 -21 -14 -24
0 -24 8 0 17 6 20 13 3 9 8 9 21 -2 22 -18 31 -8 14 18 -10 16 -10 23 0 33 22
22 13 33 -28 34 -22 0 -40 -2 -40 -5z"/>
<path d="M4076 5294 c-27 -27 -18 -34 44 -34 64 0 74 9 38 34 -29 20 -62 20
-82 0z"/>
<path d="M4044 5206 c-55 -48 -52 -49 101 -47 l100 2 -42 39 c-57 54 -102 55
-159 6z"/>
<path d="M6316 6535 c-26 -30 -45 -55 -42 -55 3 0 22 11 42 25 48 33 76 32
116 -4 l33 -30 -35 -37 c-19 -21 -62 -68 -96 -104 -33 -36 -80 -86 -104 -112
-43 -48 -74 -60 -98 -36 -6 6 -15 9 -18 5 -4 -3 9 -19 27 -34 18 -15 51 -44
71 -64 21 -20 38 -31 38 -23 0 7 -4 16 -10 19 -17 11 -11 36 16 69 15 17 79
87 143 154 l115 124 33 -36 c40 -43 41 -62 8 -111 -15 -20 -23 -40 -20 -43 5
-5 95 85 95 95 0 4 -137 135 -221 211 l-46 42 -47 -55z"/>
<path d="M1877 6464 c-2 -3 20 -80 50 -172 30 -92 58 -189 62 -216 5 -44 8
-48 21 -35 8 8 29 25 45 38 l30 24 -31 -6 c-37 -7 -55 8 -73 63 -12 35 -12 35
46 87 32 29 64 52 71 53 16 0 89 -37 97 -50 3 -5 1 -19 -6 -31 -16 -30 0 -21
61 34 48 43 50 47 27 47 -14 0 -54 13 -89 29 -35 16 -83 38 -108 49 -25 11
-79 36 -122 55 -42 20 -78 33 -81 31z m123 -115 c38 -18 70 -35 70 -40 0 -8
-91 -89 -101 -89 -6 0 -49 130 -49 148 0 16 1 16 80 -19z"/>
<path d="M1664 6258 c-17 -18 -37 -42 -45 -52 -14 -19 -14 -19 18 -1 32 18 32
18 65 -7 18 -14 42 -34 54 -44 72 -64 105 -96 102 -98 -1 -2 -68 3 -148 10
-205 18 -199 19 -239 -27 -33 -38 -37 -65 -6 -39 17 14 32 6 100 -55 22 -19
70 -61 107 -93 73 -62 85 -91 46 -116 -21 -13 -45 -11 -223 19 -110 18 -201
32 -203 30 -6 -5 17 -44 106 -180 101 -155 117 -188 102 -215 -18 -34 -35 -29
-312 102 -87 41 -92 46 -88 82 3 31 -16 9 -35 -40 l-18 -46 139 -139 c76 -76
135 -141 131 -145 -3 -4 -64 -1 -134 5 -70 6 -157 12 -193 13 l-64 2 -23 -44
c-28 -53 -29 -69 -3 -45 19 17 23 17 116 -24 129 -57 252 -117 270 -132 8 -7
12 -20 8 -35 -11 -45 11 -24 31 29 11 28 21 57 24 62 2 6 -8 -1 -22 -13 l-25
-24 -64 30 c-34 16 -111 50 -171 77 -59 26 -105 50 -103 53 6 5 407 -18 418
-24 4 -3 10 1 14 7 4 7 -56 74 -147 165 -85 85 -151 154 -147 154 4 0 54 -22
111 -49 57 -27 132 -61 166 -76 60 -27 65 -33 62 -67 -4 -34 10 -18 39 45 16
34 44 87 64 117 19 30 33 56 31 58 -2 2 -12 -2 -23 -9 -26 -16 -44 -8 -77 35
l-26 35 41 65 c40 63 44 66 80 66 21 0 51 -5 65 -10 22 -9 26 -15 21 -35 -4
-14 -2 -25 4 -25 5 0 10 5 10 10 0 17 82 129 133 183 20 20 15 39 -5 19 -23
-23 -54 -11 -119 46 -36 31 -88 76 -115 98 -27 23 -47 44 -44 47 3 2 91 -4
195 -14 217 -21 245 -22 245 -11 0 5 -61 62 -136 128 -121 106 -135 122 -132
146 3 16 4 28 3 28 0 0 -15 -15 -31 -32z m-196 -559 c28 -6 52 -13 52 -15 0
-8 -74 -113 -80 -113 -6 0 -90 133 -90 142 0 7 20 4 118 -14z"/>
<path d="M6640 6209 c9 -15 8 -24 -1 -36 -26 -31 -250 -213 -262 -213 -7 0
-18 5 -25 12 -6 6 -13 10 -16 7 -2 -2 46 -62 106 -134 60 -71 121 -149 135
-172 29 -50 41 -55 35 -15 -4 31 16 46 74 56 30 5 34 1 78 -65 l47 -70 -31
-44 c-39 -56 -47 -61 -71 -39 -29 26 -23 11 27 -66 25 -39 54 -91 65 -115 22
-49 35 -60 25 -20 -4 17 -1 30 12 40 19 17 249 125 265 125 8 0 -78 -97 -215
-244 -16 -16 -28 -34 -28 -39 0 -7 65 -8 192 -4 116 4 188 3 182 -2 -16 -16
-255 -121 -274 -121 -11 0 -23 8 -29 17 -5 10 -12 15 -15 12 -7 -6 61 -159 70
-159 3 0 3 14 -1 30 -7 30 -6 30 111 85 64 30 139 63 165 72 47 17 49 17 63
-2 26 -36 25 -10 -2 39 l-27 48 -173 -1 c-133 -1 -172 1 -166 10 4 7 42 49 85
93 93 98 139 149 139 157 0 4 -10 28 -22 55 -22 49 -22 49 -28 19 -4 -25 -17
-35 -90 -71 -147 -73 -220 -99 -238 -87 -34 21 -24 55 45 163 37 58 70 107 73
110 16 15 81 123 76 127 -5 5 -71 -3 -310 -41 -143 -22 -161 -7 -72 62 34 26
23 28 -30 6 -35 -15 -41 -15 -69 0 -28 16 -85 84 -85 103 0 8 47 56 98 97 22
19 22 19 43 0 32 -29 39 -55 22 -82 -8 -13 -12 -26 -9 -29 6 -6 103 77 105 89
1 4 -15 4 -34 1 -29 -5 -41 -1 -60 17 -14 13 -25 28 -24 34 0 11 98 92 122
102 18 6 97 -86 97 -114 0 -10 -10 -31 -21 -46 -12 -15 -19 -30 -16 -33 6 -6
87 56 87 67 0 4 -9 15 -21 26 -12 10 -55 61 -96 112 -71 86 -108 119 -83 71z
m251 -501 c-12 -18 -32 -50 -44 -70 -12 -21 -25 -38 -28 -38 -7 0 -81 112 -76
116 5 5 102 22 135 23 l34 1 -21 -32z"/>
<path d="M3940 3086 c-84 -18 -225 -75 -286 -116 -76 -51 -154 -131 -154 -157
0 -33 110 -139 199 -191 85 -50 213 -94 324 -112 192 -31 424 26 605 149 64
43 152 136 152 161 0 8 -31 44 -68 81 -77 74 -188 134 -312 170 -96 27 -358
36 -460 15z m440 -134 c130 -40 240 -105 240 -141 0 -13 -21 -33 -62 -59 -228
-143 -510 -162 -748 -51 -87 40 -160 88 -160 104 0 37 156 124 278 155 106 27
354 23 452 -8z"/>
<path d="M3875 2873 c-70 -9 -102 -48 -69 -84 22 -24 33 -24 193 7 142 27 138
27 325 -7 82 -15 116 -18 133 -10 29 13 30 51 2 77 -20 18 -40 19 -288 20
-146 1 -279 0 -296 -3z"/>
<path d="M1793 3040 c-18 -11 -33 -24 -33 -28 0 -11 155 -218 170 -227 12 -7
40 12 40 26 0 18 -41 49 -63 49 -26 0 -54 40 -43 59 16 24 57 10 102 -34 24
-25 48 -45 53 -45 11 0 61 65 61 79 0 17 -91 101 -131 121 -49 26 -115 26
-156 0z m149 -16 c39 -20 118 -93 118 -109 0 -6 -10 -21 -23 -33 l-23 -22 -30
31 c-38 41 -88 63 -114 49 -10 -5 -23 -10 -28 -10 -9 0 -66 80 -60 84 36 29
113 34 160 10z m-4 -196 c14 -14 16 -28 2 -28 -5 0 -14 9 -20 20 -12 22 -1 27
18 8z"/>
<path d="M6332 3039 c-41 -21 -132 -104 -132 -121 0 -12 53 -78 63 -78 4 0 25
18 45 39 40 42 86 61 105 42 17 -17 -11 -61 -39 -61 -21 0 -64 -34 -64 -51 0
-13 29 -31 40 -24 19 12 163 207 164 224 1 21 -59 51 -104 51 -19 0 -54 -10
-78 -21z m141 -10 c12 -7 24 -13 26 -15 3 -3 -14 -28 -55 -83 -2 -2 -16 1 -32
7 -36 12 -77 -4 -117 -46 l-29 -31 -23 21 c-13 12 -23 27 -23 33 0 18 85 94
123 110 39 17 101 19 130 4z m-113 -209 c-11 -20 -30 -28 -30 -12 0 11 22 32
32 32 5 0 4 -9 -2 -20z"/>
<path d="M3493 2603 c-18 -6 -16 -23 8 -95 29 -84 97 -222 156 -315 94 -149
235 -313 267 -313 9 0 27 22 41 50 55 108 39 251 -35 321 -45 43 -104 59 -128
35 -14 -13 -12 -16 11 -27 38 -17 38 -71 2 -87 -37 -17 -50 -15 -84 14 -60 50
-45 147 29 186 38 20 114 24 171 8 57 -16 118 -76 152 -150 26 -54 31 -81 35
-161 5 -106 -9 -169 -53 -252 -14 -27 -25 -55 -25 -64 0 -18 86 -123 101 -123
11 0 65 59 91 100 17 26 17 28 -25 109 l-42 83 0 122 c0 112 2 126 28 181 53
114 128 165 239 165 96 0 151 -45 151 -122 0 -71 -50 -111 -119 -94 -20 5 -24
13 -24 42 0 27 5 37 20 41 30 8 26 43 -5 43 -107 0 -188 -126 -171 -264 8 -63
52 -156 73 -156 30 0 147 136 252 293 82 122 198 387 185 422 -9 23 -21 19
-93 -28 -89 -59 -178 -100 -286 -133 -84 -26 -103 -28 -270 -28 -157 -1 -191
2 -265 22 -90 24 -242 92 -313 140 -56 38 -60 40 -74 35z"/>
<path d="M1874 2371 c-76 -46 -93 -124 -54 -251 31 -100 27 -145 -14 -186 -48
-48 -86 -46 -137 5 -33 33 -39 45 -39 81 0 28 9 59 26 87 14 25 23 47 20 50
-6 6 -117 -110 -124 -129 -2 -5 7 -6 21 -3 22 6 26 2 37 -30 28 -84 125 -146
197 -126 106 30 136 112 93 251 -11 36 -23 88 -26 115 -6 45 -3 54 21 83 21
25 34 32 63 32 86 -1 129 -96 82 -182 -30 -57 -10 -51 50 15 49 54 52 60 28
54 -24 -6 -28 -3 -38 27 -16 50 -48 86 -94 107 -52 24 -73 24 -112 0z"/>
<path d="M6272 2263 c3 -26 0 -28 -50 -34 -67 -9 -112 -43 -146 -111 -33 -66
-34 -126 -2 -194 80 -173 240 -215 381 -100 22 19 49 50 60 69 10 20 28 37 38
39 16 3 11 13 -32 66 -42 52 -50 68 -45 89 6 23 -1 19 -62 -32 -77 -65 -92
-85 -45 -61 37 20 52 13 98 -47 29 -38 30 -43 18 -67 -39 -75 -149 -103 -224
-56 -91 58 -163 172 -163 259 0 47 3 54 40 89 37 34 47 38 94 38 29 0 64 -7
78 -15 43 -24 51 -28 56 -22 6 6 -77 115 -89 116 -4 1 -6 -11 -5 -26z"/>
<path d="M2310 1977 c-35 -32 -362 -228 -389 -233 -17 -4 -31 -9 -31 -13 1 -9
102 -72 107 -67 3 2 -3 17 -13 32 l-18 27 43 38 c24 22 50 39 57 39 8 0 46
-21 85 -47 l71 -48 -5 -56 c-9 -86 -14 -92 -56 -84 -34 6 -31 3 37 -44 41 -28
77 -51 82 -51 5 0 4 12 -2 28 -8 21 -2 71 25 227 20 110 39 215 43 233 7 35
-9 44 -36 19z m-61 -154 c-9 -54 -18 -99 -18 -101 -2 -7 -132 88 -130 95 1 4
16 17 33 28 62 39 121 74 127 74 3 1 -2 -43 -12 -96z"/>
<path d="M5769 1907 c-20 -8 -58 -26 -85 -42 -27 -15 -73 -41 -101 -57 -58
-32 -66 -43 -28 -35 16 2 34 -2 45 -12 25 -21 190 -306 190 -327 0 -10 -7 -26
-17 -36 -9 -10 -11 -18 -5 -18 13 0 162 89 162 96 0 3 -15 2 -33 -1 -33 -7
-35 -6 -80 71 l-46 78 40 24 c25 15 49 22 63 18 12 -3 50 -33 83 -66 49 -48
68 -60 93 -60 34 0 90 46 90 74 0 23 -17 20 -25 -4 -10 -32 -35 -23 -97 36
-57 54 -61 56 -103 52 l-44 -5 25 32 c80 105 -5 227 -127 182z m46 -45 c82
-69 72 -157 -23 -206 l-31 -16 -45 77 c-57 97 -58 116 -8 142 46 25 81 26 107
3z"/>
<path d="M2580 1825 c0 -4 10 -15 22 -25 20 -16 21 -20 9 -56 -7 -22 -45 -104
-84 -184 -71 -142 -73 -145 -104 -145 -18 0 -33 -2 -33 -5 1 -9 170 -84 176
-77 3 3 -4 11 -16 17 -18 9 -21 18 -16 41 4 24 50 129 63 148 7 10 73 -30 88
-53 15 -22 15 -31 0 -107 -15 -80 -15 -85 3 -109 24 -32 61 -45 98 -34 l29 8
-32 4 c-17 2 -33 9 -36 15 -3 7 1 44 8 82 14 75 9 101 -26 134 l-23 21 46 0
c64 0 94 14 118 52 54 89 4 146 -225 249 -27 13 -53 25 -57 27 -5 2 -8 1 -8
-3z m214 -122 c32 -32 34 -75 5 -123 -27 -44 -48 -59 -79 -59 -24 -1 -110 33
-110 42 0 16 74 164 86 174 20 15 64 0 98 -34z"/>
<path d="M5393 1711 c-35 -13 -63 -29 -63 -33 0 -5 8 -7 19 -3 27 8 50 -4 67
-36 28 -56 94 -251 94 -280 0 -62 -44 -111 -111 -124 -75 -14 -103 17 -167
181 -72 181 -70 174 -44 192 12 8 22 18 22 22 0 9 -39 1 -55 -10 -5 -4 -34
-15 -62 -24 -54 -18 -88 -44 -42 -33 13 3 30 3 36 -1 11 -7 64 -125 83 -184
14 -45 60 -131 78 -145 9 -8 31 -21 49 -29 71 -31 199 27 223 102 16 48 2 120
-50 248 -45 113 -49 139 -19 159 35 25 7 24 -58 -2z"/>
<path d="M3058 1603 c12 -8 22 -24 22 -35 0 -24 -87 -333 -101 -359 -6 -12
-21 -19 -39 -19 -17 0 -30 -3 -30 -8 0 -7 97 -34 170 -48 l25 -5 -22 17 c-28
20 -29 53 -5 134 18 64 27 69 78 50 46 -18 53 -37 54 -137 0 -87 1 -93 26
-112 31 -25 86 -27 105 -5 11 13 9 14 -15 8 -39 -9 -46 6 -46 103 0 78 -1 82
-31 107 -17 14 -25 26 -17 26 33 0 93 24 114 45 18 18 24 35 24 67 0 80 -41
111 -207 157 -127 35 -137 36 -105 14z m192 -58 c49 -26 64 -82 38 -142 -27
-60 -75 -77 -147 -52 -38 13 -39 24 -6 128 25 78 27 81 56 81 16 0 43 -7 59
-15z"/>
<path d="M4688 1508 c-52 -14 -123 -79 -143 -133 -40 -103 -2 -247 81 -307 76
-55 208 -48 287 15 60 47 91 122 85 202 -15 177 -141 268 -310 223z m112 -18
c0 -5 6 -10 13 -10 19 0 51 -37 75 -86 41 -82 47 -219 12 -283 -18 -34 -74
-61 -125 -61 -43 0 -52 4 -90 42 -107 109 -115 326 -13 388 35 21 128 28 128
10z"/>
<path d="M3543 1474 c33 -18 34 -28 7 -229 -26 -197 -25 -195 -55 -195 -13 0
-27 -4 -30 -10 -3 -5 -1 -10 6 -10 7 0 90 -10 186 -21 95 -12 176 -20 178 -18
2 3 6 36 10 74 l5 70 -16 -35 c-30 -66 -51 -80 -118 -80 -34 0 -72 6 -86 13
-22 12 -25 19 -23 68 1 30 5 74 8 98 l7 43 40 -5 c47 -6 78 -31 78 -64 0 -12
5 -23 10 -23 6 0 10 11 10 24 0 12 2 52 6 87 l5 64 -17 -30 c-23 -40 -31 -45
-83 -45 l-44 0 7 78 c11 135 14 139 110 121 75 -13 93 -29 102 -85 3 -24 10
-44 14 -44 7 0 22 121 16 127 -4 4 -317 43 -341 42 -17 0 -16 -2 8 -15z"/>
<path d="M3995 1430 c3 -5 14 -10 24 -10 10 0 23 -6 28 -12 6 -7 13 -97 16
-200 6 -202 3 -218 -45 -218 -12 0 -18 -3 -14 -7 12 -12 279 -2 311 12 43 17
85 70 85 106 0 56 -40 103 -98 115 -33 6 -54 24 -29 24 8 0 29 13 46 29 53 49
40 130 -24 157 -41 17 -310 21 -300 4z m240 -16 c35 -16 45 -37 45 -94 -1 -59
-39 -90 -109 -90 l-41 0 0 84 c0 115 25 138 105 100z m54 -230 c27 -22 31 -32
31 -76 0 -41 -5 -54 -29 -79 -25 -25 -37 -29 -85 -29 -30 0 -57 3 -59 8 -2 4
-8 51 -11 105 l-7 97 65 0 c55 0 69 -4 95 -26z"/>
</g>
</svg>
