<?xml version="1.0" encoding="UTF-8" standalone="no"?><!DOCTYPE svg PUBLIC "-//W3C//DTD SVG 1.1//EN" "http://www.w3.org/Graphics/SVG/1.1/DTD/svg11.dtd"><svg width="100%" height="100%" viewBox="0 0 67 67" version="1.1" xmlns="http://www.w3.org/2000/svg" xmlns:xlink="http://www.w3.org/1999/xlink" xml:space="preserve" xmlns:serif="http://www.serif.com/" style="fill-rule:evenodd;clip-rule:evenodd;stroke-linejoin:round;stroke-miterlimit:2;"><g id="Instagram"><path id="Tracé_3" d="M33.333,5.925c4.448,-0.167 8.902,-0.043 13.334,0.371c2.149,-0.027 4.285,0.351 6.295,1.112c2.774,1.293 5.004,3.523 6.296,6.296c0.762,2.011 1.139,4.146 1.113,6.296c-0,3.333 0.371,4.446 0.371,13.333c0.167,4.448 0.043,8.902 -0.371,13.334c0.026,2.149 -0.351,4.285 -1.113,6.295c-1.292,2.774 -3.522,5.004 -6.295,6.296c-2.011,0.762 -4.147,1.139 -6.296,1.113c-3.334,-0 -4.446,0.371 -13.334,0.371c-4.447,0.167 -8.901,0.043 -13.333,-0.371c-2.15,0.026 -4.285,-0.351 -6.296,-1.113c-2.773,-1.292 -5.003,-3.522 -6.296,-6.296c-0.761,-2.01 -1.139,-4.146 -1.112,-6.295c-0,-3.334 -0.371,-4.446 -0.371,-13.334c-0.167,-4.447 -0.043,-8.901 0.371,-13.333c-0.027,-2.15 0.351,-4.285 1.112,-6.296c0.646,-1.373 1.523,-2.626 2.592,-3.704c0.868,-1.295 2.19,-2.22 3.704,-2.592c2.011,-0.761 4.146,-1.139 6.296,-1.112c4.432,-0.414 8.886,-0.538 13.333,-0.371m0,-5.925c-4.571,-0.163 -9.148,-0.039 -13.704,0.371c-2.782,-0.007 -5.543,0.494 -8.146,1.479c-2.247,0.733 -4.281,2.005 -5.925,3.704c-1.701,1.644 -2.974,3.68 -3.708,5.929c-1.162,2.551 -1.67,5.35 -1.479,8.146c-0.41,4.556 -0.534,9.133 -0.371,13.704c-0.163,4.572 -0.039,9.149 0.371,13.705c-0.006,2.784 0.497,5.546 1.483,8.149c0.733,2.248 2.005,4.282 3.704,5.926c1.644,1.699 3.678,2.97 5.925,3.704c2.604,0.986 5.366,1.489 8.15,1.483c4.555,0.408 9.13,0.531 13.7,0.367c4.572,0.163 9.149,0.039 13.704,-0.371c2.785,0.006 5.547,-0.497 8.15,-1.484c4.518,-1.556 8.073,-5.112 9.63,-9.629c0.986,-2.603 1.489,-5.365 1.483,-8.15c-0.004,-3.7 0.367,-4.812 0.367,-13.7c0.163,-4.571 0.039,-9.148 -0.371,-13.704c0.006,-2.784 -0.497,-5.546 -1.484,-8.15c-0.733,-2.247 -2.005,-4.281 -3.704,-5.925c-1.643,-1.699 -3.677,-2.971 -5.925,-3.704c-2.602,-0.985 -5.363,-1.486 -8.146,-1.479c-4.555,-0.41 -9.132,-0.534 -13.704,-0.371m0,16.296c-0.092,-0.002 -0.185,-0.002 -0.277,-0.002c-9.196,-0 -16.762,7.566 -16.762,16.762c-0,0.092 0,0.185 0.002,0.277c-0,9.347 7.691,17.038 17.037,17.038c9.347,-0 17.038,-7.691 17.038,-17.038c-0,-9.346 -7.691,-17.037 -17.038,-17.037m0,28.15c-0.067,0.001 -0.134,0.002 -0.202,0.002c-5.986,-0 -10.912,-4.926 -10.912,-10.913c-0,-0.067 0.001,-0.134 0.002,-0.202c-0.001,-0.067 -0.002,-0.134 -0.002,-0.202c-0,-5.986 4.926,-10.912 10.912,-10.912c0.068,-0 0.135,0.001 0.202,0.002c0.068,-0.001 0.135,-0.002 0.202,-0.002c5.987,-0 10.913,4.926 10.913,10.912c-0,0.068 -0.001,0.135 -0.002,0.202c0.001,0.068 0.002,0.135 0.002,0.202c-0,5.987 -4.926,10.913 -10.913,10.913c-0.067,-0 -0.134,-0.001 -0.202,-0.002m17.779,-32.963c-2.235,0 -4.075,1.84 -4.075,4.075c0,2.236 1.84,4.075 4.075,4.075c2.236,0 4.075,-1.839 4.075,-4.075c-0.018,-2.228 -1.846,-4.057 -4.075,-4.075" style="fill:#fff;"/></g></svg>