<?xml version="1.0" standalone="no"?>
<!DOCTYPE svg PUBLIC "-//W3C//DTD SVG 20010904//EN"
 "http://www.w3.org/TR/2001/REC-SVG-20010904/DTD/svg10.dtd">
<svg version="1.0" xmlns="http://www.w3.org/2000/svg"
 width="2048.000000pt" height="2048.000000pt" viewBox="0 0 2048.000000 2048.000000"
 preserveAspectRatio="xMidYMid meet">
<metadata>
Created by potrace 1.16, written by Peter Selinger 2001-2019
</metadata>
<g transform="translate(0.000000,2048.000000) scale(0.100000,-0.100000)"
fill="#000000" stroke="none">
<path d="M10960 14237 c0 -8 11 -18 25 -21 14 -4 27 -16 30 -29 3 -12 -15
-127 -40 -255 -63 -325 -60 -389 23 -464 62 -56 139 -81 254 -82 92 -1 98 0
140 29 72 51 101 123 153 377 24 119 51 230 60 247 9 19 26 33 46 38 17 5 31
12 32 17 2 12 -202 55 -209 45 -2 -5 9 -15 25 -24 38 -19 61 -52 61 -88 0 -51
-80 -429 -102 -482 -42 -99 -107 -143 -199 -132 -85 10 -119 50 -119 139 0 64
98 561 115 585 8 11 26 17 49 17 23 0 36 5 36 13 0 7 -9 13 -19 13 -20 0 -311
56 -343 66 -12 3 -18 0 -18 -9z"/>
<path d="M9780 14160 c-25 -5 -66 -11 -92 -15 -51 -7 -66 -25 -22 -25 48 0 90
-28 103 -68 23 -75 51 -311 33 -287 -4 6 -41 39 -82 75 -41 36 -88 77 -105 92
-159 140 -211 179 -230 174 -11 -3 -66 -11 -123 -18 -100 -12 -131 -30 -63
-36 22 -2 35 -10 41 -25 13 -30 70 -444 70 -507 0 -55 -15 -80 -48 -80 -23 0
-49 28 -257 270 -49 58 -100 116 -113 130 -12 14 -39 47 -60 73 -35 45 -39 47
-75 43 -21 -2 -40 -6 -42 -8 -2 -1 -22 -145 -45 -318 -49 -368 -60 -407 -110
-380 -21 11 -296 559 -307 611 -4 20 1 31 23 48 57 45 8 33 -114 -28 -70 -35
-128 -65 -130 -66 -1 -1 7 -111 18 -245 12 -133 19 -245 16 -247 -3 -3 -38 23
-79 58 -142 124 -299 254 -308 257 -12 5 -288 -131 -289 -142 0 -4 15 -5 34
-2 31 6 37 3 59 -26 14 -18 45 -76 70 -128 25 -52 79 -166 121 -253 92 -189
97 -208 67 -248 -13 -17 -20 -33 -17 -36 3 -3 44 13 91 35 48 23 90 42 96 42
5 0 9 6 9 14 0 10 -11 12 -45 8 -31 -3 -52 0 -69 11 -16 11 -68 104 -155 283
-73 147 -130 269 -127 271 2 2 53 -38 112 -89 60 -52 183 -156 274 -233 91
-76 173 -145 183 -153 9 -9 20 -13 23 -9 6 5 -40 626 -51 690 -8 50 10 28 54
-65 25 -51 82 -170 128 -265 46 -95 83 -183 83 -197 0 -15 -10 -32 -27 -44
-61 -44 -8 -29 118 33 119 59 242 102 347 122 19 3 32 12 32 20 0 11 -7 13
-24 9 -13 -3 -38 -1 -55 5 -38 13 -54 59 -49 138 3 48 6 56 28 62 159 47 173
50 185 37 7 -7 33 -39 59 -72 51 -63 56 -94 19 -111 -24 -10 -33 -41 -10 -32
97 37 371 107 449 115 79 8 92 23 29 34 -45 8 -66 20 -81 47 -9 18 -63 387
-58 401 2 5 19 -5 38 -23 19 -17 82 -72 140 -122 58 -49 107 -92 110 -95 3 -3
53 -47 111 -97 104 -90 106 -91 148 -86 40 5 41 7 36 37 -23 139 -68 482 -69
529 -1 55 1 60 34 87 34 29 34 29 10 29 -14 -1 -45 -5 -70 -9z m-970 -540 c19
-23 35 -47 35 -53 0 -10 -155 -60 -163 -53 -4 5 17 191 24 214 4 14 16 1 104
-108z"/>
<path d="M10183 14058 c-27 -62 -85 -194 -129 -293 -59 -133 -89 -189 -116
-217 -21 -21 -38 -40 -38 -43 0 -3 52 -5 115 -5 63 0 115 4 115 8 0 5 -17 14
-39 20 -63 19 -76 83 -36 180 l14 32 105 0 104 0 31 -74 c40 -97 40 -124 1
-139 -16 -6 -30 -15 -30 -19 0 -4 81 -8 180 -8 99 0 180 2 180 5 0 3 -11 16
-25 28 -23 20 -130 245 -256 534 l-44 103 -41 0 -41 0 -50 -112z m41 -191 c20
-49 36 -93 36 -98 0 -5 -40 -9 -90 -9 -49 0 -90 3 -90 6 0 3 6 20 14 37 8 18
29 63 46 101 17 40 34 66 39 60 4 -5 24 -49 45 -97z"/>
<path d="M11758 13944 c17 -14 32 -33 32 -43 0 -9 -16 -62 -36 -117 -20 -54
-58 -161 -85 -237 -70 -197 -72 -201 -128 -192 -65 12 -26 -16 69 -50 52 -18
126 -44 164 -59 90 -34 106 -33 66 4 -37 34 -37 37 13 175 35 96 48 108 87 77
27 -22 28 -38 16 -184 -9 -95 -8 -98 17 -131 31 -41 76 -64 151 -78 30 -5 87
-28 127 -49 39 -22 76 -40 80 -40 15 0 10 12 -15 31 -49 38 -37 97 33 164 l42
40 95 -50 94 -49 -5 -51 c-13 -117 -17 -134 -30 -145 -9 -7 -26 -9 -45 -5 -60
13 -29 -14 83 -73 61 -32 131 -69 154 -82 24 -13 45 -21 48 -18 3 2 0 19 -6
36 -8 23 -7 103 5 309 9 153 19 305 22 339 5 58 4 61 -23 74 -15 8 -31 16 -34
18 -6 3 -64 -42 -333 -257 -152 -121 -195 -151 -223 -151 -27 0 -26 -4 -23
122 l2 96 -34 36 c-18 20 -58 50 -88 66 l-55 31 40 -8 c125 -25 227 1 264 67
55 98 6 187 -142 258 -62 30 -402 152 -423 152 -5 0 6 -12 24 -26z m315 -115
c56 -26 61 -110 11 -214 -33 -71 -71 -93 -136 -79 -35 8 -42 13 -40 29 4 24
78 228 92 255 12 22 37 25 73 9z m522 -476 c-14 -140 -17 -163 -22 -163 -15 0
-153 76 -151 82 4 11 161 137 171 138 4 0 5 -26 2 -57z"/>
<path d="M10214 13288 c-47 -93 -159 -247 -261 -360 l-43 -47 -17 30 c-10 16
-30 35 -45 42 -36 15 -35 38 2 80 17 19 30 37 30 41 0 11 -119 6 -125 -4 -4
-6 5 -23 19 -37 35 -35 34 -65 -4 -82 -38 -16 -61 -51 -69 -99 -10 -58 -38
-50 -81 24 -45 78 -101 151 -120 159 -30 13 -125 -132 -168 -255 -14 -38 -27
-38 -47 0 -20 38 -54 70 -76 70 -25 0 -33 45 -14 82 8 17 13 34 10 36 -3 3
-30 -2 -60 -12 -64 -20 -71 -39 -21 -60 47 -19 52 -33 25 -63 -19 -19 -24 -36
-24 -76 0 -46 -3 -52 -22 -55 -16 -2 -34 9 -60 36 -58 60 -132 112 -159 112
-18 0 -27 -9 -38 -34 -17 -41 -46 -177 -46 -217 0 -16 -2 -29 -5 -29 -3 0 -25
20 -48 45 -24 25 -52 45 -62 45 -16 0 -17 6 -11 55 4 36 3 55 -4 55 -18 0 -90
-40 -90 -50 0 -5 16 -16 35 -24 34 -14 46 -38 25 -51 -13 -8 -13 -76 0 -109 7
-20 6 -26 -5 -26 -7 0 -16 4 -19 9 -9 14 -126 77 -170 91 -32 10 -40 10 -47
-1 -12 -19 -11 -120 1 -193 9 -58 6 -81 -8 -60 -16 23 -66 54 -88 54 -27 0
-44 26 -44 69 0 43 -11 44 -53 5 -41 -39 -40 -54 2 -54 38 0 50 -16 44 -59 -4
-30 0 -43 22 -69 35 -41 28 -49 -22 -24 -51 26 -160 62 -190 62 -21 0 -23 -4
-23 -49 0 -26 7 -88 15 -136 9 -48 13 -90 11 -93 -3 -2 -12 3 -21 11 -9 9 -32
19 -53 22 -54 9 -64 17 -76 60 -14 50 -28 53 -60 15 -36 -43 -34 -60 7 -60 48
0 62 -14 63 -59 0 -28 7 -48 24 -66 13 -14 21 -27 18 -30 -3 -3 -32 2 -64 10
-32 9 -92 19 -133 22 l-74 6 7 -44 c4 -24 25 -80 46 -123 22 -44 38 -82 35
-84 -2 -2 -17 5 -33 17 -17 12 -44 21 -60 21 -46 0 -60 9 -72 46 -14 42 -25
43 -50 2 -29 -48 -26 -57 26 -60 44 -3 47 -5 60 -43 7 -21 23 -48 36 -58 23
-18 23 -18 -32 -11 -81 10 -200 8 -212 -4 -13 -13 17 -92 67 -175 19 -32 35
-60 35 -63 0 -3 -15 -2 -32 2 -18 4 -51 7 -74 6 -34 -2 -42 1 -54 23 -17 32
-26 32 -45 -5 -22 -43 -19 -50 22 -47 32 2 38 -1 41 -20 2 -13 22 -38 44 -58
27 -23 36 -36 27 -39 -8 -2 -48 -11 -89 -20 -81 -18 -140 -47 -140 -69 0 -8
20 -35 44 -61 34 -37 48 -46 67 -42 13 3 60 7 104 10 164 12 322 76 416 168
61 59 183 194 339 376 l105 122 12 -29 c32 -75 33 -71 -107 -226 -26 -27 -59
-66 -74 -85 -135 -167 -268 -298 -341 -336 -145 -77 -366 -116 -537 -95 -51 6
-95 7 -99 3 -27 -32 -81 -623 -59 -646 3 -3 43 -8 88 -12 l82 -7 13 -46 c12
-40 11 -52 -3 -96 l-17 -50 -71 -5 c-39 -3 -73 -8 -76 -11 -24 -23 82 -593
123 -666 8 -14 32 -17 167 -19 137 -2 172 -6 254 -28 178 -50 274 -111 476
-308 l122 -119 -2 -59 c0 -33 -5 -60 -10 -60 -5 0 -50 40 -100 88 -130 126
-166 157 -184 157 -25 0 -37 -57 -24 -113 10 -45 10 -48 -18 -76 -33 -33 -45
-29 -60 22 -16 59 -12 129 11 183 21 49 21 50 3 65 -86 68 -192 109 -329 126
-104 13 -243 4 -251 -17 -7 -18 97 -243 132 -283 1 -2 33 4 71 13 57 14 80 15
128 6 74 -14 155 -62 209 -123 22 -27 46 -48 51 -48 6 0 28 18 49 39 36 37 38
41 27 72 -13 39 -14 89 -1 109 13 21 20 9 25 -40 6 -56 22 -76 45 -55 9 8 21
15 26 15 5 0 54 -43 109 -94 99 -93 100 -94 81 -115 l-19 -20 -40 34 c-22 19
-46 35 -52 35 -6 0 -33 -22 -60 -50 -27 -27 -52 -50 -55 -50 -3 0 -20 14 -38
31 l-33 31 22 24 c20 22 24 22 39 9 9 -8 23 -15 32 -15 19 0 58 41 58 62 0 15
-30 48 -44 48 -12 0 -126 -112 -126 -124 0 -17 73 -86 90 -86 8 0 38 24 67 52
l53 52 36 -35 36 -36 -77 -81 -77 -82 -48 40 c-26 22 -52 40 -56 40 -5 0 -42
-33 -82 -73 l-73 -72 -30 35 c-16 19 -29 39 -29 45 0 6 15 26 34 44 l34 33 23
-21 c31 -28 39 -27 79 14 l34 35 -29 30 c-16 16 -33 30 -39 30 -17 0 -156
-143 -156 -161 0 -23 57 -99 75 -99 8 0 48 32 89 70 l73 70 42 -36 c36 -32 41
-41 41 -80 0 -64 -14 -90 -64 -119 -26 -15 -46 -33 -46 -40 0 -13 50 -55 65
-55 3 0 17 24 30 54 28 63 29 64 87 72 38 5 47 3 78 -24 32 -28 33 -32 19 -49
-8 -10 -39 -47 -69 -82 l-54 -64 29 -24 c17 -13 42 -33 56 -43 l27 -20 34 38
c54 60 88 108 88 124 0 8 -11 20 -24 26 -21 9 -28 7 -50 -13 -26 -24 -35 -55
-16 -55 22 0 21 -30 -1 -59 -13 -17 -27 -31 -32 -31 -11 0 -77 50 -77 59 0 4
27 38 60 77 32 38 59 74 60 80 0 7 -14 25 -31 42 l-32 31 24 28 c13 15 50 52
82 82 l58 55 26 -26 26 -26 -52 -58 c-28 -32 -51 -64 -51 -71 0 -12 57 -70 85
-86 16 -9 125 119 125 147 0 9 -10 21 -22 26 -19 7 -28 3 -50 -21 -32 -33 -35
-47 -13 -55 22 -9 18 -27 -10 -54 l-24 -23 -35 29 c-19 16 -35 32 -35 35 -1 3
22 32 49 63 28 31 50 63 50 70 0 7 -11 23 -25 36 -29 27 -31 42 -10 60 12 10
30 0 105 -61 49 -40 90 -77 90 -81 0 -5 -67 -101 -150 -214 -82 -113 -150
-211 -150 -218 0 -13 76 -72 99 -78 7 -2 29 22 49 52 35 51 41 55 94 66 32 6
60 9 63 6 3 -3 5 -31 5 -63 0 -42 -6 -68 -25 -100 -27 -47 -30 -59 -17 -59 5
0 17 19 28 42 13 29 34 51 72 75 62 40 67 38 102 -38 l24 -51 -22 -61 c-12
-34 -22 -65 -22 -69 0 -12 113 -49 122 -40 8 8 87 212 164 422 37 101 46 116
62 106 7 -4 3 -30 -10 -74 -33 -112 -34 -107 6 -130 52 -31 48 -53 -8 -46 -41
6 -43 5 -49 -22 -7 -36 -4 -41 33 -49 43 -9 37 -23 -12 -27 l-42 -3 -32 -110
c-35 -117 -34 -129 14 -137 29 -5 167 -43 193 -53 10 -4 32 10 62 39 61 58
118 80 199 74 45 -3 74 -11 100 -28 45 -30 75 -77 59 -93 -12 -12 -34 -3 -90
38 -49 36 -129 35 -177 -1 -55 -43 -46 -59 44 -78 166 -35 363 -42 398 -15 7
6 9 29 6 62 -5 49 -10 57 -82 134 -180 193 -378 525 -455 763 -15 47 -33 90
-39 96 -6 6 -42 16 -80 23 -127 22 -306 108 -422 202 -75 61 -245 245 -301
327 l-63 90 60 73 c33 41 56 77 52 81 -4 4 -46 1 -92 -6 -64 -11 -88 -11 -97
-3 -12 13 -93 198 -93 214 0 6 36 38 80 72 44 34 80 69 80 76 0 11 -23 15
-107 17 l-108 3 -17 69 c-9 37 -22 107 -28 155 -7 47 -17 92 -23 99 -8 10 -30
11 -88 6 l-77 -6 -25 49 c-25 49 -25 49 -7 90 20 44 30 48 145 55 l40 3 8 55
c23 159 36 232 41 237 3 3 55 14 117 24 61 9 113 20 116 23 11 11 -13 29 -98
71 -67 34 -89 50 -89 65 0 22 51 174 70 209 7 14 18 20 28 17 9 -3 52 -8 95
-12 94 -8 100 5 30 62 -81 66 -85 71 -78 93 7 22 108 177 144 221 27 32 26 47
-4 144 -74 237 -155 511 -155 522 0 17 163 19 280 3 184 -24 188 -24 286 14
207 80 505 259 709 428 310 256 482 436 623 650 31 48 63 95 70 105 12 19 12
19 25 0 6 -10 38 -57 69 -105 187 -285 530 -608 908 -856 124 -81 355 -200
457 -235 69 -23 76 -24 155 -11 46 7 149 15 231 18 126 5 147 4 147 -9 0 -13
-78 -277 -155 -524 -30 -97 -31 -112 -4 -144 36 -44 137 -199 144 -221 7 -22
3 -27 -77 -93 -71 -57 -65 -70 30 -62 42 4 85 9 94 12 10 3 21 -3 28 -17 19
-35 70 -187 70 -209 0 -15 -22 -31 -89 -65 -84 -42 -109 -60 -98 -71 2 -3 47
-12 98 -20 52 -8 103 -17 115 -19 24 -5 37 -52 54 -199 6 -49 13 -93 16 -98 3
-4 27 -8 53 -8 90 0 111 -9 131 -53 18 -40 18 -41 -7 -90 l-25 -49 -77 6 c-58
5 -80 4 -88 -6 -6 -7 -16 -52 -23 -99 -6 -48 -19 -118 -28 -155 l-17 -69 -107
-3 c-85 -2 -108 -6 -108 -17 0 -7 36 -42 80 -76 44 -34 80 -66 80 -72 0 -16
-81 -201 -93 -214 -9 -8 -33 -8 -97 3 -46 7 -88 10 -92 6 -4 -4 19 -40 52 -81
l60 -73 -63 -90 c-56 -82 -226 -266 -301 -327 -116 -94 -295 -180 -422 -202
-38 -7 -74 -17 -80 -23 -6 -6 -24 -49 -39 -96 -43 -134 -152 -350 -253 -505
-50 -75 -156 -210 -218 -275 -56 -59 -62 -69 -66 -117 -3 -32 -1 -56 6 -62 35
-28 224 -20 399 16 89 18 98 34 43 77 -48 36 -128 37 -177 1 -56 -41 -78 -50
-90 -38 -16 16 14 63 59 93 26 17 55 25 100 28 82 6 143 -17 201 -75 29 -29
49 -42 60 -38 26 10 164 47 193 53 48 8 49 20 14 137 l-32 110 -42 3 c-49 4
-55 18 -12 27 37 8 40 13 33 49 -6 27 -8 28 -49 22 -56 -7 -60 15 -9 45 19 12
35 26 35 32 0 7 -11 46 -24 87 -15 46 -21 79 -15 85 15 15 25 -3 63 -105 79
-218 157 -415 165 -423 10 -10 121 29 121 42 0 3 -10 34 -22 68 l-22 61 24 51
c35 76 40 78 102 38 38 -24 59 -46 72 -75 11 -23 23 -42 28 -42 13 0 10 12
-17 59 -19 32 -25 58 -25 101 0 33 3 61 8 63 4 2 31 -1 61 -7 51 -10 58 -15
93 -66 21 -30 44 -54 50 -52 24 7 98 66 98 79 0 8 -13 31 -29 51 -63 81 -271
372 -271 380 0 4 41 41 90 81 75 61 93 71 105 61 21 -18 19 -33 -10 -60 -14
-13 -25 -29 -25 -36 0 -7 23 -39 50 -70 28 -31 50 -60 49 -63 0 -3 -16 -19
-35 -35 l-35 -29 -24 23 c-28 27 -32 45 -10 54 22 8 19 22 -12 55 -23 24 -32
28 -50 21 -13 -5 -23 -17 -23 -26 0 -28 109 -156 125 -147 28 16 85 74 85 86
0 7 -23 39 -51 71 l-52 58 26 26 26 26 58 -55 c32 -30 69 -67 82 -82 l24 -28
-32 -31 c-17 -17 -31 -35 -31 -42 1 -6 28 -42 60 -80 33 -39 60 -73 60 -77 0
-9 -66 -59 -77 -59 -5 0 -19 14 -32 31 -22 29 -23 59 -1 59 19 0 10 31 -16 55
-22 20 -29 22 -50 13 -13 -6 -24 -18 -24 -26 0 -16 64 -104 102 -139 l23 -22
50 39 c28 22 50 44 50 49 0 5 -14 24 -30 43 -17 18 -45 53 -64 77 l-34 43 34
30 c30 26 39 29 77 24 58 -8 59 -9 87 -72 13 -30 27 -54 30 -54 15 0 65 42 65
55 0 7 -20 25 -46 40 -50 29 -64 55 -64 119 0 39 5 48 41 80 l42 36 73 -70
c41 -38 81 -70 89 -70 18 0 75 76 75 99 0 18 -139 161 -156 161 -6 0 -23 -14
-39 -30 l-29 -30 34 -35 c40 -41 48 -42 79 -14 l23 21 34 -33 c19 -18 34 -38
34 -44 0 -6 -13 -26 -29 -45 l-30 -35 -73 72 c-40 40 -77 73 -82 73 -4 0 -30
-18 -56 -40 l-48 -40 -77 82 -77 81 36 36 36 35 53 -52 c29 -28 59 -52 68 -52
17 0 89 70 89 86 0 13 -115 124 -128 124 -14 0 -42 -35 -42 -52 0 -18 41 -58
60 -58 7 0 21 7 30 15 15 13 19 13 39 -9 l22 -24 -33 -31 c-18 -17 -35 -31
-38 -31 -3 0 -28 23 -55 50 -27 28 -54 50 -60 50 -6 0 -30 -16 -52 -35 l-40
-34 -19 20 c-19 21 -18 22 81 115 55 51 104 94 109 94 5 0 17 -7 26 -15 23
-21 39 -1 45 55 5 49 12 61 25 40 13 -20 12 -70 -1 -109 -11 -31 -9 -35 27
-72 21 -21 42 -39 46 -39 5 0 34 26 66 58 97 99 212 137 322 107 30 -8 60 -15
66 -15 21 0 150 261 140 285 -7 21 -147 30 -251 17 -137 -17 -243 -58 -329
-126 -18 -15 -18 -16 3 -65 23 -54 27 -124 11 -183 -15 -51 -27 -55 -60 -22
-28 28 -28 31 -18 76 7 31 8 58 2 80 -17 58 -29 51 -214 -126 l-94 -91 -8 60
-7 60 122 120 c200 198 297 261 477 311 82 22 117 26 254 28 135 2 159 5 167
19 44 78 146 644 121 669 -4 4 -38 8 -76 10 l-69 3 -17 50 c-14 44 -15 56 -3
96 l14 47 84 7 c72 6 85 10 91 27 8 27 -4 203 -27 393 -30 246 -29 241 -64
237 -17 -1 -95 -3 -175 -3 -126 -1 -158 2 -245 25 -192 50 -266 101 -445 307
-41 47 -113 130 -160 184 -47 54 -95 110 -108 124 -23 27 -23 44 1 102 l12 29
105 -122 c156 -182 278 -317 339 -376 94 -92 252 -156 416 -168 44 -3 91 -7
104 -10 19 -4 33 5 67 42 24 26 44 53 44 61 0 22 -59 51 -140 69 -41 9 -81 18
-89 20 -9 3 0 16 27 39 22 20 42 45 44 58 3 19 9 22 41 20 41 -3 44 4 22 47
-19 37 -28 37 -45 5 -12 -22 -20 -25 -54 -23 -23 1 -56 -2 -73 -6 -18 -4 -33
-6 -33 -4 0 3 20 40 45 83 54 96 71 143 57 157 -12 12 -132 14 -212 4 -55 -7
-55 -7 -32 11 13 10 29 37 36 58 13 38 16 40 60 43 53 4 58 17 25 63 -26 37
-35 37 -49 -5 -12 -37 -26 -46 -72 -46 -16 0 -43 -9 -60 -21 -16 -12 -31 -19
-33 -17 -3 2 13 40 35 84 21 43 42 99 46 123 l7 44 -79 -6 c-43 -3 -103 -13
-132 -22 -60 -18 -73 -15 -47 11 24 24 36 61 29 89 -7 28 18 45 65 45 39 0 40
18 5 60 -32 38 -46 35 -60 -15 -12 -43 -22 -51 -76 -60 -21 -3 -44 -13 -53
-22 -9 -8 -18 -13 -21 -11 -2 3 2 45 11 93 8 48 15 110 15 136 0 45 -2 49 -23
49 -30 0 -139 -36 -190 -62 -50 -25 -57 -17 -22 24 22 26 26 39 22 69 -6 43 6
59 44 59 42 0 43 15 2 54 -42 39 -53 38 -53 -5 0 -42 -17 -69 -43 -69 -24 0
-64 -23 -84 -48 -20 -24 -23 -11 -13 58 12 82 12 171 1 189 -7 11 -15 11 -47
1 -35 -11 -132 -63 -176 -93 -22 -15 -32 -4 -19 21 14 26 14 99 1 107 -21 13
-9 37 25 51 19 8 35 19 35 24 0 10 -72 50 -90 50 -7 0 -8 -19 -4 -55 6 -49 5
-55 -11 -55 -10 0 -38 -20 -62 -45 -23 -25 -45 -45 -48 -45 -3 0 -5 13 -5 29
0 40 -29 176 -46 217 -11 25 -20 34 -38 34 -28 0 -102 -53 -158 -112 -27 -28
-45 -38 -60 -36 -21 3 -23 9 -23 55 0 40 -5 57 -24 76 -27 30 -22 44 26 63 49
21 40 44 -25 62 -29 8 -55 12 -58 9 -3 -3 2 -19 10 -36 19 -37 12 -81 -13 -81
-22 0 -56 -32 -76 -70 -20 -38 -33 -38 -47 0 -43 123 -138 268 -168 255 -20
-8 -76 -82 -121 -159 -42 -73 -70 -82 -80 -24 -8 49 -31 82 -68 98 -39 16 -40
44 -5 81 14 15 23 32 20 38 -7 11 -126 16 -126 5 0 -4 14 -22 30 -41 37 -42
38 -57 1 -79 -15 -9 -36 -29 -45 -45 l-16 -28 -43 47 c-102 113 -214 267 -261
360 -9 17 -21 32 -26 32 -5 0 -17 -15 -26 -32z m-407 -383 c6 -43 13 -44 13
-1 0 30 3 37 18 34 9 -2 26 -20 37 -41 l20 -38 -24 -20 c-18 -14 -39 -19 -87
-19 -63 0 -64 1 -64 27 0 33 46 95 68 91 9 -2 17 -16 19 -33z m853 -2 c0 -42
7 -41 13 2 2 17 10 31 19 33 22 4 68 -58 68 -91 0 -26 -2 -27 -63 -27 -63 0
-107 18 -107 43 0 22 39 77 55 77 11 0 15 -11 15 -37z m-1127 -59 c52 -51 101
-118 122 -167 13 -30 12 -34 -7 -46 -23 -14 -20 -17 -46 34 -11 22 -39 62 -62
88 -52 59 -75 59 -107 2 -31 -58 -73 -208 -80 -291 -5 -64 -8 -73 -33 -88 -16
-9 -31 -16 -34 -16 -15 0 -5 152 15 216 38 126 143 314 173 314 7 0 33 -21 59
-46z m1524 -11 c87 -125 143 -282 143 -399 0 -41 -3 -74 -6 -74 -3 0 -18 7
-34 16 -25 15 -28 24 -33 88 -7 83 -49 233 -80 291 -32 57 -55 57 -107 -2 -23
-26 -51 -66 -62 -88 -26 -51 -23 -48 -46 -34 -19 12 -20 16 -7 46 30 71 150
213 181 213 6 0 29 -26 51 -57z m-2072 -156 c47 -24 153 -123 202 -190 38 -51
73 -134 66 -154 -9 -24 -41 -14 -48 15 -12 48 -65 125 -132 190 -63 61 -136
108 -152 98 -15 -10 -31 -93 -31 -165 0 -80 20 -197 45 -258 9 -23 15 -48 13
-55 -6 -18 -57 65 -81 132 -27 75 -29 249 -3 335 28 94 33 96 121 52z m2603
21 c47 -58 62 -305 25 -408 -24 -67 -75 -150 -81 -132 -2 7 4 32 13 55 24 60
45 178 45 252 0 70 -16 162 -30 170 -18 11 -94 -39 -159 -103 -67 -68 -114
-137 -126 -185 -7 -28 -39 -38 -48 -14 -7 20 28 103 66 154 56 76 161 171 219
198 62 29 62 29 76 13z m-2993 -243 c98 -45 227 -167 294 -278 20 -33 21 -38
6 -43 -9 -4 -17 -5 -19 -3 -103 147 -233 265 -318 289 -61 18 -61 18 -55 -72
6 -83 21 -137 57 -209 25 -48 25 -58 0 -52 -29 8 -65 84 -84 176 -16 77 -21
198 -9 210 14 15 75 6 128 -18z m3423 -46 c5 -126 -50 -313 -95 -322 -28 -5
-29 3 -3 52 36 72 51 126 57 209 6 90 6 90 -55 72 -85 -24 -215 -142 -318
-289 -2 -2 -10 -1 -19 3 -15 5 -14 10 6 43 95 158 285 306 384 300 l40 -2 3
-66z m-3762 -209 c106 -19 234 -74 234 -101 0 -16 -28 -10 -136 27 -71 24
-118 34 -147 32 -41 -3 -42 -3 -39 -38 8 -88 71 -245 122 -303 24 -28 27 -37
17 -46 -30 -24 -123 114 -157 236 -19 66 -27 183 -13 196 9 10 50 9 119 -3z
m4092 -55 c2 -35 -4 -88 -13 -125 -32 -122 -131 -274 -162 -249 -10 9 -7 18
17 46 51 58 114 215 122 303 3 35 2 35 -39 38 -29 2 -76 -8 -147 -32 -57 -20
-115 -36 -128 -36 -22 1 -22 2 9 28 53 45 212 93 298 89 l40 -2 3 -60z m-4276
-286 c74 -25 142 -60 183 -93 42 -36 23 -44 -32 -13 -89 48 -185 78 -270 84
-80 6 -83 5 -83 -16 0 -46 92 -191 169 -266 40 -38 50 -55 32 -55 -17 0 -120
101 -151 147 -58 85 -108 212 -93 236 10 16 175 0 245 -24z m4580 -3 c-5 -46
-39 -128 -81 -192 -37 -58 -142 -164 -162 -164 -19 0 -7 22 32 57 71 64 169
216 169 263 0 18 -6 20 -59 20 -70 0 -198 -37 -284 -82 -31 -17 -60 -28 -64
-24 -12 12 48 55 126 93 90 43 175 62 261 60 l65 -2 -3 -29z m-4733 -313 c86
-28 138 -60 122 -76 -7 -7 -21 -5 -44 6 -91 44 -300 65 -340 35 -15 -12 -14
-17 12 -63 16 -27 61 -84 100 -126 57 -62 68 -78 54 -83 -33 -13 -146 120
-208 242 -30 60 -30 59 -3 73 61 33 195 29 307 -8z m4928 15 c18 -5 35 -14 39
-19 11 -18 -82 -172 -144 -240 -66 -72 -69 -74 -89 -61 -8 5 11 32 60 84 40
42 85 99 100 127 27 49 27 50 8 60 -51 28 -250 6 -338 -36 -46 -22 -66 -3 -26
24 94 66 279 95 390 61z m-4614 -395 c29 -27 70 -62 92 -80 22 -17 37 -34 33
-38 -6 -7 -257 20 -265 29 -9 9 63 136 78 136 5 0 33 -21 62 -47z m4124 -19
c18 -32 33 -62 33 -65 0 -13 -257 -45 -269 -34 -3 4 5 16 19 27 29 23 69 57
123 105 21 19 43 33 50 30 6 -2 26 -30 44 -63z m-4711 -282 c121 -66 200 -216
211 -398 5 -70 2 -102 -11 -142 -10 -29 -21 -52 -24 -52 -21 1 -42 84 -47 180
-7 159 -45 272 -111 329 -71 63 -151 48 -216 -41 -52 -70 -78 -160 -87 -298
-4 -64 -13 -126 -21 -140 -13 -24 -13 -24 -32 30 -21 63 -26 213 -8 282 30
115 79 195 148 239 38 24 56 29 106 29 38 -1 73 -7 92 -18z m5386 -11 c54 -34
102 -100 131 -179 31 -84 35 -267 9 -342 l-20 -55 -16 37 c-10 24 -16 66 -16
116 0 146 -49 284 -125 350 -44 39 -76 48 -125 33 -95 -28 -156 -161 -165
-361 -5 -96 -26 -179 -47 -180 -14 0 -38 97 -38 156 0 192 85 365 214 436 19
11 54 17 92 18 50 0 68 -5 106 -29z m-4902 -82 c165 -85 166 -86 105 -94 -42
-5 -128 -19 -247 -40 -27 -4 -28 -3 -28 43 0 56 26 152 41 152 6 0 64 -27 129
-61z m4375 9 c8 -28 15 -73 15 -100 0 -46 -1 -47 -27 -43 -120 21 -205 35
-247 40 -27 4 -45 10 -40 15 14 14 258 139 271 140 7 0 19 -23 28 -52z m-4866
-4 c71 -59 121 -203 121 -346 l0 -78 -30 0 c-30 0 -30 1 -30 53 0 103 -36 250
-64 260 -30 12 -36 -11 -43 -156 l-6 -147 -29 0 -28 0 0 150 c0 130 -2 150
-16 150 -43 0 -75 -76 -83 -200 -6 -93 -7 -95 -31 -95 -25 0 -25 1 -22 70 6
109 19 164 59 245 59 116 134 151 202 94z m5333 0 c27 -19 49 -48 73 -98 38
-77 51 -133 57 -241 3 -69 3 -70 -22 -70 -24 0 -25 2 -31 95 -8 124 -40 200
-83 200 -14 0 -16 -20 -16 -150 l0 -150 -28 0 -29 0 -6 147 c-7 145 -13 168
-43 156 -28 -10 -64 -157 -64 -260 0 -52 0 -53 -30 -53 l-30 0 0 78 c0 191 89
372 183 372 17 0 48 -12 69 -26z m-5414 -432 l47 3 5 144 c3 96 9 146 17 148
19 7 43 -86 51 -197 l7 -105 41 -3 c37 -3 42 -7 63 -49 l22 -46 -22 -53 c-20
-50 -24 -54 -54 -54 l-33 0 -4 -142 c-3 -112 -7 -150 -21 -175 -37 -68 -47
-36 -47 147 0 74 -4 141 -9 148 -5 9 -24 12 -52 10 l-44 -3 -1 -158 c0 -86 -3
-159 -6 -162 -3 -3 -13 3 -22 14 -27 30 -46 118 -46 219 l0 94 -28 -3 c-39 -5
-49 5 -67 66 -14 50 -14 59 1 104 15 47 18 50 52 53 l37 3 3 75 c2 88 19 165
41 200 15 23 16 16 19 -128 l3 -153 47 3z m5307 276 c3 -13 6 -79 8 -148 l2
-125 48 -3 47 -3 0 153 c0 151 1 153 19 129 24 -32 41 -108 44 -201 l2 -75 37
-3 c34 -3 37 -6 52 -53 15 -45 15 -54 1 -104 -18 -61 -28 -71 -67 -66 l-28 3
0 -89 c0 -101 -19 -195 -45 -223 -10 -11 -21 -18 -24 -15 -3 3 -5 76 -5 163
l-1 157 -47 3 c-58 4 -56 9 -60 -185 -2 -78 -7 -145 -12 -150 -10 -11 -34 23
-46 67 -5 19 -10 90 -10 158 l0 122 -34 0 c-31 0 -35 4 -55 54 l-22 53 22 46
c21 42 26 46 63 49 l41 3 7 105 c11 145 47 247 63 178z m-5019 -450 c25 -47
31 -222 10 -309 -32 -140 -106 -251 -191 -290 -189 -87 -379 133 -379 436 1
78 5 110 21 145 l20 45 13 -25 c8 -15 17 -80 21 -155 12 -220 73 -347 188
-395 68 -28 152 27 202 133 39 84 52 163 46 277 -4 88 8 170 25 170 3 0 14
-15 24 -32z m4829 0 c4 -18 8 -94 9 -168 1 -116 4 -145 26 -204 28 -78 87
-151 138 -173 44 -18 91 -8 136 29 85 70 125 176 135 363 4 75 13 140 21 155
l13 25 20 -45 c30 -66 29 -219 -2 -320 -30 -98 -53 -142 -104 -197 -53 -58
-103 -83 -164 -83 -129 1 -235 118 -279 309 -29 121 -6 341 35 341 5 0 12 -15
16 -32z m-4899 -94 c9 -51 -2 -199 -20 -259 -37 -123 -121 -199 -196 -176
-105 31 -185 201 -178 379 3 72 4 77 26 77 21 0 22 -4 26 -95 6 -145 38 -230
87 -230 18 0 19 9 19 165 l0 165 35 0 35 0 0 -112 c0 -62 3 -136 6 -165 9 -74
42 -82 79 -20 16 26 20 56 23 170 4 136 4 137 28 137 19 0 24 -7 30 -36z
m4986 -101 c3 -114 7 -144 23 -170 37 -62 70 -54 79 20 3 29 6 103 6 165 l0
112 35 0 35 0 0 -165 c0 -156 1 -165 19 -165 49 0 81 85 87 230 4 91 5 95 26
95 22 0 23 -5 26 -77 7 -175 -71 -344 -174 -378 -75 -25 -162 51 -200 175 -18
60 -29 208 -20 259 6 29 11 36 30 36 24 0 24 -1 28 -137z m-4474 -192 c-6 -18
-213 -179 -221 -172 -9 9 -42 104 -52 149 l-7 32 142 0 c84 0 140 -4 138 -9z
m4177 -23 c-10 -45 -43 -140 -52 -149 -8 -7 -215 154 -221 172 -2 5 54 9 138
9 l142 0 -7 -32z m-4071 -371 c-14 -18 -46 -58 -71 -89 -26 -32 -51 -58 -57
-58 -10 0 -76 108 -84 136 -3 10 214 54 231 46 4 -2 -4 -18 -19 -35z m3889 3
c10 0 17 -6 15 -12 -7 -28 -74 -138 -83 -138 -12 0 -156 176 -149 183 2 2 48
-4 102 -14 53 -10 105 -18 115 -19z m-4877 -135 c73 -154 311 -205 409 -88 29
33 32 35 48 19 15 -16 15 -19 -4 -49 -46 -70 -104 -87 -255 -76 -122 10 -185
52 -243 166 -27 54 -27 63 4 63 18 0 28 -9 41 -35z m5734 25 c0 -16 -40 -91
-68 -128 -14 -18 -46 -45 -71 -60 -44 -26 -53 -27 -176 -27 -144 0 -160 6
-204 72 -19 29 -19 34 -5 48 21 21 26 19 49 -18 13 -21 36 -38 70 -50 122 -46
283 19 339 136 13 28 23 37 41 37 14 0 25 -5 25 -10z m-4662 -286 c43 -18 97
-67 119 -108 21 -40 21 -107 0 -139 -19 -30 -82 -51 -122 -41 -14 3 -25 8 -25
10 0 2 14 23 30 46 25 34 30 51 28 83 -5 73 -72 81 -163 19 -20 -13 -38 -24
-40 -24 -9 0 -17 71 -11 96 4 14 19 37 33 50 31 29 94 32 151 8z m3675 -8 c14
-13 29 -36 33 -50 6 -25 -2 -96 -11 -96 -2 0 -20 11 -40 24 -91 62 -158 54
-163 -19 -2 -32 3 -49 28 -83 16 -23 30 -44 30 -46 0 -11 -56 -15 -90 -6 -98
26 -99 150 -3 242 64 61 169 77 216 34z m-3682 -106 c25 -14 25 -56 -1 -97
-10 -18 -80 -95 -155 -171 -125 -129 -139 -140 -180 -147 -25 -3 -48 -4 -53
-1 -4 2 -5 27 -2 55 5 49 9 55 137 190 83 86 149 147 175 160 49 24 53 25 79
11z m3640 -24 c33 -22 264 -259 280 -288 4 -7 8 -33 10 -58 l3 -45 -49 2 -50
3 -138 140 c-147 150 -177 189 -177 232 0 52 52 58 121 14z m-3443 -227 c165
-107 389 -203 532 -230 36 -6 70 -13 77 -15 15 -4 57 -84 48 -92 -9 -9 -167
16 -242 39 -101 31 -240 86 -308 124 -169 92 -184 102 -307 205 -10 8 -18 17
-18 20 0 3 28 6 63 7 60 1 65 -1 155 -58z m3362 51 c0 -3 -8 -12 -18 -20 -126
-106 -148 -120 -307 -206 -138 -74 -321 -136 -461 -156 -46 -7 -86 -9 -89 -6
-9 8 33 88 48 92 7 2 41 9 77 15 156 29 407 140 568 253 49 34 58 37 118 35
35 -1 64 -4 64 -7z m-3295 -226 c20 -15 20 -15 -6 -62 -111 -200 -125 -223
-144 -227 -78 -15 -87 -15 -81 1 9 23 199 304 205 304 3 0 15 -7 26 -16z
m3139 -128 c118 -178 118 -178 75 -170 -81 13 -63 -8 -198 236 -26 47 -26 47
-6 62 11 9 23 16 26 16 4 0 50 -65 103 -144z m-3061 88 c18 -9 33 -18 35 -19
2 -2 -18 -49 -43 -106 -26 -57 -56 -124 -66 -149 -15 -35 -31 -52 -69 -73
l-50 -28 0 56 c0 32 7 70 16 88 29 58 137 247 141 247 2 0 18 -7 36 -16z
m2954 -91 c90 -160 93 -167 93 -228 l0 -56 -50 28 c-38 21 -54 38 -69 73 -11
25 -40 92 -65 149 -26 57 -45 105 -44 106 7 6 64 34 69 35 3 0 33 -48 66 -107z
m-2817 25 c0 -4 -29 -78 -65 -163 -36 -86 -65 -160 -65 -164 0 -4 -6 -16 -14
-26 -13 -18 -15 -15 -40 33 -14 28 -26 56 -26 61 0 5 15 42 33 83 19 40 49
105 66 144 l33 72 39 -17 c21 -9 39 -19 39 -23z m2750 -161 c22 -49 40 -93 40
-98 0 -21 -52 -111 -60 -103 -7 8 -51 112 -138 327 -8 20 -13 38 -11 40 2 1
20 10 39 19 l35 16 27 -57 c16 -31 46 -96 68 -144z m-2546 -92 c43 -65 16
-164 -50 -185 -41 -14 -84 -6 -84 15 0 10 11 15 33 15 18 0 42 6 52 14 24 17
13 46 -17 46 -31 0 -52 15 -43 30 5 8 21 10 51 5 41 -6 44 -5 44 17 -1 28 -17
50 -48 67 -12 7 -20 16 -17 22 8 12 61 -19 79 -46z m2240 29 c-37 -25 -54 -48
-54 -71 0 -23 2 -24 44 -18 30 5 46 3 51 -5 9 -15 -12 -30 -43 -30 -30 0 -41
-29 -17 -46 10 -8 34 -14 52 -14 40 0 45 -25 7 -34 -70 -18 -143 56 -129 132
8 44 25 69 61 93 31 20 58 13 28 -7z m-1863 -156 c33 -40 25 -45 -63 -36 -88
9 -128 5 -128 -13 0 -16 48 -52 89 -67 44 -16 132 -17 160 -3 14 8 22 8 27 0
14 -24 -18 -34 -109 -34 -99 1 -138 15 -199 73 -26 24 -30 24 -55 11 -45 -24
-122 -99 -149 -145 -17 -28 -33 -44 -46 -44 -15 0 -18 4 -12 23 23 76 103 166
186 208 54 28 142 47 216 48 54 1 67 -2 83 -21z m1617 7 c82 -19 126 -43 191
-101 49 -44 79 -89 95 -141 6 -19 3 -23 -12 -23 -13 0 -29 16 -46 44 -27 46
-104 121 -149 145 -24 13 -29 11 -69 -21 -70 -55 -93 -63 -189 -63 -87 0 -119
11 -105 34 5 8 13 8 27 0 28 -14 116 -13 160 3 41 15 89 51 89 67 0 18 -40 22
-127 13 -46 -4 -83 -4 -83 1 0 4 8 19 18 32 15 21 25 24 77 25 33 0 88 -7 123
-15z"/>
<path d="M10185 13008 c-64 -127 -108 -183 -244 -318 -256 -255 -600 -491
-1027 -707 l-191 -96 -117 41 c-65 23 -124 42 -131 42 -8 0 -19 -9 -25 -19
-10 -19 -7 -32 77 -388 14 -59 14 -64 -13 -160 -27 -92 -29 -113 -34 -338 l-5
-240 -27 -13 c-33 -16 -33 -11 -58 -322 -12 -135 -23 -268 -26 -295 l-6 -50
61 -54 c131 -114 155 -258 64 -385 l-35 -49 48 -119 c72 -179 77 -186 154
-211 176 -59 332 -193 413 -355 25 -51 49 -108 53 -127 6 -36 27 -61 42 -51 5
3 15 53 22 111 l12 106 -49 52 c-28 29 -61 70 -75 92 -59 95 -80 235 -44 304
16 30 17 39 5 73 -17 52 -84 126 -134 149 -49 23 -116 24 -155 4 -36 -19 -42
-51 -7 -40 89 28 127 10 127 -61 0 -35 -5 -47 -32 -69 -35 -30 -79 -30 -124 0
-53 34 -93 163 -74 235 23 87 68 130 133 130 85 -2 156 -52 232 -166 120 -179
252 -249 470 -247 178 1 340 59 531 189 52 35 103 64 114 64 27 0 52 -42 48
-82 l-3 -33 -75 0 c-62 -1 -84 -6 -129 -29 -120 -62 -218 -208 -228 -339 -3
-44 -1 -67 10 -81 13 -18 18 -18 227 7 235 28 247 32 234 92 -16 77 -71 125
-143 125 -33 0 -47 -7 -75 -35 -38 -38 -56 -44 -56 -20 0 27 28 73 58 94 75
53 177 25 220 -59 12 -25 29 -45 37 -45 8 0 25 20 37 44 32 63 68 86 132 86
61 0 115 -33 136 -85 20 -48 -1 -60 -37 -20 -70 78 -192 42 -222 -65 -13 -46
-4 -71 27 -83 15 -6 101 -18 192 -27 91 -9 177 -19 191 -22 60 -12 76 66 38
180 -37 112 -103 195 -198 249 -50 29 -65 33 -134 34 -88 1 -100 9 -86 56 21
75 45 75 159 -2 183 -123 333 -179 505 -187 122 -7 191 7 286 54 81 40 149
106 214 204 118 180 281 212 353 69 36 -73 26 -165 -29 -245 -30 -43 -93 -64
-139 -45 -30 13 -60 54 -60 84 0 55 60 98 106 77 30 -13 44 -14 44 -2 0 15
-66 41 -104 41 -56 0 -131 -43 -171 -98 -44 -60 -52 -100 -31 -152 44 -109 -2
-267 -110 -380 -63 -67 -66 -88 -29 -257 9 -38 33 -27 45 20 6 23 31 83 55
132 77 162 225 294 397 356 46 17 88 37 94 45 6 8 35 77 64 155 l53 141 -22
26 c-58 71 -76 164 -50 257 15 52 67 122 119 160 l41 30 -6 95 c-7 108 -43
488 -51 538 -3 22 -13 36 -28 42 -21 8 -23 16 -29 107 -4 54 -7 153 -7 220 0
105 -4 139 -30 233 -16 61 -30 123 -30 138 0 37 88 384 101 397 12 12 11 42
-2 51 -12 7 -37 0 -178 -47 l-84 -28 -51 21 c-73 28 -382 184 -441 222 -27 18
-75 48 -105 66 -276 167 -534 363 -680 516 -77 81 -127 159 -191 299 -20 43
-41 81 -47 83 -5 1 -31 -39 -57 -90z m254 -427 c183 -61 331 -174 430 -325 90
-138 126 -276 118 -445 -10 -223 -93 -407 -261 -579 -69 -72 -193 -163 -288
-212 -69 -36 -73 -28 -87 165 -11 162 -47 370 -76 438 -21 50 -49 50 -70 0
-29 -68 -65 -276 -76 -438 -14 -193 -18 -201 -87 -165 -221 117 -381 277 -471
472 -53 114 -73 193 -78 323 -8 171 33 317 128 456 109 160 274 273 483 330
102 28 213 21 335 -20z m1476 -723 c-3 -13 -21 -90 -40 -172 -19 -83 -39 -154
-43 -158 -5 -5 -53 -19 -108 -33 -239 -58 -493 -170 -749 -332 -257 -162 -404
-279 -602 -481 l-142 -145 -133 135 c-259 262 -553 473 -883 633 -173 84 -328
143 -468 176 -64 16 -102 30 -108 41 -14 26 -90 341 -83 347 3 3 35 -2 72 -12
176 -45 620 -312 1030 -619 191 -143 295 -230 437 -370 79 -78 116 -108 134
-108 17 0 60 35 155 128 72 70 176 163 231 207 55 44 102 83 105 86 29 36 559
407 686 480 221 128 275 155 373 185 130 40 143 41 136 12z m-5 -835 l0 -196
-179 7 c-227 9 -215 17 -209 -143 4 -103 8 -123 33 -174 33 -67 66 -98 127
-122 37 -14 49 -14 83 -3 24 8 41 20 43 31 3 16 0 18 -20 11 -12 -5 -40 -9
-62 -8 -49 0 -66 22 -66 88 0 47 3 53 50 98 43 41 56 48 90 48 70 0 135 -44
173 -115 16 -29 21 -59 22 -111 0 -62 -3 -75 -28 -107 -56 -73 -156 -97 -260
-61 -52 17 -151 107 -177 159 -28 58 -104 145 -169 195 -131 101 -266 152
-406 153 -195 1 -320 -59 -451 -218 -94 -115 -179 -275 -232 -440 -16 -49 -34
-91 -40 -93 -6 -2 -16 15 -22 38 -21 79 -78 216 -125 301 -110 201 -242 335
-374 379 -193 64 -417 20 -603 -119 -63 -47 -150 -146 -178 -202 -26 -50 -106
-130 -155 -154 -30 -15 -61 -20 -121 -20 -73 0 -84 3 -117 28 -57 43 -70 77
-65 168 6 94 33 144 103 185 56 32 108 29 160 -11 44 -33 65 -73 65 -124 0
-63 -48 -94 -111 -72 -40 14 -39 14 -39 -5 0 -21 64 -46 98 -38 42 10 105 49
128 81 43 59 59 122 59 234 0 77 -4 111 -14 123 -13 16 -31 16 -192 10 l-177
-7 -7 114 c-3 63 -5 150 -3 194 l3 80 64 -2 c93 -3 306 -48 456 -98 221 -73
373 -143 647 -303 32 -18 152 -105 253 -182 107 -83 229 -228 241 -289 8 -36
31 -61 38 -40 3 8 10 31 16 52 20 64 131 195 237 278 278 219 572 383 877 488
151 52 395 107 489 110 l47 1 0 -197z m-2253 -515 c73 -36 182 -132 249 -220
53 -70 157 -270 152 -292 -2 -13 -16 -8 -68 24 -94 58 -260 125 -386 157 -99
25 -126 27 -294 27 -146 1 -198 -3 -246 -17 -34 -9 -67 -17 -73 -17 -55 0 107
207 224 286 143 96 312 116 442 52z m1478 12 c79 -30 169 -94 241 -174 60 -65
113 -150 102 -161 -4 -4 -42 2 -85 12 -117 27 -365 25 -491 -5 -162 -39 -333
-107 -426 -171 -24 -17 -51 -31 -60 -31 -13 0 -13 5 -2 38 75 212 280 450 436
506 64 23 205 16 285 -14z m-1485 -471 c185 -37 428 -145 414 -184 -7 -18
-115 -88 -184 -118 -106 -47 -255 -77 -373 -77 -128 1 -275 55 -389 145 -56
44 -138 137 -138 156 0 6 24 21 54 34 166 74 392 90 616 44z m1590 17 c122
-20 240 -63 240 -87 0 -20 -58 -95 -100 -129 -105 -87 -202 -140 -291 -160
-83 -18 -293 -8 -389 19 -143 41 -311 139 -297 174 8 22 190 108 296 141 172
54 373 70 541 42z"/>
<path d="M10160 12535 c-242 -53 -426 -189 -522 -386 -51 -104 -69 -184 -69
-304 0 -217 84 -408 252 -574 54 -54 189 -154 197 -147 1 2 -29 45 -68 97
-120 160 -179 298 -201 468 -35 275 94 520 338 640 130 64 177 63 320 -7 80
-39 191 -137 235 -207 75 -120 108 -278 89 -423 -22 -171 -82 -312 -201 -471
-39 -52 -69 -95 -67 -97 8 -8 152 101 204 154 113 114 192 253 227 396 22 91
23 252 1 337 -22 85 -79 199 -131 264 -91 111 -240 206 -384 244 -110 29 -148
31 -220 16z"/>
<path d="M10158 12276 c-217 -92 -338 -273 -338 -506 0 -103 30 -216 90 -336
47 -95 126 -212 137 -201 2 3 11 58 19 122 l16 117 -31 27 c-38 34 -78 120
-86 185 -21 171 127 369 275 369 148 0 296 -198 275 -369 -8 -65 -48 -151 -86
-185 l-31 -27 16 -117 c8 -64 17 -119 19 -122 11 -11 90 106 137 201 109 220
119 420 30 597 -44 86 -137 175 -233 223 -100 49 -136 53 -209 22z"/>
<path d="M10177 11954 c-115 -60 -169 -228 -109 -343 10 -19 23 -36 28 -38 5
-2 20 26 33 63 32 90 62 124 111 124 49 0 79 -34 111 -124 13 -37 28 -65 33
-63 5 2 18 19 28 38 60 117 6 284 -112 344 -60 30 -63 30 -123 -1z"/>
<path d="M10035 9025 c-183 -33 -352 -114 -461 -220 -96 -93 -96 -103 -6 -193
105 -106 240 -180 417 -229 89 -25 117 -28 250 -28 133 0 161 3 250 28 171 47
316 126 418 228 67 68 80 94 62 129 -15 28 -68 80 -130 127 -86 65 -257 134
-395 159 -94 17 -312 16 -405 -1z m400 -140 c108 -19 223 -63 294 -112 79 -55
84 -68 41 -105 -55 -47 -226 -125 -325 -148 -124 -30 -296 -30 -420 -1 -99 24
-269 102 -325 149 l-35 30 20 22 c31 35 117 88 186 117 149 60 380 80 564 48z"/>
<path d="M10045 8780 c-82 -3 -157 -9 -166 -13 -22 -11 -42 -50 -37 -73 7 -36
49 -39 195 -14 194 33 214 34 311 17 244 -45 262 -45 282 -6 13 23 -6 61 -37
77 -24 12 -360 19 -548 12z"/>
<path d="M7535 8973 c-37 -20 -46 -33 -35 -52 28 -52 183 -246 197 -246 9 0
21 8 27 17 8 14 5 22 -14 43 -13 14 -34 25 -46 25 -30 0 -68 48 -53 66 26 32
90 6 139 -56 l33 -41 38 37 c22 21 39 46 39 56 0 27 -95 117 -153 144 -61 28
-128 31 -172 7z m162 -23 c46 -20 143 -105 143 -124 0 -7 -13 -25 -29 -40
l-29 -28 -18 26 c-9 15 -37 38 -61 53 -42 24 -63 26 -105 8 -12 -5 -25 4 -47
36 -38 52 -39 65 -3 77 43 16 104 13 149 -8z"/>
<path d="M12772 8965 c-59 -27 -152 -115 -152 -142 0 -11 17 -36 39 -57 l38
-37 33 41 c48 61 109 87 138 58 16 -16 -22 -68 -52 -68 -12 0 -33 -11 -46 -25
-19 -21 -22 -30 -14 -43 22 -34 40 -21 120 85 129 172 127 166 67 197 -46 23
-109 20 -171 -9z m157 -6 c39 -14 39 -25 0 -78 -22 -32 -35 -41 -47 -36 -42
18 -63 16 -105 -8 -24 -15 -52 -38 -61 -53 l-18 -26 -29 28 c-16 15 -29 33
-29 40 0 19 97 104 143 124 48 22 99 25 146 9z"/>
<path d="M10932 8450 c-24 -17 -84 -53 -135 -80 -388 -207 -853 -185 -1220 57
-101 67 -116 52 -72 -76 73 -215 234 -475 405 -655 52 -54 70 -67 86 -62 25 8
58 75 74 150 35 171 -72 343 -200 324 -33 -4 -36 -26 -6 -40 34 -15 43 -51 22
-83 -13 -19 -25 -25 -55 -25 -77 0 -127 77 -101 156 23 68 83 104 174 104 187
0 316 -164 316 -402 0 -92 -20 -172 -66 -259 -23 -43 -34 -75 -30 -87 4 -11
26 -41 50 -66 58 -63 81 -62 140 8 25 29 46 59 46 67 0 7 -18 49 -39 94 -45
92 -61 159 -61 253 1 125 43 241 114 313 53 54 99 73 188 77 97 5 147 -19 179
-84 44 -93 -24 -193 -116 -170 -51 13 -58 86 -10 108 43 19 31 38 -23 38 -106
0 -185 -106 -186 -249 0 -109 46 -231 89 -231 28 0 201 204 299 355 50 76 155
298 186 392 22 66 23 74 9 88 -14 14 -20 12 -57 -15z"/>
<path d="M10162 7120 c-11 -18 -25 -20 -214 -22 l-203 -3 -28 -224 c-16 -129
-24 -228 -19 -233 5 -5 29 2 57 16 91 49 182 27 223 -54 48 -93 13 -242 -76
-322 -54 -49 -139 -88 -206 -95 -38 -4 -56 -10 -56 -19 0 -17 31 -18 137 -3
155 21 303 80 391 155 53 45 92 124 92 184 0 96 -43 161 -134 202 -44 20 -67
23 -166 23 -104 -1 -121 -3 -174 -28 -32 -15 -60 -26 -61 -25 -6 9 23 200 32
209 7 7 83 10 232 7 l221 -3 0 51 c0 28 -3 85 -6 127 -7 79 -18 94 -42 57z"/>
<path d="M10655 7082 c-44 -16 -114 -29 -187 -35 -85 -8 -118 -15 -118 -24 0
-7 8 -13 19 -13 36 0 78 -22 90 -46 7 -16 11 -108 11 -268 0 -231 -1 -245 -21
-270 -13 -17 -34 -28 -60 -32 -22 -4 -39 -12 -39 -20 0 -10 47 -13 230 -12
189 0 230 3 230 14 0 8 -9 14 -20 14 -11 0 -28 9 -38 20 -15 18 -18 56 -22
358 l-5 338 -70 -24z"/>
</g>
</svg>
