<svg version="1.2" baseProfile="tiny-ps" xmlns="http://www.w3.org/2000/svg" viewBox="0 0 820 836" width="820" height="836">
	<title>received_2647967545502699-svg</title>
	<style>
		tspan { white-space:pre }
		.shp0 { fill: #000000 } 
	</style>
	<g id="Layer">
		<path id="Layer" class="shp0" d="M482 18.3C482 19.1 483.1 20.1 484.5 20.4C485.9 20.8 487.2 22 487.5 23.3C487.8 24.5 486 36 483.5 48.8C477.2 81.3 477.5 87.7 485.8 95.2C492 100.8 499.7 103.3 511.2 103.4C520.4 103.5 521 103.4 525.2 100.5C532.4 95.4 535.3 88.2 540.5 62.8C542.9 50.9 545.6 39.8 546.5 38.1C547.4 36.2 549.1 34.8 551.1 34.3C552.8 33.8 554.2 33.1 554.3 32.6C554.5 31.4 534.1 27.1 533.4 28.1C533.2 28.6 534.3 29.6 535.9 30.5C539.7 32.4 542 35.7 542 39.3C542 44.4 534 82.2 531.8 87.5C527.6 97.4 521.1 101.8 511.9 100.7C503.4 99.7 500 95.7 500 86.8C500 80.4 509.8 30.7 511.5 28.3C512.3 27.2 514.1 26.6 516.4 26.6C518.7 26.6 520 26.1 520 25.3C520 24.6 519.1 24 518.1 24C516.1 24 487 18.4 483.8 17.4C482.6 17.1 482 17.4 482 18.3Z" />
		<path id="Layer" fill-rule="evenodd" class="shp0" d="M371 25.1C373.4 25.1 373.4 25.1 370 28C366.7 30.7 366.5 31.2 366.6 36.7C366.7 41.4 371.2 75.7 373.5 89.6C374 92.6 373.9 92.8 369.9 93.3C365.7 93.8 365.5 93.7 355.1 84.7C349.3 79.7 344.3 75.3 344 75C343.7 74.7 338.8 70.4 333 65.5C327.2 60.5 320.9 55 319 53.3C317.1 51.5 315.4 50.5 315.2 51C314.7 52.4 320.1 89.3 321 91.1C322.5 93.8 324.6 95 329.1 95.8C335.4 96.9 334.1 98.4 326.2 99.2C318.4 100 291 107 281.3 110.7C279 111.6 279.9 108.5 282.3 107.5C286 105.8 285.5 102.7 280.4 96.4C277.8 93.1 275.2 89.9 274.5 89.2C273.3 87.9 271.9 88.2 256 92.9C253.8 93.5 253.5 94.3 253.2 99.1C252.7 107 254.3 111.6 258.1 112.9C259.8 113.5 262.3 113.7 263.6 113.4C265.3 113 266 113.2 266 114.3C266 115.1 264.7 116 262.8 116.3C252.3 118.3 240 122.6 228.1 128.5C215.5 134.7 210.2 136.2 216.3 131.8C218 130.6 219 128.9 219 127.4C219 126 215.3 117.2 210.7 107.7C206.1 98.2 200.4 86.3 197.9 81.2C193.5 71.9 191.7 69.7 192.5 74.7C193.6 81.1 198.2 143.2 197.6 143.7C197.3 144.1 196.2 143.7 195.3 142.8C194.3 142 186.1 135.1 177 127.5C167.9 119.8 155.6 109.4 149.6 104.2C143.7 99.1 138.6 95.1 138.4 95.3C138.1 95.5 143.8 107.7 151.1 122.4C159.8 140.3 165 149.6 166.6 150.7C168.3 151.8 170.4 152.1 173.5 151.8C176.9 151.4 178 151.6 178 152.6C178 153.4 177.6 154 177.1 154C176.5 154 172.3 155.9 167.5 158.2C162.8 160.4 158.7 162 158.4 161.7C158.1 161.4 158.8 159.8 160.1 158.1C163.1 154.1 162.6 152.2 153.4 133.3C149.2 124.6 143.8 113.2 141.3 108C138.8 102.8 135.7 97 134.3 95.2C132.1 92.3 131.5 92 128.4 92.6C126.5 92.9 125 92.8 125 92.4C125.1 91.3 152.7 77.7 153.9 78.2C154.8 78.5 170.5 91.5 184.7 103.9C188.8 107.4 192.3 110 192.6 109.7C192.9 109.5 192.2 98.3 191 85C189.9 71.6 189.1 60.6 189.2 60.5C189.4 60.4 195.2 57.4 202.2 53.9C214.4 47.8 219.3 46.6 213.6 51.1C211.4 52.8 210.9 53.9 211.3 55.9C212.4 61.1 239.9 115.9 242 117C247 119.7 248.1 115.8 253 79C255.3 61.7 257.3 47.3 257.5 47.2C257.7 47 259.6 46.6 261.7 46.4C265.3 46 265.7 46.2 269.2 50.7C271.3 53.3 274 56.6 275.2 58C276.5 59.4 281.6 65.2 286.5 71C307.3 95.2 309.9 98 312.2 98C315.5 98 317 95.5 317 90C317 83.7 311.3 42.3 310 39.3C309.4 37.8 308.1 37 305.9 36.8C299.1 36.2 302.2 34.4 312.2 33.2C317.9 32.5 323.4 31.7 324.5 31.4C326.4 30.9 331.6 34.8 347.5 48.8C349.2 50.3 353.9 54.4 358 58C362.1 61.6 365.8 64.9 366.2 65.5C368 67.9 365.2 44.3 362.9 36.8C361.6 32.8 357.4 30 352.6 30C348.2 30 349.7 28.2 354.8 27.5C357.4 27.1 361.5 26.5 364 26C366.5 25.6 369.6 25.2 371 25.1ZM256.6 69.2C255.9 71.5 253.8 90.1 254.2 90.6C255 91.3 270.5 86.3 270.5 85.3C270.5 84.7 268.9 82.3 267 80C258.2 69.1 257 67.8 256.6 69.2Z" />
		<path id="Layer" fill-rule="evenodd" class="shp0" d="M409.3 25L417.5 25L421.9 35.3C434.5 64.2 445.2 86.7 447.5 88.7C448.9 89.9 450 91.2 450 91.5C450 91.8 441.9 92 432 92C422.1 92 414 91.6 414 91.2C414 90.8 415.4 89.9 417 89.3C420.9 87.8 420.9 85.1 416.9 75.4L413.8 68L392.9 68L391.5 71.2C387.5 80.9 388.8 87.3 395.1 89.2C397.3 89.8 399 90.7 399 91.2C399 91.6 393.8 92 387.5 92C381.2 92 376 91.8 376 91.5C376 91.2 377.7 89.3 379.8 87.2C382.5 84.4 385.5 78.8 391.4 65.5C395.8 55.6 401.6 42.4 404.3 36.2L409.3 25ZM403.9 45.6C403.4 45 401.7 47.6 400 51.6C398.3 55.4 396.2 59.9 395.4 61.7C394.6 63.4 394 65.1 394 65.4C394 65.7 398.1 66 403 66C408 66 412 65.6 412 65.1C412 64.6 410.4 60.2 408.4 55.3C406.3 50.5 404.3 46.1 403.9 45.6Z" />
		<path id="Layer" fill-rule="evenodd" class="shp0" d="M559.4 45C561.5 45 595.5 57.2 601.7 60.2C616.5 67.3 621.4 76.2 615.9 86C612.2 92.6 602 95.2 589.5 92.7L585.5 91.9L591 95C594 96.6 598 99.6 599.8 101.6L603.2 105.2L603 114.8C602.7 127.4 602.6 127 605.3 127C608.1 127 612.4 124 627.6 111.9C654.5 90.4 660.3 85.9 660.9 86.2C661.2 86.4 662.8 87.2 664.3 88C667 89.3 667.1 89.6 666.6 95.4C666.3 98.8 665.3 114 664.4 129.3C663.2 149.9 663.1 157.9 663.9 160.2C664.5 161.9 664.8 163.6 664.5 163.8C664.2 164.1 662.1 163.3 659.7 162C657.4 160.7 650.4 157 644.3 153.8C633.1 147.9 630 145.2 636 146.5C637.9 146.9 639.6 146.7 640.5 146C641.8 144.9 642.2 143.2 643.5 131.5L644 126.4L634.6 121.5L625.1 116.5L620.9 120.5C613.9 127.2 612.7 133.1 617.6 136.9C620.1 138.8 620.6 140 619.1 140C618.7 140 615 138.2 611.1 136C607.1 133.9 601.4 131.6 598.4 131.1C590.9 129.7 586.4 127.4 583.3 123.3C580.8 120 580.7 119.7 581.6 110.2C582.8 95.6 582.7 94 580 91.8C576.1 88.7 574.8 89.9 571.3 99.5C566.3 113.3 566.3 113.6 570 117C574 120.7 572.4 120.8 563.4 117.4C559.6 115.9 552.2 113.3 547 111.5C537.5 108.1 533.6 105.3 540.1 106.5C545.7 107.4 545.9 107 552.9 87.3C555.6 79.7 559.4 69 561.4 63.6C563.4 58.1 565 52.8 565 51.9C565 50.9 563.5 49 561.8 47.6C560 46.2 558.9 45 559.4 45ZM586 60C584.6 62.7 577.2 83.1 576.8 85.5C576.6 87.1 577.3 87.6 580.8 88.4C587.3 89.8 591.1 87.6 594.4 80.5C599.4 70.1 598.9 61.7 593.3 59.1C589.7 57.5 587.2 57.8 586 60ZM645.3 101C644.3 101.1 628.6 113.7 628.2 114.8C628 115.4 641.8 123 643.3 123C643.8 123 644.1 120.7 645.5 106.7C645.8 103.6 645.7 101 645.3 101Z" />
		<path id="Layer" fill-rule="evenodd" class="shp0" d="M410 110C410.5 110 411.7 111.5 412.6 113.2C417.3 122.5 428.5 137.9 438.7 149.2L443 153.9L444.6 151.1C445.5 149.5 447.6 147.5 449.1 146.6C452.8 144.4 452.7 142.9 449 138.7C447.4 136.8 446 135 446 134.6C446 133.5 457.9 134 458.6 135.1C458.9 135.7 458 137.4 456.6 138.9C453.1 142.6 453.2 145.4 457.1 147C460.8 148.6 463.1 151.9 463.9 156.8C464.9 162.6 467.7 161.7 471.9 154.4C476.4 146.7 482 139.3 484 138.5C487 137.2 496.5 151.7 500.8 164C502.2 167.8 503.5 167.8 505.5 164C507.5 160.2 510.9 157 513.1 157C515.6 157 516.3 152.6 514.4 148.9C513.6 147.2 513.1 145.6 513.4 145.3C513.7 145 516.3 145.4 519.2 146.2C525.7 148 526.6 150.3 521.7 152.4C516.9 154.3 516.4 155.7 519.1 158.7C521 160.6 521.5 162.3 521.5 166.3C521.5 170.9 521.7 171.5 523.8 171.8C525.3 172 527.1 171 529.8 168.2C535.4 162.3 542.8 157 545.6 157C547.4 157 548.3 157.9 549.4 160.4C551.1 164.5 554 178.1 554 182.1C554 183.7 554.2 185 554.5 185C554.8 185 557 183 559.3 180.5C561.7 178 564.5 176 565.5 176C567.1 176 567.2 175.4 566.6 170.5C566.2 166.9 566.3 165 567 165C568.8 165 576 169 576 170C576 170.5 574.4 171.6 572.5 172.4C569.1 173.8 567.9 176.2 570 177.5C571.3 178.3 571.3 185.6 569.9 188.2C568.6 190.7 569.6 191.8 571.8 190.3C576.2 187.3 585.9 182.1 589.4 181C592.6 180 593.4 180 594.1 181.1C595.2 182.9 595.2 191.8 594 200C593 206.9 593.3 208.2 595.3 205.8C597.3 203.3 601.3 201 603.7 201C606.3 201 608 198.3 608 194.1C608 189.8 609.1 189.7 613.3 193.6C617.4 197.5 617.3 199 613.1 199C609.3 199 608.1 200.6 608.7 204.9C609.1 207.9 608.7 209.2 606.5 211.8C603 215.9 603.7 216.7 608.7 214.2C613.8 211.6 624.7 208 627.7 208C629.8 208 630 208.4 630 212.9C630 215.5 629.3 221.7 628.5 226.5C627.6 231.3 627.2 235.5 627.4 235.8C627.7 236 628.6 235.5 629.5 234.7C630.4 233.8 632.7 232.8 634.8 232.5C640.2 231.6 641.2 230.8 642.4 226.5C643.8 221.5 645.2 221.2 648.4 225C651.9 229.2 651.8 231 647.9 231C643.2 231 640.7 232.7 641.4 235.5C642.1 238.3 640.9 242 638.5 244.4C635.9 247 637.2 247.3 643.2 245.5C646.1 244.6 652.1 243.6 656.4 243.3L664.3 242.7L663.6 247.1C663.2 249.5 661.1 255.1 659 259.4C656.8 263.8 655.2 267.6 655.5 267.8C655.7 268 657.2 267.3 658.8 266.1C660.5 264.9 663.2 264 664.8 264C669.4 264 670.8 263.1 672 259.4C673.4 255.2 674.3 255.2 676.9 258.9C680.2 263.5 679.7 264.8 674.4 265.2C670 265.5 669.7 265.7 668.4 269.5C667.7 271.6 666.1 274.3 664.8 275.3C662.5 277.1 662.5 277.1 668 276.4C676 275.4 688 275.6 689.2 276.8C690.6 278.2 688.9 282.9 683.5 292.5C681 296.8 679 300.5 679 300.8C679 301 680.5 300.8 682.3 300.4C684 300 687.3 299.7 689.6 299.8C693 300 693.8 299.7 695 297.5C696.7 294.3 697.6 294.3 699.5 298C701.7 302.3 701.4 303 697.3 302.7C694.1 302.5 693.5 302.8 693.2 304.7C693 306 691 308.5 688.8 310.5C686.1 312.8 685.2 314.1 686.1 314.4C686.9 314.6 690.9 315.5 695 316.4C703.1 318.2 709 321.1 709 323.3C709 324.1 707 326.8 704.6 329.4C701.2 333.1 699.8 334 697.9 333.6C696.6 333.3 691.9 332.9 687.5 332.6C671.1 331.4 655.3 325 645.9 315.8C639.8 309.9 627.6 296.4 612 278.2L601.5 266L600.3 268.9C597.9 274.7 597.9 276.4 600.2 279.1C601.5 280.5 606.3 286.1 611 291.5C615.7 296.9 622.9 305.2 627 309.9C644.9 330.5 652.3 335.6 671.5 340.6C680.2 342.9 683.4 343.2 696 343.1C704 343.1 711.8 342.9 713.5 342.8C717 342.4 716.9 341.9 719.9 366.5C722.2 385.5 723.4 403.1 722.6 405.8C722 407.5 720.7 407.9 713.5 408.5L705.1 409.2L703.7 413.9C702.5 417.9 702.6 419.1 704 423.5L705.7 428.5L712.6 428.8C716.4 429 719.8 429.4 720.2 429.8C722.7 432.3 712.5 488.9 708.1 496.7C707.3 498.1 704.9 498.4 691.4 498.6C677.7 498.8 674.2 499.2 666 501.4C648 506.4 638.3 512.7 618.3 532.5L606.1 544.5L606.8 550.5L607.6 556.5L617 547.4C635.5 529.7 636.7 529 638.4 534.8C639 537 638.9 539.7 638.2 542.8C637.2 547.3 637.2 547.6 640 550.4C643.3 553.7 644.5 553.3 646 548.2C647.6 542.3 647.2 535.3 644.9 529.9C642.8 525 642.8 524.9 644.6 523.4C653.2 516.6 663.8 512.5 677.5 510.8C687.9 509.5 701.9 510.4 702.6 512.5C703.6 514.9 690.7 541 688.6 541C688 541 685 540.3 682 539.5C671 536.5 659.5 540.3 649.8 550.2C646.6 553.4 643.7 556 643.2 556C642.8 556 640.7 554.2 638.6 552.1C635 548.4 634.8 548 635.9 544.9C637.2 541 637.3 536 636 534C634.7 531.9 634 533.1 633.5 538C632.9 543.6 631.3 545.6 629 543.5C628.1 542.7 626.9 542 626.4 542C625.9 542 621 546.3 615.5 551.4C605.6 560.7 605.5 560.8 607.4 562.9L609.3 564.9L613.3 561.5C615.5 559.6 617.9 558 618.5 558C619.1 558 621.8 560.2 624.5 563C627.2 565.7 629.7 568 630 568C630.3 568 632 566.6 633.8 564.9L637.1 561.8L634.9 559.4C632.9 557.2 632.5 557.2 631 558.5C630.1 559.3 628.7 560 628 560C626.1 560 622 556 622 554.2C622 552.5 624.8 549 626.2 549C627.5 549 639 560.1 639 561.4C639 563 631.8 570 630.1 570C629.2 570 626.2 567.6 623.3 564.8L618 559.6L614.4 563.1L610.8 566.7L618.5 574.8L626.2 583L631 579C633.6 576.8 636.2 575 636.6 575C637.1 575 640.8 578.3 644.8 582.3L652.1 589.5L655.1 586C656.7 584.1 658 582.1 658 581.5C658 580.9 656.5 578.9 654.6 577.1L651.2 573.8L648.9 575.9C645.8 578.7 645 578.6 641 574.5L637.6 571L640.5 568C642.1 566.4 643.8 565 644.4 565C646.1 565 660 579.3 660 581.1C660 583.4 654.3 591 652.5 591C651.7 591 647.7 587.8 643.6 584L636.3 577L632.1 580.6C628.5 583.8 628 584.7 628 588.6C628 595 629.4 597.6 634.4 600.5C637 602 639 603.8 639 604.5C639 605.8 634 610 632.5 610C632.2 610 630.8 607.6 629.5 604.6C626.7 598.3 626.6 598.2 620.8 597.4C617 596.9 616.1 597.2 613.1 599.8L609.7 602.8L613.1 607.1C615 609.5 617.8 613 619.5 614.8C621.1 616.7 622.5 618.6 622.5 619.1C622.5 619.6 620.3 621.8 617.5 624L612.5 627.9L610.2 625.7C606.4 622.2 600 613.4 600 611.8C600 611 601.1 609.8 602.4 609.2C604.5 608.3 605.2 608.5 607.4 610.5C610 612.9 610.9 616 609 616C606.8 616 606.9 619 609.1 621.9C610.4 623.6 611.8 625 612.3 625C613.4 625 620 620 620 619.1C620 618.7 617.3 615.3 614 611.4C610.8 607.6 608.1 604 608 603.4C608 602.7 609.4 600.9 611.1 599.2L614.3 596.1L611.9 593.3C610.6 591.8 606.9 588.1 603.7 585.1L597.9 579.6L592.7 584.8L597.9 590.6C600.7 593.8 603 597 603 597.7C603 598.9 597.3 604.7 594.5 606.3C592.9 607.2 582 594.4 582 591.6C582 590.7 583 589.5 584.3 589C586.1 588.3 587 588.7 589.3 591.1C592.4 594.4 592.7 595.8 590.5 596.6C588.3 597.5 588.7 599.3 591.5 602L593.9 604.3L597.4 601.4C599.3 599.8 600.9 598.2 600.9 597.9C601 597.6 598.8 594.7 596 591.6C593.3 588.5 591 585.3 591 584.6C591 583.9 592.1 582.3 593.5 581C596.4 578.3 596.6 576.8 594.5 575C593.3 574 591.5 575 584 581.1C579.1 585.1 575 588.8 575 589.2C575 590 595.8 619.1 602.1 627.2C603.7 629.2 605 631.5 605 632.3C605 633.6 597.6 639.5 595.2 640.2C594.6 640.4 592.3 638 590.2 635C586.7 629.9 586 629.4 580.9 628.4C577.9 627.8 575.2 627.5 574.8 627.7C574.3 627.9 574 630.7 574 634C574 638.3 574.6 640.9 576.5 644.1C579.2 648.8 579.5 650 578.2 650C577.7 650 576.5 648.1 575.4 645.8C574.1 642.9 572 640.7 568.2 638.3C562 634.3 561.5 634.5 558 642.1L555.6 647.2L557.8 653.3C559 656.7 560 659.8 560 660.1C560 661.4 548.9 665.3 547.9 664.3C547.1 663.5 539.3 643.8 531.4 622C527.6 611.8 526.6 610 525.1 611.5C524.5 612.1 525.1 615.4 526.6 620C527.9 624.1 529 628 529 628.7C529 629.3 527.4 630.7 525.5 631.9C520.4 634.9 520.8 637.1 526.4 636.4C530.5 635.8 530.7 635.9 531.3 638.6C532 642.2 531.7 642.7 528 643.5C523.7 644.4 524.3 645.8 529.2 646.2L533.4 646.5L536.6 657.5C540.1 669.2 540 670.4 535.2 671.2C532.3 671.8 518.5 675.5 515.9 676.5C514.8 676.9 512.8 675.6 509.9 672.7C504.1 666.9 498 664.6 489.8 665.2C485.3 665.5 482.4 666.3 479.8 668C475.3 671 472.3 675.7 473.9 677.3C475.1 678.5 477.3 677.6 482.9 673.5C487.8 669.9 495.8 670 500.6 673.6C506.1 677.9 505.2 679.5 496.3 681.3C478.8 684.9 459.9 685.7 456.4 682.9C455.7 682.3 455.5 679.9 455.8 676.7C456.2 671.9 456.8 670.9 462.4 665C468.6 658.5 479.2 645 484.2 637.5C494.3 622 505.2 600.4 509.5 587C511 582.3 512.8 578 513.4 577.4C514 576.8 517.6 575.8 521.4 575.1C534.1 572.9 552 564.3 563.6 554.9C571.1 548.8 588.1 530.4 593.7 522.2L600 513.2L594 505.9C590.7 501.8 588.4 498.2 588.8 497.8C589.2 497.4 593.4 497.7 598 498.4C604.4 499.5 606.8 499.5 607.7 498.7C608.9 497.4 617 478.9 617 477.3C617 476.7 613.4 473.5 609 470.1C604.6 466.7 601 463.2 601 462.5C601 461.4 603.3 461 611.8 460.8L622.5 460.5L624.2 453.6C625.1 449.9 626.4 442.9 627 438.1C627.7 433.4 628.7 428.9 629.3 428.2C630.1 427.2 632.3 427.1 638.1 427.6L645.8 428.2L648.3 423.3C650.8 418.4 650.8 418.3 649 414.3C647 409.9 644.9 409 635.9 409C633.3 409 630.9 408.6 630.6 408.2C630.3 407.7 629.6 403.3 629 398.4C627.3 383.7 626 379 623.6 378.5C622.4 378.3 617.3 377.4 612.1 376.6C607 375.8 602.5 374.9 602.3 374.6C601.2 373.5 603.7 371.7 612.1 367.5C618.8 364.1 621 362.5 621 361C621 358.8 615.9 343.6 614 340.1C613.3 338.7 612.2 338.1 611.2 338.4C610.3 338.7 606 339.2 601.8 339.6C592.3 340.4 591.7 339.1 598.8 333.4C606.8 326.8 607.2 326.3 606.5 324.1C605.8 321.9 595.7 306.4 592.1 302C589.4 298.8 589.5 297.3 592.5 287.6C600.2 262.9 608 236.5 608 235.2C608 233.9 605.9 233.8 593.3 234.3C585.1 234.6 574.8 235.4 570.2 236.1C562.3 237.4 561.6 237.3 554.7 235C544.5 231.5 521.4 219.6 509 211.5C471.2 186.7 436.9 154.4 418.2 125.9C415.1 121.1 411.9 116.4 411.3 115.4C410 113.5 410 113.5 408.8 115.4C408.1 116.4 404.9 121.1 401.8 125.9C387.7 147.3 370.5 165.3 339.5 190.9C319.1 207.8 289.3 225.7 268.6 233.7C258.8 237.5 258.4 237.5 240 235.1C228.3 233.5 212 233.7 212 235.4C212 236.5 220.1 263.9 227.5 287.6C230.5 297.3 230.6 298.8 227.9 302C224.3 306.4 214.2 321.9 213.5 324.1C212.8 326.3 213.2 326.8 221.3 333.4C228.3 339.1 227.7 340.4 218.3 339.6C214 339.2 209.7 338.7 208.8 338.4C207.8 338.1 206.7 338.7 206 340.1C204.1 343.6 199 358.8 199 361C199 362.5 201.2 364.1 207.9 367.5C216.4 371.7 218.8 373.5 217.7 374.6C217.4 374.9 212.2 376 206.1 376.9C199.9 377.9 194.7 379 194.4 379.3C193.9 379.8 192.6 387.1 190.3 403L189.5 408.5L185.5 408.8C174 409.5 173 409.9 171 414.3C169.2 418.4 169.2 418.4 171.7 423.3L174.2 428.2L181.9 427.6C187.7 427.1 189.9 427.2 190.7 428.2C191.3 428.9 192.3 433.4 193 438.1C193.6 442.9 194.9 449.9 195.8 453.6L197.5 460.5L208.3 460.8C216.7 461 219 461.4 219 462.5C219 463.2 215.4 466.7 211 470.1C206.6 473.5 203 476.7 203 477.3C203 478.9 211.1 497.4 212.3 498.7C213.2 499.5 215.6 499.5 222 498.4C226.6 497.7 230.8 497.4 231.2 497.8C231.6 498.2 229.3 501.8 226 505.9L220 513.2L226.3 522.2C231.9 530.4 248.9 548.8 256.4 554.9C268 564.3 285.9 572.9 298.6 575.1C302.4 575.8 306 576.8 306.6 577.4C307.2 578 309 582.3 310.5 587C318.2 610.8 338 644 356 663.3C363.2 671 363.7 671.8 364.2 676.7C364.5 680 364.3 682.3 363.6 682.9C360.1 685.6 340.4 684.9 323.8 681.4C314.8 679.5 313.9 677.9 319.4 673.6C324.2 670 332.2 669.9 337.1 673.5C342.7 677.6 344.9 678.5 346.1 677.3C347.7 675.7 344.7 671 340.2 668C337.6 666.3 334.7 665.5 330.2 665.2C322.1 664.6 316.4 666.8 310.3 672.6C307.3 675.5 305.1 676.9 304.1 676.5C301.5 675.5 287.7 671.7 284.8 671.2C280 670.4 279.9 669.2 283.4 657.5L286.6 646.5L290.8 646.2C295.7 645.8 296.3 644.4 292 643.5C288.3 642.7 288 642.2 288.7 638.6C289.3 635.9 289.5 635.8 293.6 636.4C299.2 637.1 299.6 634.9 294.4 631.8C290.4 629.5 290.5 630 293.8 618.8C295.1 614.4 295.5 611.8 294.8 611.4C293.2 610.4 292.3 611.9 288.6 622C280.9 643 273 663.4 272.2 664.2C271.3 665.1 260 661.4 260 660.2C260 659.8 261 656.7 262.2 653.3L264.4 647.2L262 642.1C258.5 634.5 258 634.3 251.8 638.3C248 640.7 245.9 642.9 244.6 645.8C243.5 648.1 242.3 650 241.8 650C240.5 650 240.8 648.8 243.5 644.1C245.4 640.9 246 638.3 246 634.1C246 630.9 245.8 628.1 245.5 627.8C245.2 627.5 242.4 627.8 239.2 628.4C233.9 629.5 233.3 629.9 229.8 635C227.8 638 225.6 640.4 224.9 640.2C222.6 639.6 215 633.7 215 632.4C215 631.7 221.8 621.9 230 610.6C238.3 599.3 245 589.7 245 589.2C245 588.8 240.9 585.1 236 581.1C228.5 575 226.7 574 225.5 575C223.4 576.8 223.6 578.3 226.5 581C227.9 582.3 229 583.9 229 584.6C229 585.3 226.8 588.5 224 591.6C221.3 594.7 219 597.6 219.1 597.9C219.1 598.2 220.7 599.8 222.6 601.4L226.1 604.3L228.5 602C231.3 599.3 231.7 597.5 229.5 596.6C227.3 595.8 227.6 594.4 230.8 591.1C233 588.7 233.9 588.3 235.8 589C237 589.5 238 590.7 238 591.6C238 594.4 227.1 607.2 225.5 606.3C222.7 604.7 217 598.9 217 597.7C217 597 219.3 593.8 222.1 590.6L227.3 584.8L222.1 579.6L216.3 585.1C213.1 588.1 209.4 591.8 208.1 593.3L205.7 596.1L208.9 599.2C210.6 600.9 212 602.7 212 603.4C211.9 604 209.2 607.6 206 611.4C202.7 615.3 200 618.7 200 619.1C200 620 206.6 625 207.7 625C208.2 625 209.6 623.6 210.9 621.9C213.1 619 213.2 616 211 616C209.1 616 210 612.9 212.6 610.5C214.8 608.5 215.5 608.3 217.6 609.2C218.9 609.8 220 611 220 611.8C220 613.4 216.6 618.2 211.2 624.2L207.8 628L205.1 626C203.7 625 201.2 623 199.5 621.7L196.6 619.3L202 612.9C205 609.4 208.1 605.7 208.9 604.7C210.3 603 210.2 602.6 207 599.8C203.9 597.1 203 596.9 199.2 597.4C193.4 598.2 193.3 598.3 190.5 604.6C189.2 607.6 187.8 610 187.5 610C186 610 181 605.8 181 604.5C181 603.8 183 602 185.6 600.5C190.6 597.6 192 595 192 588.6C192 584.7 191.5 583.8 187.9 580.6L183.7 577L176.4 584C172.3 587.8 168.3 591 167.5 591C165.7 591 160 583.4 160 581.1C160 579.3 173.9 565 175.6 565C176.2 565 177.9 566.4 179.5 568L182.4 571L179 574.5C175 578.6 174.2 578.7 171.1 575.9L168.8 573.8L165.4 577.1C163.5 578.9 162 580.9 162 581.5C162 582.1 163.3 584.1 164.9 586L167.9 589.5L175.2 582.3C179.2 578.3 182.9 575 183.4 575C183.8 575 186.4 576.8 189 579L193.8 583L201.5 574.8L209.2 566.7L205.6 563.1L202 559.6L196.7 564.8C193.8 567.6 190.8 570 190 570C188.3 570 181 563.1 181 561.4C181 560.2 192.4 549 193.6 549C195 549 198 552.3 198 553.8C198 555.9 194.1 560 192.2 560C191.3 560 189.9 559.3 189 558.5C187.5 557.2 187.1 557.2 185.1 559.4L182.9 561.8L186.2 564.9C188 566.6 189.7 568 190 568C190.3 568 192.8 565.7 195.5 563C198.2 560.2 200.9 558 201.5 558C202.1 558 204.5 559.6 206.7 561.5L210.7 564.9L212.6 562.9C214.5 560.8 214.4 560.7 204.5 551.4C199 546.3 194.1 542 193.6 542C193.1 542 191.9 542.7 191 543.5C188.7 545.6 187.1 543.6 186.5 538C186 533.1 185.3 531.9 184 534C182.7 536 182.8 541 184.1 544.9C185.2 548 185 548.4 181.4 552.1C179.3 554.2 177.1 556 176.5 556C176 556 173.6 553.9 171.4 551.2C166 545.1 157.9 540.3 150.5 538.9C145.7 538 143.4 538.1 137.7 539.5C133.9 540.4 130.7 541 130.6 540.8C127.1 536.8 116.7 514.3 117.4 512.5C118.2 510.4 132.1 509.5 142.5 510.8C156.2 512.5 166.8 516.6 175.4 523.4C177.2 524.9 177.2 525 175.1 529.9C172.8 535.3 172.4 542.3 174 548.2C175.5 553.3 176.7 553.7 180 550.4C182.8 547.6 182.8 547.3 181.8 542.8C180.5 537.2 181.7 531.5 184.2 531.5C186 531.5 189.6 534.6 202.6 547.2C207.6 552 212.1 556 212.6 556C213.1 556 213.6 553.3 213.6 550L213.8 544.1L201.6 532.2C181.4 512.5 171.8 506.4 154 501.4C145.8 499.2 142.3 498.8 128.6 498.6C115.1 498.4 112.7 498.1 111.9 496.7C107.8 489.4 97.2 432.4 99.6 430.1C99.9 429.8 103.3 429.3 107.2 429L114.3 428.5L116 423.5C117.4 419.1 117.5 417.9 116.3 413.9L115 409.3L106.8 408.6C102.3 408.2 98.3 407.7 98 407.4C95.8 405.1 101.2 346 103.9 342.8C104.3 342.4 108.7 342.5 113.8 343.1C130.9 345.2 153 341.3 167.5 333.6C174.8 329.8 188.1 316.7 201.6 300C203.1 298.1 206.4 294.2 209 291.5C223 276 222.9 276.4 219.7 268.9L218.5 266L208 278.2C192.4 296.4 180.2 309.9 174.1 315.8C164.7 325 148.9 331.4 132.5 332.6C128.1 332.9 123.4 333.3 122.1 333.6C120.2 334 118.8 333.1 115.4 329.4C113 326.8 111 324.1 111 323.3C111 321.1 116.9 318.2 125 316.4C129.1 315.5 133.1 314.6 133.9 314.4C134.8 314.1 133.9 312.8 131.2 310.5C129 308.5 127 306 126.8 304.7C126.5 302.8 125.9 302.5 122.7 302.7C118.6 303 118.3 302.3 120.5 298C122.4 294.3 123.3 294.3 125 297.5C126.2 299.7 127 300 130.4 299.8C132.7 299.7 136 300 137.8 300.4C139.5 300.8 141 300.9 141 300.6C141 300.3 139.4 297.5 137.5 294.3C132.5 286 129.5 278.1 130.8 276.8C132 275.6 143.9 275.4 152 276.4C157.5 277.1 157.5 277.1 155.2 275.3C153.9 274.3 152.3 271.6 151.6 269.5C150.3 265.7 150 265.5 145.6 265.2C140.4 264.9 140.1 264 143 259.2C145.5 255.1 146.6 255.2 148 259.4C149.2 263.1 150.6 264 155.2 264C156.8 264 159.5 264.9 161.2 266.1C162.8 267.3 164.3 268 164.5 267.8C164.8 267.6 163.2 263.8 161 259.4C158.9 255.1 156.8 249.5 156.4 247.1L155.7 242.7L163.1 243.3C167.2 243.6 173.2 244.6 176.4 245.5C179.6 246.3 182.5 246.8 182.8 246.5C183.1 246.2 182.3 244.9 181 243.5C179.3 241.7 178.6 239.7 178.6 236.9C178.5 232.4 177.1 231 172.3 231C168.2 231 168 229.3 171.6 225C174.8 221.2 176.2 221.5 177.6 226.5C178.8 230.8 179.8 231.6 185.2 232.5C187.3 232.8 189.6 233.8 190.5 234.7C191.4 235.5 192.3 236 192.6 235.8C192.8 235.5 192.4 231.3 191.5 226.5C190.7 221.7 190 215.5 190 212.9C190 208.4 190.2 208 192.3 208C195.3 208 206.2 211.6 211.3 214.2C216.3 216.7 217 215.9 213.5 211.8C211.3 209.2 210.9 207.9 211.3 204.9C211.9 200.6 210.7 199 206.9 199C202.7 199 202.6 197.5 206.7 193.6C210.9 189.7 212 189.8 212 194.1C212 198.4 213.7 201 216.4 201C218.6 201 223.6 204.1 225.2 206.4C226.6 208.5 226.9 206.2 226 200.4C224.8 193.1 224.7 183 225.9 181.1C226.6 180 227.4 180 230.6 181C235 182.4 246.7 188.7 247.6 190.1C247.9 190.6 248.8 191 249.5 191C250.6 191 250.7 190.4 250 188.4C248.7 185.1 248.7 178.3 250 177.5C252.1 176.2 250.9 173.8 247.5 172.4C245.6 171.6 244 170.5 244 170C244 169 251.2 165 253 165C253.7 165 253.8 166.9 253.4 170.5C252.8 175.4 252.9 176 254.5 176C255.5 176 258.3 178 260.7 180.5C263 183 265.2 185 265.5 185C265.8 185 266 183.7 266 182.1C266 178.1 268.9 164.5 270.6 160.4C271.7 157.9 272.6 157 274.4 157C277.1 157 284.5 162.2 290.3 168.2C292.9 170.9 294.7 172 296.3 171.8C298.2 171.5 298.5 170.9 298.5 166.3C298.5 162.3 299 160.6 300.9 158.7C303.6 155.7 303.1 154.3 298.4 152.4C293.4 150.3 294.1 148.4 300.5 146.4C303.5 145.4 306.2 144.9 306.5 145.2C306.8 145.4 306.3 147.1 305.5 148.8C303.6 152.5 304.4 157 306.9 157C309.1 157 312.5 160.2 314.5 164C316.5 167.8 317.8 167.8 319.2 164C323.5 151.7 333 137.2 336 138.5C337.9 139.3 343.5 146.6 348 154.4C352.3 161.8 355.1 162.6 356.1 156.8C356.9 152 359.2 148.5 363 146.9C366.8 145.2 366.9 142.2 363.4 138.7C362 137.3 361.1 135.6 361.5 135C362.1 134 374 133.5 374 134.6C374 135 372.7 136.8 371 138.7C367.3 142.9 367.2 145.2 370.8 146.7C372.3 147.4 374.3 149.3 375.3 150.9L377 153.9L381.3 149.2C391.5 137.9 402.7 122.5 407.4 113.2C408.3 111.5 409.5 110 410 110ZM364.8 148.2C362.6 147.8 358 154 358 157.3C358 159.9 358.1 160 364.4 160C369.2 160 371.3 159.5 373.1 158.1L375.5 156.1L373.5 152.3C372.4 150.2 370.7 148.4 369.8 148.2C368.3 147.9 368 148.6 368 151.6C368 155.9 367.3 155.8 366.7 151.5C366.5 149.8 365.7 148.4 364.8 148.2ZM450.5 148C448.9 148 445 153.5 445 155.7C445 158.2 449.4 160 455.7 160C461.8 160 462 159.9 462 157.3C462 154 457.4 147.8 455.2 148.2C454.3 148.4 453.5 149.8 453.3 151.5C452.7 155.8 452 155.9 452 151.7C452 149.1 451.6 148 450.5 148ZM333.4 153C330.4 153 319.9 171.8 316.1 184.4C314.1 190.8 313.1 206 314.6 206C314.9 206 316.4 205.3 318 204.4C320.5 202.9 320.8 202 321.3 195.6C322 187.3 326.2 172.3 329.3 166.5C332.5 160.8 334.8 160.8 340 166.7C342.3 169.3 345.1 173.3 346.2 175.5C348.8 180.6 348.5 180.3 350.8 178.9C352.7 177.7 352.8 177.3 351.5 174.3C349.4 169.4 344.5 162.7 339.3 157.6C336.7 155.1 334.1 153 333.4 153ZM486.6 153C483.5 153 471.5 167.2 468.5 174.3C467.2 177.3 467.3 177.7 469.2 178.9C471.5 180.3 471.2 180.6 473.8 175.5C474.9 173.3 477.7 169.3 480 166.7C485.2 160.8 487.5 160.8 490.7 166.5C493.8 172.3 498 187.3 498.7 195.6C499.2 202 499.5 202.9 502 204.4C503.6 205.3 505.1 206 505.4 206C505.7 206 506 202.7 506 198.6C506 186.9 500.4 171.2 491.7 158.7C489.5 155.6 487.2 153 486.6 153ZM272.4 179.5C269.8 188.1 270 205.5 272.7 213C275.1 219.7 280.2 228 280.8 226.2C281 225.5 280.4 223 279.5 220.7C277 214.6 275 202.9 275 194.9C275 187.7 276.6 179.4 278.1 178.4C279.7 177.4 287 182.1 293.3 188.2C300 194.7 305.3 202.4 306.5 207.2C307.2 210.1 310.4 211.1 311.3 208.7C312 206.7 308.5 198.4 304.7 193.3C299.8 186.6 289.2 176.7 284.5 174.3C275.7 169.9 275.2 170.1 272.4 179.5ZM537.2 173.5C531.4 176.2 520.9 185.7 515.3 193.3C511.5 198.4 508 206.7 508.7 208.7C509.6 211.1 512.8 210.1 513.5 207.3C514.7 202.5 519.4 195.6 526.1 188.8C532.6 182.4 540.2 177.4 542 178.5C543.4 179.3 545 188.5 545 195.5C545 202.9 542.9 214.7 540.5 220.7C539.6 223 539 225.5 539.2 226.2C539.8 228 544.9 219.7 547.3 213C551 202.7 549.5 178 544.8 172.2C543.4 170.6 543.4 170.6 537.2 173.5ZM232.7 194.7C231.5 195.9 232 208 233.6 215.7C235.5 224.9 239.1 232.5 242 233.3C244.5 233.9 244.5 232.9 242 228.1C238.4 220.9 236.9 215.5 236.3 207.2C235.7 198.2 235.7 198.2 241.8 200C250.3 202.4 263.3 214.2 273.6 228.9C273.8 229.1 274.6 229 275.5 228.6C277 228.1 276.9 227.6 274.9 224.3C268.2 213.2 255.3 201 245.5 196.5C240.2 194.1 234.1 193.2 232.7 194.7ZM587.5 194.5L583.5 194.3C573.6 193.7 554.6 208.5 545.1 224.3C543.1 227.6 543 228.1 544.5 228.6C545.4 229 546.2 229.1 546.4 228.9C556.7 214.2 569.7 202.4 578.2 200C584.3 198.2 584.3 198.2 583.7 207.2C583.1 215.5 581.6 220.9 578 228.1C575.4 233 575.5 233.8 578.3 233.3C582.8 232.4 588.3 213.7 587.8 201.1L587.5 194.5ZM199.7 221.7C198.3 223 199.1 234.7 201 241.3C204.4 253.5 213.7 267.3 216.7 264.9C217.7 264 217.4 263.1 215 260.3C209.9 254.5 203.6 238.8 202.8 230C202.5 226.5 202.6 226.5 206.7 226.2C209.6 226 214.3 227 221.4 229.4C232.2 233.1 235 233.7 235 232.1C235 229.4 222.2 223.9 211.6 222C204.7 220.8 200.6 220.7 199.7 221.7ZM620.5 221.5L616.5 221.3C607.9 220.9 592 225.7 586.7 230.2C583.6 232.8 583.6 232.9 585.8 233C587.1 233 592.9 231.4 598.6 229.4C605.7 227 610.4 226 613.3 226.2C617.4 226.5 617.5 226.5 617.2 230C616.4 238.8 610.1 254.5 605 260.3C602.6 263.1 602.3 264 603.3 264.9C606.4 267.4 616.3 252.2 619.5 240C620.4 236.3 621 231 620.8 227.5L620.5 221.5ZM168.7 253.7C167.2 256.1 172.2 268.8 178 277.3C181.1 281.9 191.4 292 193.1 292C194.9 292 193.9 290.3 189.9 286.5C182.2 279 173 264.5 173 259.9C173 257.8 173.3 257.7 181.3 258.3C189.8 258.9 199.4 261.9 208.3 266.7C213.8 269.8 215.7 269 211.5 265.4C207.4 262.1 200.6 258.6 193.2 256.1C186.2 253.7 169.7 252.1 168.7 253.7ZM651.5 253.5L645 253.3C636.4 253.1 627.9 255 618.9 259.3C611.1 263.1 605.1 267.4 606.3 268.6C606.7 269 609.6 267.9 612.7 266.2C621.3 261.7 634.1 258 641.1 258C646.4 258 647 258.2 647 260C647 264.7 637.2 279.9 630.1 286.3C626.2 289.8 625 292 626.9 292C628.9 292 639.4 281.4 643.1 275.6C647.3 269.2 650.7 261 651.2 256.4L651.5 253.5ZM147.2 286.9C144.5 288.3 144.5 288.2 147.5 294.2C153.7 306.4 165 319.7 168.3 318.4C169.7 317.9 168.6 316.3 162.9 310.1C159 305.9 154.5 300.2 152.9 297.5C150.3 292.9 150.2 292.4 151.7 291.2C155.7 288.2 176.6 290.3 185.7 294.7C188 295.8 189.4 296 190.1 295.3C191.7 293.7 186.5 290.5 177.9 287.7C166.7 284 153.3 283.6 147.2 286.9ZM631.7 292.3C627.7 295 629.7 296.9 634.3 294.7C643.1 290.5 663 288.3 668.1 291.1C670 292.1 670 292.2 667.3 297.1C665.8 299.9 661.3 305.6 657.3 309.8C652.4 315 650.5 317.7 651.3 318.2C653.3 319.5 653.6 319.3 660.2 312.1C666.4 305.3 675.7 289.9 674.6 288.1C674.2 287.6 672.5 286.7 670.7 286.2C659.6 282.8 641.1 285.7 631.7 292.3ZM203.1 321C201.6 321 194.4 333.7 195.3 334.6C196.1 335.5 221.2 338.2 221.8 337.5C222.2 337.1 220.7 335.4 218.5 333.7C216.3 331.9 212.2 328.4 209.3 325.7C206.4 323.1 203.6 321 203.1 321ZM617.3 321.3C616.6 321 614.4 322.4 612.3 324.3C606.9 329.1 602.9 332.5 600 334.8C598.6 335.9 597.8 337.1 598.1 337.5C599.3 338.6 625 335.4 625 334.1C625 333.8 623.5 330.8 621.7 327.6C619.9 324.3 617.9 321.5 617.3 321.3ZM141.4 354C136.4 354 134.6 354.5 130.8 356.9C123.9 361.3 119 369.3 116 380.8C114.2 387.7 114.7 402.7 116.8 409C118.7 414.4 118.7 414.4 120 412C120.8 410.6 121.7 404.4 122.1 398C123 384.2 125.6 375.2 130.8 368.2C137.3 359.3 145.3 357.8 152.4 364.1C159 369.8 162.8 381.1 163.5 397C164 406.6 166.1 414.9 168.2 415C168.5 415 169.6 412.7 170.6 409.8C171.9 405.8 172.2 402.6 171.7 395.6C170.6 377.4 162.7 362.4 150.6 355.8C148.7 354.7 145.2 354.1 141.4 354ZM678.6 354C674.8 354.1 671.3 354.7 669.4 355.8C656.5 362.9 648 380.2 648 399.4C648 405.3 650.4 415 651.8 415C653.9 414.9 656 406.6 656.5 397C657.4 377 663.5 363.7 673 360.9C677.9 359.4 681.1 360.3 685.5 364.2C693.1 370.8 698 384.6 698 399.2C698 404.2 698.6 408.4 699.6 410.8L701.2 414.5L703.2 409C705.8 401.5 705.4 383.2 702.3 374.8C699.4 366.9 694.6 360.3 689.2 356.9C685.4 354.5 683.6 354 678.6 354ZM186.1 359C184.6 359 182 368.6 182 374.2C182 378.8 182.1 378.9 184.8 378.5C196.7 376.4 205.3 375 209.5 374.5C215.6 373.7 215.5 373.6 199 365.1C192.5 361.7 186.7 359 186.1 359ZM633.7 359C632.4 359.1 608 371.6 606.6 373C606.1 373.5 607.9 374.1 610.6 374.5C614.8 375 623.3 376.4 635.3 378.5C637.9 378.9 638 378.8 638 374.2C638 371.5 637.3 367 636.5 364.2C635.6 361.3 634.4 359 633.7 359ZM129.7 374C125.7 382.1 124.4 387.6 123.8 398.5C123.5 405.4 123.5 405.5 126 405.5C128.4 405.5 128.5 405.3 129.1 396C129.9 383.6 133.1 376 137.4 376C138.8 376 139 378 139 391L139 406L144.7 406L145.3 391.3C146 376.8 146.6 374.5 149.6 375.7C152.4 376.7 156 391.4 156 401.7C156 406.9 156 407 159 407L162 407L162 399.2C162 384.9 157 370.5 149.9 364.6C143.1 358.9 135.6 362.4 129.7 374ZM676.3 362C666.9 362 658 380.1 658 399.2L658 407L661 407C664 407 664 406.9 664 401.7C664 391.4 667.6 376.7 670.4 375.7C673.4 374.5 674 376.8 674.7 391.3L675.3 406L681 406L681 391C681 378 681.2 376 682.6 376C686.9 376 690.1 383.6 690.9 396C691.5 405.3 691.6 405.5 694 405.5C696.5 405.5 696.5 405.4 696.2 398.5C695.6 387.7 694.3 382.1 690.5 374.4C688.1 369.4 685.9 366.5 683.2 364.6C681.1 363.2 678 362 676.3 362ZM137.1 408.1L136.8 392.8C136.5 378.4 136.4 377.7 134.9 380C132.7 383.5 131 391.2 130.8 400L130.5 407.5L126.8 407.8C123.4 408.1 123.1 408.4 121.6 413.1C120.1 417.6 120.1 418.5 121.5 423.5C123.3 429.6 124.3 430.6 128.2 430.1L131 429.8L131 439.2C131 449.3 132.9 458.1 135.6 461.1C136.5 462.2 137.5 462.8 137.8 462.5C138.1 462.2 138.4 454.9 138.4 446.3L138.5 430.5L142.9 430.2C145.7 430 147.6 430.3 148.1 431.2C148.6 431.9 149 438.6 149 446C149 464.3 150 467.5 153.7 460.7C155.1 458.2 155.5 454.4 155.8 443.2L156.2 429L159.5 429C162.5 429 162.9 428.6 164.9 423.6L167.1 418.3L164.9 413.7C162.8 409.5 162.3 409.1 158.6 408.8L154.5 408.5L153.8 398C153 386.9 150.6 377.6 148.7 378.3C147.9 378.5 147.3 383.5 147 393.1L146.5 407.5L137.1 408.1ZM666.2 398L665.5 408.5L661.4 408.8C657.7 409.1 657.2 409.5 655.1 413.7L652.9 418.3L655.1 423.6C657.1 428.6 657.5 429 660.6 429L664 429L664 441.2C664 448 664.5 455.1 665 457C666.2 461.4 668.6 464.8 669.6 463.7C670.1 463.2 670.6 456.5 670.8 448.7C671.2 429.3 671 429.8 676.8 430.2L681.5 430.5L681.6 446.2C681.6 454.9 681.8 462.2 682.1 462.5C682.4 462.8 683.5 462.1 684.5 461C687.1 458.2 689 448.8 689 438.7L689 429.8L691.8 430.1C695.7 430.6 696.7 429.6 698.5 423.5C699.9 418.5 699.9 417.6 698.4 413.1C696.9 408.4 696.6 408.1 693.2 407.8L689.5 407.5L689.3 400C689 390.7 687.3 383.1 684.9 379.9C683.1 377.5 683 377.7 683 392.8L683 408.1L678.3 407.8L673.5 407.5L673.3 395C673.1 388.1 672.8 381.5 672.5 380.2C670.9 373.3 667.3 383.5 666.2 398ZM168.2 422C166.5 422 165.3 430.2 165.7 439C166.3 450.4 165 458.3 161.1 466.7C156.1 477.3 147.7 482.8 140.9 480C129.4 475.2 123.3 462.5 122.1 440.5C121.7 433 120.8 426.5 120 425L118.7 422.5L116.7 427C115.1 430.5 114.7 433.7 114.6 441.5C114.6 471.8 133.6 493.8 152.5 485.1C161 481.2 168.4 470.1 171.6 456.1C173.7 447.4 173.1 429.9 170.6 425.2C169.6 423.5 168.5 422 168.2 422ZM651.9 422C647.8 422 645.5 444 648.4 456.1C652.8 475.2 663.4 486.9 676.3 487C682.4 487 687.4 484.5 692.7 478.7C697.8 473.2 700.1 468.8 703.1 459C706.2 448.9 706.3 433.6 703.3 427L701.3 422.5L700 425C699.2 426.5 698.3 433 697.9 440.5C696.9 459.2 692.9 469.8 684.4 476.8C679.9 480.5 675.2 481.5 670.8 479.7C665.7 477.5 659.8 470.2 657 462.4C654.8 456.5 654.5 453.6 654.4 442C654.3 434.6 653.9 427 653.5 425.2C653.1 423.5 652.4 422 651.9 422ZM160.6 431C158.2 431 158.2 431.1 157.8 444.7C157.5 456.1 157.1 459.1 155.5 461.7C151.8 467.9 148.5 467.1 147.6 459.7C147.3 456.8 147 449.4 147 443.2L147 432L140 432L140 448.5C140 464.1 139.9 465 138.1 465C133.2 465 130 456.5 129.4 442C129 432.9 128.9 432.5 126.8 432.5C124.6 432.5 124.5 433 124.2 440.2C123.5 458 131.5 475 142 478.1C149.5 480.4 157.9 472.8 161.6 460.5C163.4 454.5 164.5 439.7 163.6 434.6C163 431.7 162.5 431 160.6 431ZM659.4 431C657.5 431 657 431.7 656.4 434.6C655.5 439.7 656.6 454.5 658.4 460.5C662.2 472.9 670.9 480.5 678.4 478C688.7 474.6 696.5 457.7 695.8 440.2C695.5 433 695.4 432.5 693.2 432.5C691.1 432.5 691 432.9 690.6 442C690 456.5 686.8 465 681.9 465C680.1 465 680 464.1 680 448.5L680 432L673 432L673 443.2C673 449.4 672.7 456.8 672.4 459.7C671.5 467.1 668.2 467.9 664.5 461.7C662.9 459.1 662.5 456.1 662.2 444.7C661.8 431.1 661.8 431 659.4 431ZM201 463L186.8 463L187.5 466.2C188.5 470.7 191.8 480.2 192.7 481.1C193.5 481.8 214.2 465.7 214.8 463.9C215 463.4 209.4 463 201 463ZM633.2 463L619 463C610.6 463 605 463.4 605.2 463.9C605.8 465.7 626.5 481.8 627.3 481.1C628.2 480.2 631.5 470.7 632.5 466.2L633.2 463ZM227.3 499.8C225.6 499 203.9 503.4 204.2 504.4C205 507.2 211.6 518 212.6 518C213.2 518 215.7 515.4 218.3 512.2C220.8 509.1 224 505.1 225.4 503.3C226.9 501.6 227.7 500 227.3 499.8ZM602.8 501.1C597.4 500.1 592.8 499.5 592.6 499.7C591.9 500.4 606.3 518 607.5 518C608.4 518 615.1 507 615.8 504.2C616 503.6 615.3 503 614.3 503C613.3 502.9 608.1 502.1 602.8 501.1ZM122.5 513C119.4 513 119.4 513.9 122.1 519.3C127.9 530.7 134.2 534.9 146.4 535.9C161.5 537 167.3 535.3 171.9 528.3C173.8 525.3 173.8 525 172.3 523.4C170.7 521.8 170.4 522 167.5 525.3C157.7 537 133.9 531.9 126.6 516.5C125.3 513.9 124.3 513 122.5 513ZM697.5 513C695.7 513 694.7 513.9 693.4 516.7C687.8 528.4 671.7 534.9 659.5 530.3C656.1 529.1 653.8 527.4 652.5 525.3C650.2 521.6 649.7 521.4 647.6 523.5C646.2 524.9 646.2 525.4 648.1 528.3C652.5 534.9 654.1 535.5 668.5 535.5C680.8 535.5 681.7 535.4 686.1 532.8C688.6 531.3 691.8 528.6 693.2 526.8C696 523.1 700 515.6 700 514C700 513.5 698.9 513 697.5 513ZM218.7 543.4C217.3 544.7 215.8 547 215.4 548.4C214.8 550.9 215.6 558 216.5 558C216.7 558 218.5 556.9 220.5 555.6C229.6 549.4 236.3 550.2 236.8 557.5C237 560.7 236.5 562.4 234 565.8C232.4 568.1 231 570.2 231 570.4C231 570.6 232.1 571.1 233.5 571.4C237.5 572.4 243.8 570.3 245.7 567.3C247.8 564.1 247.8 557.4 245.7 553.4C243.5 549.3 238.1 544.4 233.8 542.6C228.1 540.2 221.8 540.5 218.7 543.4ZM579.7 546.8C570.1 556 570.2 568.4 580 571C583.4 571.9 589 571.5 589 570.4C589 570.2 587.6 568.1 586 565.8C583.5 562.4 583 560.7 583.2 557.5C583.7 550.2 590.4 549.4 599.5 555.6C601.5 556.9 603.3 558 603.5 558C604.4 558 605.2 550.9 604.6 548.4C604.2 547 602.7 544.7 601.3 543.4C596.6 539.1 586.1 540.7 579.7 546.8ZM225.2 555.1C222.6 556.4 216 562.5 207.7 571.1C194.9 584.6 194.5 585.2 194 590.1C193.7 592.9 193.8 595.4 194.2 595.6C194.7 595.9 197 595.8 199.5 595.5C203.6 594.8 205 593.7 217.5 580.8C225 573.2 232 565.5 233 563.7C235.6 559.6 235.6 555.4 233.1 554C230.5 552.6 230.1 552.7 225.2 555.1ZM585 557.8C585 562.1 588 566 602.7 581L616.5 595L621.5 595.3L626.4 595.5L626.1 591C625.9 588.5 625.5 585.9 625.1 585.2C623.5 582.3 600.4 558.6 597.1 556.4C590.2 552 585 552.6 585 557.8ZM237.3 573.3C233.8 573.4 231 573.7 231 574C231 574.3 231.8 575.2 232.8 576C245.1 586.3 246.6 587.3 263.5 596.5C270.3 600.3 284.2 605.8 294.3 608.9C301.8 611.2 317.6 613.7 318.5 612.8C319.4 612 315.2 604 313.7 603.6C313 603.4 309.6 602.7 306 602.1C291.7 599.4 269.3 589.8 252.8 579.1C243.8 573.4 243.3 573.2 237.3 573.3ZM582.6 573.3C576.6 573.1 575.7 573.4 570.8 576.8C554.7 588.1 529.6 599.2 514 602.1C510.4 602.7 507 603.4 506.3 603.6C504.8 604 500.6 612 501.5 612.8C501.8 613.1 505.8 612.9 510.4 612.2C524.4 610.2 542.7 604 556.5 596.6C572.4 588 574.6 586.6 587.2 576C588.2 575.2 589 574.3 589 574C589 573.7 586.1 573.4 582.6 573.3ZM256.9 595C256.3 595 237.3 623.1 236.4 625.4C235.8 627 236.7 627 244.5 625.5C246.4 625.1 247.8 622.8 258.9 602.8C261.5 598.1 261.5 598.1 259.5 596.6C258.4 595.7 257.2 595 256.9 595ZM563.1 595C562.8 595 561.6 595.7 560.5 596.6C558.5 598.1 558.5 598.1 561.1 602.8C574.6 627.2 572.8 625.1 580.9 626.4C585.2 627.2 585.2 627.2 573.4 609.4C568.1 601.5 563.5 595 563.1 595ZM263.7 599C263.3 599 252.5 617.9 249.6 623.7C248.7 625.5 248 629.3 248 632.5L248 638.1L253 635.3C256.8 633.2 258.4 631.5 259.9 628C260.9 625.5 263.9 618.8 266.5 613.1C269 607.4 271 602.7 270.8 602.5C270.6 602.4 269.1 601.5 267.3 600.6C265.5 599.7 263.9 599 263.7 599ZM556.1 599C555.6 599.1 549.9 601.9 549.2 602.5C549.1 602.6 551 607.4 553.6 613.1C556.1 618.8 559 625.5 560.1 628C561.6 631.5 563.2 633.2 567 635.3L572 638.1L572 632.5C572 626.4 571.7 625.7 562.7 609.7C559.4 603.8 556.4 599 556.1 599ZM277.1 604.9L273.2 603.2L269.9 610.4C268.2 614.3 265.2 620.8 263.3 624.8C261.5 628.9 260 632.6 260 633.1C260 633.6 261.2 636.4 262.6 639.2C265.1 644 265.3 644.3 266.6 642.5C267.4 641.5 268 640.3 268 639.9C268 639.5 270.9 632.1 274.5 623.5C278.1 615 281 607.6 281 607.2C281 606.8 279.2 605.8 277.1 604.9ZM549.2 608.9L546.5 603.2L543 604.8C541.1 605.7 539.3 606.6 539.1 606.7C538.9 606.9 539.4 608.7 540.2 610.7C548.9 632.2 553.3 642.6 554 643.4C554.8 644.2 560 635.2 560 633.1C560 632.6 558.2 628.2 556 623.3C553.8 618.5 550.8 612 549.2 608.9ZM293.5 627.9C293.2 628.5 294 629.4 295.2 630.1C298.3 631.8 299.9 634 300 636.8C300 639 299.7 639.1 295.6 638.5C292.6 638 291 638.2 290.5 639C289.6 640.5 291.7 642 294.8 642C297.8 642 298.9 644.9 296.5 646.6C295.5 647.4 293.1 648 291.3 648C289.1 648 288 648.5 288 649.5C288 651.6 292.3 652.4 296.4 651C303 648.9 305.7 639 301.4 632.5C299.6 629.8 294.3 626.7 293.5 627.9ZM522.6 628.9C519 631.3 517.3 633.8 516.5 638.2C515.1 645.8 522.4 653.2 529.4 651.4C533.2 650.5 532.7 648 528.7 648C526.9 648 524.5 647.4 523.5 646.6C521.1 644.9 522.2 642 525.2 642C528.3 642 530.4 640.5 529.5 639C529 638.2 527.4 638 524.4 638.5C520.2 639.1 520 639 520 636.7C520 634.4 521.7 632.1 525.4 629.6C528.4 627.6 525.7 626.9 522.6 628.9ZM330.8 643.1C323.4 643.2 314.6 645.1 309.2 647.9C300.9 652.1 292.9 661.1 290.6 668.7C290 670.6 290.3 671 291.8 671C293.1 671 294.7 669.4 296.4 666.6C299.1 662 306.8 654.5 311.3 652.1C313.8 650.8 314.2 650.8 316.8 653.2C322.9 659 326.8 660.4 336.7 660.5C345.8 660.5 349 659.5 347.6 657.1C347.1 656.3 346.3 656.3 344.9 657.1C342.1 658.5 333.3 658.4 328.9 656.8C324.8 655.3 320 651.7 320 650.1C320 648.3 324 647.9 332.8 648.8C341.6 649.7 342.4 649.2 339.1 645.2C337.5 643.3 336.2 643 330.8 643.1ZM488.5 643C483.3 643.1 482.3 643.4 480.8 645.5C479.8 646.8 479 648.3 479 648.7C479 649.2 482.7 649.2 487.3 648.8C496 647.9 500 648.3 500 650.1C500 651.7 495.2 655.3 491.1 656.8C486.7 658.4 477.9 658.5 475.1 657.1C473.7 656.3 472.9 656.3 472.4 657.1C471 659.4 474.2 660.5 482.9 660.5C492.5 660.5 494.8 659.7 501.8 654.2C505.8 651 506.3 650.8 508.7 652.1C513.2 654.5 520.9 662 523.6 666.6C525.3 669.4 526.9 671 528.2 671C529.7 671 530 670.6 529.4 668.7C527.8 663.5 524.8 659 519.9 654.6C513.4 648.8 509 646.4 500.8 644.5C497.3 643.7 491.8 643 488.5 643Z" />
		<path id="Layer" fill-rule="evenodd" class="shp0" d="M410.2 132.2C410.8 132.4 412.9 136.2 414.9 140.5C421.3 154.5 426.3 162.3 434 170.4C448.6 185.7 474.4 205.3 502 222C505 223.8 509.8 226.8 512.5 228.6C518.4 232.4 549.3 248 556.6 250.8L561.7 252.9L570.1 250.1C584.2 245.4 586.7 244.7 587.9 245.4C589.2 246.3 589.3 249.3 588.1 250.5C586.8 251.8 578 286.5 578 290.2C578 291.7 579.4 297.9 581 304C583.6 313.4 584 316.8 584 327.3C584 334 584.3 343.9 584.7 349.3C585.3 358.4 585.5 359.2 587.6 360C589.1 360.6 590.1 362 590.4 364.2C591.2 369.2 594.8 407.2 595.5 418L596.1 427.5L592 430.5C586.8 434.3 581.6 441.3 580.1 446.5C577.5 455.8 579.3 465.1 585.1 472.2L587.3 474.8L582 488.9C579.1 496.7 576.2 503.6 575.6 504.4C575 505.2 570.8 507.2 566.2 508.9C549 515.1 534.2 528.3 526.5 544.5C524.1 549.4 521.6 555.4 521 557.7C519.8 562.4 517.4 563.5 516.5 559.7C512.8 542.8 513.1 540.7 519.4 534C530.2 522.7 534.8 506.9 530.4 496C528.3 490.8 529.1 486.8 533.5 480.8C537.5 475.3 545 471 550.6 471C554.4 471 561 473.6 561 475.1C561 476.3 559.6 476.2 556.6 474.9C552 472.8 546 477.1 546 482.6C546 485.6 549 489.7 552 491C556.6 492.9 562.9 490.8 565.9 486.5C571.4 478.5 572.4 469.3 568.8 462C561.6 447.7 545.3 450.9 533.5 468.9C527 478.7 520.2 485.3 512.1 489.3C502.6 494 495.7 495.4 483.5 494.7C466.3 493.9 451.3 488.3 433 476C421.6 468.3 419.2 468.3 417.1 475.8C415.7 480.5 416.9 481.3 425.7 481.4C432.6 481.5 434.1 481.9 439.1 484.8C448.6 490.2 455.2 498.5 458.9 509.7C462.7 521.1 461.1 528.9 455.1 527.7C453.7 527.4 445.1 526.4 436 525.5C426.9 524.6 418.3 523.4 416.8 522.8C413.7 521.6 412.8 519.1 414.1 514.5C417.1 503.8 429.3 500.2 436.3 508C439.9 512 442 510.8 440 506C437.9 500.8 432.5 497.5 426.4 497.5C420 497.5 416.4 499.8 413.2 506.1C412 508.5 410.3 510.5 409.5 510.5C408.7 510.5 407 508.5 405.8 506C401.5 497.6 391.3 494.8 383.8 500.1C380.8 502.2 378 506.8 378 509.5C378 511.9 379.8 511.3 383.6 507.5C386.4 504.7 387.8 504 391.1 504C398.3 504 403.8 508.8 405.4 516.5C406.7 522.5 405.5 522.9 382 525.7C361.1 528.2 360.6 528.2 359.3 526.4C358.2 525 358 522.7 358.3 518.3C359.3 505.2 369.1 490.6 381.1 484.4C385.6 482.1 387.8 481.6 394 481.5L401.5 481.5L401.8 478.2C402.2 474.2 399.7 470 397 470C395.9 470 390.8 472.9 385.6 476.4C366.5 489.4 350.3 495.2 332.5 495.3C310.7 495.5 297.5 488.5 285.5 470.6C277.9 459.2 270.8 454.2 262.3 454C255.8 454 251.3 458.3 249 467C247.1 474.2 251.1 487.1 256.4 490.5C260.9 493.5 265.3 493.5 268.8 490.5C271.5 488.3 272 487.1 272 483.6C272 476.5 268.2 474.7 259.3 477.5C255.8 478.6 256.4 475.4 260 473.5C263.9 471.5 270.6 471.6 275.5 473.9C280.5 476.2 287.2 483.6 288.9 488.8C290.1 492.2 290 493.1 288.4 496.1C284.8 503 286.9 517 292.8 526.5C294.2 528.7 297.5 532.8 300.3 535.7L305.2 540.9L304 551.5C303.3 557.3 302.3 562.3 301.8 562.6C300.3 563.6 298.2 561.1 297.6 557.5C297.2 555.6 294.8 549.9 292.3 544.8C284.2 528.6 268.6 515.2 251 509.3C243.3 506.8 242.8 506.1 235.6 488.2L230.8 476.3L234.3 471.4C243.4 458.7 241 444.3 227.9 432.9L221.8 427.5L222.4 422.5C222.7 419.8 223.8 406.5 225 393C227.5 361.9 227.5 362.4 230.8 360.8L233.5 359.5L234 335.5C234.5 313 234.7 310.9 237.4 301.7C240.1 292.1 240.1 291.6 238.7 285.7C230.3 250.1 230 248.8 231 246.9C231.6 245.9 232.7 245 233.5 245C234.2 245 240.1 246.9 246.6 249.2L258.3 253.3L277.4 243.7C320.1 222.1 354.5 198.5 380.1 173C393.7 159.5 398.1 153.9 404.5 141.2C407.1 136.1 409.7 132.1 410.2 132.2ZM396.4 181.9C375.5 187.6 359 198.9 348.1 214.9C338.6 228.8 334.5 243.4 335.3 260.5C335.8 273.5 337.8 281.4 343.1 292.8C352.1 312.3 368.1 328.3 390.2 340C397.1 343.6 397.5 342.8 398.9 323.5C400 307.3 403.6 286.5 406.5 279.7C408.6 274.7 411.4 274.7 413.5 279.7C416.4 286.5 420 307.3 421.1 323.5C422.5 342.8 422.9 343.6 429.8 340C439.3 335.1 451.7 326 458.6 318.8C475.4 301.6 483.7 283.2 484.7 260.9C485.5 244 481.9 230.2 472.9 216.4C463 201.3 448.2 190 429.9 183.9C417.7 179.8 406.6 179.1 396.4 181.9ZM563.9 257.4C554.1 260.4 548.7 263.1 526.6 275.9C513.9 283.2 460.9 320.3 458 323.9C457.7 324.2 453 328.1 447.5 332.5C442 336.9 431.6 346.2 424.4 353.2C414.9 362.5 410.6 366 408.9 366C407.1 366 403.4 363 395.5 355.2C381.3 341.2 370.9 332.5 351.8 318.2C310.8 287.5 266.4 260.8 248.8 256.3C245.1 255.3 241.9 254.8 241.6 255.1C240.9 255.7 248.5 287.2 249.9 289.8C250.5 290.9 254.3 292.3 260.7 293.9C274.7 297.2 290.2 303.1 307.5 311.5C340.5 327.5 369.9 348.6 395.8 374.8L409.1 388.3L423.3 373.8C443.1 353.6 457.8 341.9 483.5 325.7C509.1 309.5 534.5 298.3 558.4 292.5C563.9 291.1 568.7 289.7 569.2 289.2C569.6 288.8 571.6 281.7 573.5 273.4C575.4 265.2 577.2 257.5 577.5 256.2C578.2 253.3 576.9 253.4 563.9 257.4ZM577 320L572.3 320.1C562.9 320.4 538.5 325.9 523.4 331.1C492.9 341.6 463.5 358 435.7 379.9C425.1 388.2 414 401.3 412 407.7C411.4 409.8 410.7 412.1 410.4 412.9C409.7 415 407.4 412.5 406.6 408.9C405.4 402.8 393.2 388.3 382.5 380C372.4 372.3 360.4 363.6 357.2 361.8C329.8 345.8 314.6 338.8 292.5 331.5C277.5 326.5 256.2 322 246.9 321.7L240.5 321.5L240.2 329.5C240 333.9 240.2 342.6 240.5 348.9L241.2 360.3L258.9 359.6C275 359 276.8 359 278.1 360.6C279.1 361.8 279.5 365.2 279.5 372.9C279.5 384.1 277.9 390.4 273.6 396.3C271.3 399.5 265 403.4 260.8 404.4C257.4 405.2 251 402.7 251 400.6C251 398.7 250.9 398.7 254.9 400.1C261.2 402.3 266 399.2 266 392.9C266 387.8 263.9 383.8 259.5 380.5C254.3 376.5 249.1 376.2 243.5 379.4C236.5 383.5 233.8 388.5 233.2 397.9C232.7 407 234 410.4 239.7 414.7C243 417.2 244.1 417.5 251.4 417.5C257.4 417.5 260.5 417 263.5 415.5C268.4 413.1 276.4 405.1 279 400.1C281.8 394.5 290.5 384.6 296.8 379.9C315.4 366 337.8 361.6 357.1 368C370.3 372.4 383.5 385.8 394.5 405.9C399.2 414.4 404.9 428.1 407 436C407.6 438.3 408.6 440 409.2 439.8C409.8 439.6 411.6 435.4 413.2 430.5C418.5 414 427 398 436.4 386.5C449.5 370.6 462 364.6 481.5 364.7C495.5 364.8 509 369.9 522.1 380C528.6 385 536.2 393.7 539 399.5C541.6 404.7 551.5 413.7 556.7 415.4C567.1 419 577.1 416.6 582.7 409.3C585.2 406.1 585.5 404.8 585.5 398.6C585.4 393.4 584.9 390.4 583.3 387.5C579.5 380.4 573 376 566 376C562.6 376 561.3 376.7 557 380.8C552.3 385.3 552 385.9 552 390.6C552 397.2 553.7 399.4 558.6 399.4C560.8 399.5 563.6 399.1 564.8 398.6C566.8 397.9 567.1 398.1 566.8 399.7C566.6 400.8 564.9 402 562.5 402.8C559.1 403.9 557.9 403.9 554.2 402.5C548.1 400.1 544.8 397 541.5 390.3C539 385.2 538.6 383.2 538.2 372.9C537.6 356.9 536.4 357.7 559.1 358.6L577 359.3L577 320ZM307.5 396.4C295.8 404.3 279.6 425 285.1 425C285.7 425 289 424.2 292.4 423.3C297.2 421.9 302.4 421.5 317 421.6C333.8 421.6 336.5 421.8 346.4 424.3C359 427.5 375.6 434.2 385 440C390.2 443.2 391.6 443.7 391.8 442.4C392.3 440.2 381.9 420.2 376.6 413.2C369.9 404.4 359 394.8 351.7 391.2C338.7 384.8 321.8 386.8 307.5 396.4ZM471 388.6C455.4 394.2 434.9 418 427.4 439.2C426.3 442.5 426.3 443 427.6 443C428.5 443 431.2 441.6 433.6 439.9C442.9 433.5 460 426.7 476.2 422.8C488.8 419.8 513.6 419.6 525.3 422.3C529.6 423.3 533.4 423.9 533.8 423.5C534.9 422.4 529.6 413.9 523.6 407.4C516.4 399.4 507.4 393 499.5 390C491.5 387 477.4 386.3 471 388.6ZM289.4 441.5C286.4 442.8 284 444.3 284 444.9C284 446.8 292.2 456.1 297.8 460.5C309.2 469.5 323.9 474.9 336.7 475C348.5 475 363.4 472 374 467.3C380.9 464.3 391.7 457.3 392.4 455.5C393.8 451.6 369.5 440.8 351 437.1C328.6 432.5 306 434.1 289.4 441.5ZM455.9 439.6C445.3 442.9 427.1 451.5 426.3 453.7C424.9 457.2 441.7 467 456 471.1C465.6 473.8 486.6 474.8 494.9 473C503.8 471 513.5 465.7 524 457C528.2 453.6 534 446.1 534 444.1C534 441.7 522.2 437.4 510 435.4C493.2 432.6 473.1 434.2 455.9 439.6Z" />
		<path id="Layer" class="shp0" d="M402 188.5C377.8 193.8 359.4 207.4 349.8 227.1C344.7 237.5 342.9 245.5 342.9 257.5C342.9 279.2 351.3 298.3 368.1 314.9C373.5 320.3 387 330.3 387.8 329.6C387.9 329.4 384.9 325.1 381 319.9C369 303.9 363.1 290.1 360.9 273.1C357.4 245.6 370.3 221.1 394.7 209.1C407.7 202.7 412.4 202.8 426.7 209.8C434.7 213.7 445.8 223.5 450.2 230.5C457.7 242.5 461 258.3 459.1 272.8C456.9 289.9 450.9 304 439 319.9C435.1 325.1 432.1 329.4 432.3 329.6C433.1 330.4 447.5 319.5 452.7 314.2C464 302.8 471.9 288.9 475.4 274.6C477.6 265.5 477.7 249.4 475.5 240.9C473.3 232.4 467.6 221 462.4 214.5C453.3 203.4 438.4 193.9 424 190.1C413 187.2 409.2 187 402 188.5Z" />
		<path id="Layer" class="shp0" d="M401.8 214.4C380.1 223.6 368 241.7 368 265C368 275.3 371 286.6 377 298.6C381.7 308.1 389.6 319.8 390.7 318.7C390.9 318.4 391.8 312.9 392.6 306.5L394.2 294.8L391.1 292.1C387.3 288.7 383.3 280.1 382.5 273.6C380.4 256.5 395.2 236.7 410 236.7C424.8 236.7 439.6 256.5 437.5 273.6C436.7 280.1 432.7 288.7 428.9 292.1L425.8 294.8L427.4 306.5C428.2 312.9 429.1 318.4 429.3 318.7C430.4 319.8 438.3 308.1 443 298.6C453.9 276.6 454.9 256.6 446 238.9C441.6 230.3 432.3 221.4 422.7 216.6C412.7 211.7 409.1 211.3 401.8 214.4Z" />
		<path id="Layer" class="shp0" d="M403.7 246.6C392.2 252.6 386.8 269.4 392.8 280.9C393.8 282.8 395.1 284.5 395.6 284.7C396.1 284.9 397.6 282.1 398.9 278.4C402.1 269.4 405.1 266 410 266C414.9 266 417.9 269.4 421.1 278.4C422.4 282.1 423.9 284.9 424.4 284.7C424.9 284.5 426.2 282.8 427.2 280.9C433.2 269.2 427.8 252.5 416 246.5C410 243.5 409.7 243.5 403.7 246.6Z" />
		<path id="Layer" fill-rule="evenodd" class="shp0" d="M430 539.4C443.8 541.9 460.9 548.8 469.5 555.3C475.7 560 481 565.2 482.5 568C484.3 571.5 483 574.1 476.3 580.9C466.1 591.1 451.6 599 434.5 603.7C425.6 606.2 422.8 606.5 409.5 606.5C396.2 606.5 393.4 606.2 384.5 603.7C366.8 598.8 353.3 591.4 342.8 580.8C333.8 571.8 333.8 570.8 343.4 561.5C354.3 550.9 371.2 542.8 389.5 539.5C398.8 537.8 420.6 537.7 430 539.4ZM373.1 558.3C366.2 561.2 357.6 566.5 354.5 570L352.5 572.2L356 575.2C361.6 579.9 378.6 587.7 388.5 590.1C400.9 593 418.1 593 430.5 590C440.4 587.7 457.5 579.9 463 575.2C467.3 571.5 466.8 570.2 458.9 564.7C451.8 559.8 440.3 555.4 429.5 553.5C411.1 550.3 388 552.3 373.1 558.3Z" />
		<path id="Layer" class="shp0" d="M390.5 564C382.3 564.3 374.8 564.9 373.9 565.3C371.7 566.4 369.7 570.3 370.2 572.6C370.9 576.2 375.1 576.5 389.7 574C409.1 570.7 411.1 570.6 420.8 572.3C445.2 576.8 447 576.8 449 572.9C450.3 570.6 448.4 566.8 445.3 565.2C442.9 564 409.3 563.3 390.5 564Z" />
		<path id="Layer" fill-rule="evenodd" class="shp0" d="M156.7 545.4C162.5 548.1 172 557.1 172 559.8C172 560.8 170.3 563.3 168.1 565.4L164.3 569.1L161 565C156.1 558.8 149.7 556.2 147.1 559.4C145.6 561.2 149.4 566 152.4 566C153.6 566 155.7 567.1 157 568.5C158.9 570.6 159.2 571.4 158.4 572.8C157.8 573.7 156.6 574.5 155.7 574.5C154.3 574.5 138.8 555.1 136 549.9C134.9 548 135.8 546.7 139.5 544.7C143.9 542.3 150.6 542.6 156.7 545.4ZM140.8 546.2C137.2 547.4 137.3 548.7 141.1 553.9C143.3 557.1 144.6 558 145.8 557.5C150 555.7 152.1 555.9 156.3 558.3C158.7 559.8 161.5 562.1 162.4 563.6L164.2 566.2L167.1 563.4C168.7 561.9 170 560.1 170 559.4C170 557.5 160.3 549 155.7 547C151.2 544.9 145.1 544.6 140.8 546.2Z" />
		<path id="Layer" fill-rule="evenodd" class="shp0" d="M680.3 544.6C686.3 547.7 686.5 547.1 673.6 564.3C665.6 574.9 663.8 576.2 661.6 572.8C660.8 571.5 661.1 570.6 663 568.5C664.3 567.1 666.4 566 667.6 566C670.6 566 674.4 560.8 672.8 559.2C669.9 556.3 663.8 558.9 659 565L655.7 569.1L651.9 565.4C649.7 563.3 648 560.8 648 559.7C648 557 657.3 548.2 663.2 545.5C669.4 542.6 675.7 542.3 680.3 544.6ZM664.3 547C659.7 549 650 557.5 650 559.4C650 560.1 651.3 561.9 652.9 563.4L655.8 566.2L657.6 563.6C658.5 562.1 661.3 559.8 663.7 558.3C667.9 555.9 670 555.7 674.2 557.5C675.4 558 676.7 557.1 678.9 553.9C682.8 548.6 682.8 547.5 678.9 546.1C674.2 544.5 669.1 544.8 664.3 547Z" />
		<path id="Layer" class="shp0" d="M479.2 597C476.8 598.7 470.8 602.3 465.7 605C426.9 625.7 380.4 623.5 343.7 599.3C333.6 592.6 332.1 594.1 336.5 606.9C343.8 628.4 359.9 654.4 377 672.4C382.2 677.8 384 679.1 385.6 678.6C388.1 677.8 391.4 671.1 393 663.6C396.5 646.5 385.8 629.3 373 631.2C369.7 631.6 369.4 633.8 372.4 635.2C375.8 636.7 376.7 640.3 374.6 643.5C373.3 645.4 372.1 646 369.1 646C361.4 646 356.4 638.3 359 630.4C361.3 623.6 367.3 620 376.4 620C395.1 620 408 636.4 408 660.2C408 669.4 406 677.4 401.4 686.1C399.1 690.4 398 693.6 398.4 694.8C398.8 695.9 401 698.9 403.4 701.4C409.2 707.7 411.5 707.6 417.4 700.6C419.9 697.7 422 694.7 422 693.9C422 693.2 420.2 689 418.1 684.5C413.6 675.3 412 668.6 412 659.2C412.1 646.7 416.3 635.1 423.4 627.9C428.7 622.5 433.3 620.6 442.2 620.2C451.9 619.7 456.9 622.1 460.1 628.6C464.5 637.9 457.7 647.9 448.5 645.6C443.4 644.3 442.7 637 447.5 634.8C451.8 632.9 450.6 631 445.2 631C434.6 631 426.7 641.6 426.6 655.9C426.6 666.8 431.2 679 435.5 679C438.3 679 455.6 658.6 465.4 643.5C470.4 635.9 480.9 613.7 484 604.3C486.2 597.7 486.3 596.9 484.9 595.5C483.5 594.1 482.9 594.3 479.2 597Z" />
		<path id="Layer" class="shp0" d="M402.2 730C401.1 731.8 399.7 732 380.8 732.2L360.5 732.5L357.7 754.9C356.1 767.8 355.3 777.7 355.8 778.2C356.3 778.7 358.7 778 361.5 776.6C370.6 771.7 379.7 773.9 383.8 782C388.6 791.3 385.1 806.2 376.2 814.2C370.8 819.1 362.3 823 355.6 823.7C351.8 824.1 350 824.7 350 825.6C350 827.3 353.1 827.4 363.7 825.9C379.2 823.8 394 817.9 402.8 810.4C408.1 805.9 412 798 412 792C412 782.4 407.7 775.9 398.6 771.8C394.2 769.8 391.9 769.5 382 769.5C371.6 769.6 369.9 769.8 364.6 772.3C361.4 773.8 358.6 774.9 358.5 774.8C357.9 773.9 360.8 754.8 361.7 753.9C362.4 753.2 370 752.9 384.9 753.2L407 753.5L407 748.4C407 745.6 406.7 739.9 406.4 735.7C405.7 727.8 404.6 726.3 402.2 730Z" />
		<path id="Layer" class="shp0" d="M451.5 733.8C447.1 735.4 440.1 736.7 432.8 737.3C424.3 738.1 421 738.8 421 739.7C421 740.4 421.8 741 422.9 741C426.5 741 430.7 743.2 431.9 745.6C432.6 747.2 433 756.4 433 772.4C433 795.5 432.9 796.9 430.9 799.4C429.6 801.1 427.5 802.2 424.9 802.6C422.7 803 421 803.8 421 804.6C421 805.6 425.7 805.9 444 805.8C462.9 805.8 467 805.5 467 804.4C467 803.6 466.1 803 465 803C463.9 803 462.2 802.1 461.2 801C459.7 799.2 459.4 795.4 459 765.2L458.5 731.4L451.5 733.8Z" />
	</g>
</svg>